<svg width="81" height="82" viewBox="0 0 81 82" fill="none" xmlns="http://www.w3.org/2000/svg">
<path d="M0 30.5C0 13.9315 13.4315 0.5 30 0.5H41C63.0914 0.5 81 18.4086 81 40.5V51.5C81 68.0685 67.5685 81.5 51 81.5H30C13.4315 81.5 0 68.0685 0 51.5V30.5Z" fill="#FFF2F8"/>
<path d="M59.1338 15.7017H19.8662C19.3875 15.7017 19 16.0898 19 16.5679V66.432C19 66.9101 19.3875 67.2982 19.8662 67.2982H59.1338C59.6125 67.2982 60 66.9101 60 66.432V16.5679C60 16.0898 59.6125 15.7017 59.1338 15.7017ZM58.2676 60.5652C58.2676 63.3267 56.029 65.5652 53.2676 65.5652H25.7324C22.971 65.5652 20.7324 63.3266 20.7324 60.5652V22.4335C20.7324 19.6721 22.971 17.4335 25.7324 17.4335H53.2676C56.029 17.4335 58.2676 19.6721 58.2676 22.4335V60.5652Z" fill="#681986"/>
<path d="M27.7934 47.7488L32.1879 46.7688L32.9906 50.9398C33.0605 51.3013 33.3504 51.5791 33.7142 51.6328C33.7569 51.6397 33.7991 51.6426 33.8412 51.6426C34.1594 51.6426 34.4562 51.4671 34.6075 51.1795L39.5004 41.8754L44.3932 51.1795C44.5445 51.4671 44.8413 51.6426 45.1595 51.6426C45.2017 51.6426 45.2438 51.6397 45.2866 51.6328C45.6504 51.5791 45.9408 51.3013 46.0101 50.9398L46.8128 46.7688L51.2073 47.7488C51.5555 47.8267 51.9153 47.6835 52.1145 47.3873C52.3137 47.091 52.3114 46.7036 52.1082 46.4108L46.4086 38.1738C46.3624 38.1068 46.3064 38.052 46.2469 38.0023C47.0634 36.7209 47.5427 35.2016 47.5427 33.5691C47.5427 29.0285 43.8828 25.3345 39.3837 25.3345C34.8853 25.3345 31.2253 29.0279 31.2253 33.5691C31.2253 35.264 31.7364 36.8399 32.6106 38.1507C32.6043 38.1588 32.5968 38.1652 32.591 38.1738L26.8914 46.4108C26.6882 46.7041 26.6859 47.0916 26.8851 47.3873C27.0849 47.6835 27.4452 47.8267 27.7934 47.7488ZM49.4253 45.5758L46.3202 44.8834C46.0904 44.8314 45.8519 44.8753 45.6567 45.0047C45.461 45.1328 45.3253 45.335 45.2814 45.5654L44.7772 48.1853L41.2946 41.5624C42.7746 41.2026 44.1022 40.4427 45.1462 39.3911L49.4253 45.5758ZM39.3843 27.0669C42.9282 27.0669 45.8109 29.9836 45.8109 33.5691C45.8109 36.8953 43.3203 39.6412 40.1292 40.0182C40.0322 40.0269 39.9733 40.0361 39.8896 40.0419C39.8076 40.0477 39.7325 40.0541 39.6436 40.0604C39.5593 40.0639 39.4755 40.0662 39.3907 40.0662C39.2832 40.0691 39.1978 40.0656 39.1031 40.0587C38.9939 40.0506 38.8958 40.0448 38.7895 40.0361C35.5245 39.7312 32.9583 36.949 32.9583 33.5691C32.9583 29.9836 35.8416 27.0669 39.3843 27.0669ZM33.7656 39.521C34.8368 40.5507 36.1805 41.2921 37.6796 41.6155L34.2247 48.1853L33.7205 45.5654C33.6761 45.3355 33.5404 45.1328 33.3452 45.0047C33.1494 44.8753 32.9092 44.8314 32.6817 44.8834L29.5766 45.5758L33.7656 39.521Z" fill="#681986"/>
<path d="M43.9872 58.1997H35.0117C34.533 58.1997 34.1455 58.5878 34.1455 59.0659C34.1455 59.544 34.533 59.9321 35.0117 59.9321H43.9872C44.466 59.9321 44.8534 59.544 44.8534 59.0659C44.8534 58.5878 44.466 58.1997 43.9872 58.1997Z" fill="#681986"/>
</svg>
