<svg width="81" height="81" viewBox="0 0 81 81" fill="none" xmlns="http://www.w3.org/2000/svg">
<path d="M0 30C0 13.4315 13.4315 0 30 0H41C63.0914 0 81 17.9086 81 40V51C81 67.5685 67.5685 81 51 81H30C13.4315 81 0 67.5685 0 51V30Z" fill="#ECEDFE"/>
<path d="M38.7429 51.2565H20.2342C20.764 43.297 27.4074 36.9841 35.4959 36.9841C38.4441 36.9841 41.3057 37.8243 43.77 39.4147L43.7702 39.4149C44.2471 39.7218 44.883 39.5855 45.1914 39.1079L45.1914 39.1078C45.4992 38.6307 45.3614 37.9942 44.8852 37.6865L44.885 37.6864C42.0863 35.8818 38.8397 34.928 35.4959 34.928C25.928 34.928 18.1437 42.714 18.1437 52.2845C18.1437 52.852 18.6036 53.3126 19.1718 53.3126H38.7429C39.3105 53.3126 39.771 52.8521 39.771 52.2845C39.771 51.7171 39.3111 51.2565 38.7429 51.2565Z" fill="#2E35B8" stroke="#2E35B8" stroke-width="0.4"/>
<path d="M35.2091 33.7927C40.7913 33.7927 45.3324 29.251 45.3324 23.6678C45.3324 18.0888 40.7912 13.55 35.2091 13.55C29.6307 13.55 25.093 18.0889 25.093 23.6678C25.093 29.2503 29.6306 33.7927 35.2091 33.7927ZM35.2091 15.6061C39.6569 15.6061 43.2763 19.223 43.2763 23.6678C43.2763 28.1166 39.6573 31.7366 35.2091 31.7366C30.7655 31.7366 27.1491 28.1167 27.1491 23.6678C27.1491 19.2228 30.7653 15.6061 35.2091 15.6061Z" fill="#2E35B8" stroke="#2E35B8" stroke-width="0.4"/>
<path d="M42.7272 62.3784L38.2898 63.3269L38.2896 63.327C37.8745 63.4153 37.4494 63.2406 37.2165 62.887C36.9833 62.5331 36.9917 62.0727 37.2362 61.7269L37.2364 61.7266L43.016 53.5802C42.0027 52.155 41.4032 50.4163 41.4159 48.5365L41.4159 48.5364C41.4509 43.7751 45.371 39.9366 50.1137 39.9592L50.1143 39.9592C54.8755 39.9953 58.7199 43.8973 58.6854 48.658C58.6733 50.4926 58.0836 52.2309 57.0179 53.6821L62.6744 61.9083C62.9146 62.2569 62.9156 62.7175 62.6769 63.0691C62.4387 63.4206 62.0077 63.5874 61.5968 63.4936L61.5968 63.4936L57.1807 62.4833L56.3436 66.6256L56.3436 66.6256C56.2572 67.0528 55.911 67.3781 55.4803 67.4398L55.4799 67.4398C55.4316 67.4466 55.3831 67.4501 55.335 67.4501C54.9564 67.4501 54.6034 67.2403 54.4246 66.8977L49.9817 58.3911L45.4188 66.8337L42.7272 62.3784ZM42.7272 62.3784L43.5043 66.5338L43.5043 66.5339C43.5845 66.9621 43.9251 67.2931 44.3554 67.3609L44.3561 67.3611C44.409 67.3692 44.4622 67.3733 44.5146 67.3733C44.8879 67.3733 45.2375 67.17 45.4187 66.834L42.7272 62.3784ZM56.6288 48.6435V48.645V48.6451C56.6173 50.4 55.9217 52.0453 54.6691 53.2786L54.6691 53.2786C53.4285 54.5005 51.7919 55.1714 50.0537 55.1709H50.0537H50.0536H50.0535H50.0534H50.0533H50.0532H50.0531H50.053H50.0529H50.0528H50.0527H50.0526H50.0525H50.0524H50.0523H50.0522H50.0521H50.052H50.0519H50.0518H50.0517H50.0516H50.0515H50.0514H50.0513H50.0512H50.0512H50.0511H50.051H50.0509H50.0508H50.0507H50.0506H50.0505H50.0504H50.0503H50.0502H50.0501H50.05H50.0499H50.0498H50.0497H50.0496H50.0495H50.0494H50.0493H50.0492H50.0491H50.049H50.0489H50.0488H50.0487H50.0486H50.0485H50.0484H50.0483H50.0482H50.0481H50.048H50.0479H50.0478H50.0477H50.0476H50.0475H50.0474H50.0473H50.0472H50.0471H50.047H50.0469H50.0468H50.0467H50.0466H50.0465H50.0464H50.0463H50.0462H50.0461H50.046H50.0459H50.0458H50.0457H50.0456H50.0455H50.0454H50.0453H50.0453H50.0452H50.0451H50.045H50.0449H50.0448H50.0447H50.0446H50.0445H50.0444H50.0443H50.0442H50.0441H50.044H50.0439H50.0438H50.0437H50.0436H50.0435H50.0434H50.0433H50.0432H50.0431H50.043H50.0429H50.0428H50.0427H50.0426H50.0425H50.0424H50.0423H50.0422H50.0421H50.042H50.0419H50.0418H50.0417H50.0416H50.0415H50.0414H50.0413H50.0412H50.0411H50.041H50.0409H50.0408H50.0407H50.0406H50.0405H50.0404H50.0403H50.0402H50.0401H50.04H50.0399H50.0398H50.0397H50.0396H50.0395H50.0394H50.0393H50.0392H50.0391H50.039H50.0389H50.0388H50.0387H50.0386H50.0385H50.0384H50.0383H50.0382H50.0381H50.038H50.0379H50.0378H50.0377H50.0376H50.0375H50.0374H50.0373H50.0372H50.0371H50.037H50.0369H50.0368H50.0367H50.0366H50.0365H50.0364H50.0363H50.0362H50.0361H50.036H50.0359H50.0358H50.0357H50.0356H50.0355H50.0354H50.0353H50.0352H50.0351H50.035H50.0349H50.0348H50.0347H50.0346H50.0345H50.0344H50.0343H50.0342H50.0341H50.034H50.0339H50.0338H50.0337H50.0336H50.0335H50.0334H50.0333H50.0332H50.0331H50.033H50.0329H50.0328H50.0327H50.0326H50.0325H50.0324H50.0323H50.0322H50.0321H50.032H50.0319H50.0318H50.0317H50.0316H50.0314H50.0313H50.0312H50.0311H50.031H50.0309H50.0308H50.0307H50.0306H50.0305H50.0304H50.0303H50.0302H50.0301H50.03H50.0299H50.0298H50.0297H50.0296H50.0295H50.0294H50.0293H50.0292H50.0291H50.029H50.0289H50.0288H50.0287H50.0286H50.0285H50.0284H50.0283H50.0282H50.0281H50.028H50.0279H50.0278H50.0277H50.0276H50.0275H50.0274H50.0273H50.0272H50.0271H50.027H50.0269H50.0268H50.0267H50.0266H50.0265H50.0264H50.0263H50.0262H50.0261H50.026H50.0259H50.0258H50.0257H50.0256H50.0255H50.0254H50.0253H50.0252H50.0251H50.025H50.0249H50.0248H50.0247H50.0246H50.0245H50.0244H50.0243H50.0242H50.0241H50.024H50.0239H50.0238H50.0237H50.0236H50.0235H50.0234H50.0233H50.0232H50.0231H50.023H50.0229H50.0228H50.0227H50.0225H50.0224H50.0223H50.0222H50.0221H50.022H50.0219H50.0218H50.0217H50.0216H50.0215H50.0214H50.0213H50.0212H50.0211H50.021H50.0209H50.0208H50.0207H50.0206H50.0205H50.0204H50.0203H50.0202H50.0201H50.02H50.0199H50.0198H50.0197H50.0196H50.0195H50.0194H50.0193H50.0192H50.0191H50.019H50.0189H50.0188H50.0187H50.0186H50.0185H50.0184H50.0183H50.0182H50.0181H50.018H50.0179H50.0178H50.0177H50.0176H50.0175H50.0174H50.0173H50.0172H50.0171H50.017H50.0169H50.0168H50.0167H50.0166H50.0165H50.0164H50.0163H50.0162H50.0161H50.016H50.0159H50.0158H50.0157H50.0156H50.0155H50.0154H50.0153H50.0152H50.0151H50.0149H50.0148H50.0147H50.0146H50.0145H50.0144H50.0143H50.0142H50.0141H50.014H50.0139H50.0138H50.0137H50.0136H50.0135H50.0134H50.0133H50.0132H50.0131H50.013H50.0129H50.0128H50.0127H50.0126H50.0125H50.0124H50.0123H50.0122H50.0121H50.012H50.0119H50.0118H50.0117H50.0116H50.0115H50.0114H50.0113H50.0112H50.0111H50.011H50.0109H50.0108H50.0107H50.0106H50.0105H50.0104H50.0103H50.0102H50.0101H50.01H50.0099H50.0098H50.0097H50.0096H50.0095H50.0094H50.0093H50.0092H50.0091H50.009H50.0089H50.0088H50.0087H50.0086H50.0085H50.0084H50.0083H50.0082H50.0081H50.008H50.0079H50.0078H50.0077H50.0076H50.0075H50.0074H50.0073H50.0072H50.0071H50.007H50.0069H50.0068H50.0067H50.0066H50.0065H50.0064H50.0063H50.0062H50.0061H50.006H50.0059H50.0058H50.0057H50.0056H50.0055H50.0054H50.0053H50.0052H50.0051H50.005H50.0049H50.0048H50.0047H50.0045H50.0044H50.0043H50.0042H50.0041H50.004H50.0039H50.0038H50.0037H50.0036H50.0035H50.0034H50.0033H50.0032H50.0031H50.003H50.003C46.3776 55.1459 43.4479 52.1757 43.472 48.5502C43.4983 44.938 46.4488 42.0152 50.0564 42.0152H50.0565H50.0566H50.0567H50.0568H50.0569H50.0569H50.057H50.0571H50.0572H50.0573H50.0574H50.0575H50.0575H50.0576H50.0577H50.0578H50.0579H50.058H50.058H50.0581H50.0582H50.0583H50.0584H50.0585H50.0586H50.0586H50.0587H50.0588H50.0589H50.059H50.0591H50.0591H50.0592H50.0593H50.0594H50.0595H50.0596H50.0597H50.0597H50.0598H50.0599H50.06H50.0601H50.0602H50.0603H50.0603H50.0604H50.0605H50.0606H50.0607H50.0608H50.0608H50.0609H50.061H50.0611H50.0612H50.0613H50.0614H50.0614H50.0615H50.0616H50.0617H50.0618H50.0619H50.062H50.062H50.0621H50.0622H50.0623H50.0624H50.0625H50.0626H50.0626H50.0627H50.0628H50.0629H50.063H50.0631H50.0632H50.0632H50.0633H50.0634H50.0635H50.0636H50.0637H50.0638H50.0638H50.0639H50.064H50.0641H50.0642H50.0643H50.0644H50.0644H50.0645H50.0646H50.0647H50.0648H50.0649H50.065H50.0651H50.0651H50.0652H50.0653H50.0654H50.0655H50.0656H50.0657H50.0657H50.0658H50.0659H50.066H50.0661H50.0662H50.0663H50.0663H50.0664H50.0665H50.0666H50.0667H50.0668H50.0669H50.0669H50.067H50.0671H50.0672H50.0673H50.0674H50.0675H50.0676H50.0676H50.0677H50.0678H50.0679H50.068H50.0681H50.0682H50.0682H50.0683H50.0684H50.0685H50.0686H50.0687H50.0688H50.0689H50.0689H50.069H50.0691H50.0692H50.0693H50.0694H50.0695H50.0695H50.0696H50.0697H50.0698H50.0699H50.07H50.0701H50.0702H50.0702H50.0703H50.0704H50.0705H50.0706H50.0707H50.0708H50.0709H50.0709H50.071H50.0711H50.0712H50.0713H50.0714H50.0715H50.0715H50.0716H50.0717H50.0718H50.0719H50.072H50.0721H50.0722H50.0722H50.0723H50.0724H50.0725H50.0726H50.0727H50.0728H50.0729H50.0729H50.073H50.0731H50.0732H50.0733H50.0734H50.0735H50.0735H50.0736H50.0737H50.0738H50.0739H50.074H50.0741H50.0742H50.0742H50.0743H50.0744H50.0745H50.0746H50.0747H50.0748H50.0749H50.0749H50.075H50.0751H50.0752H50.0753H50.0754H50.0755H50.0756H50.0756H50.0757H50.0758H50.0759H50.076H50.0761H50.0762H50.0763H50.0763H50.0764H50.0765H50.0766H50.0767H50.0768H50.0769H50.077H50.077H50.0771H50.0772H50.0773H50.0774H50.0775H50.0776H50.0777H50.0777H50.0778H50.0779H50.078H50.0781H50.0782H50.0783H50.0783H50.0784H50.0785H50.0786H50.0787H50.0788H50.0789H50.079H50.079H50.0791H50.0792H50.0793H50.0794H50.0795H50.0796H50.0797H50.0797H50.0798H50.0799H50.08H50.0801H50.0802H50.0803H50.0804H50.0804H50.0805H50.0806H50.0807H50.0808H50.0809H50.081H50.0811H50.0811H50.0812H50.0813H50.0814H50.0815H50.0816H50.0817H50.0818H50.0818H50.0819H50.082H50.0821H50.0822H50.0823H50.0824H50.0825H50.0825H50.0826H50.0827H50.0828H50.0829H50.083H50.0831H50.0831H50.0832H50.0833H50.0834H50.0835H50.0836H50.0837H50.0838H50.0838H50.0839H50.084H50.0841H50.0842H50.0843H50.0844H50.0845H50.0845H50.0846H50.0847H50.0848H50.0849H50.085H50.0851H50.0852H50.0852H50.0853H50.0854H50.0855H50.0856H50.0857H50.0858H50.0858H50.0859H50.086H50.0861H50.0862H50.0863H50.0864H50.0865H50.0865H50.0866H50.0867H50.0868H50.0869H50.087H50.0871H50.0872H50.0872H50.0873H50.0874H50.0875H50.0876H50.0877H50.0878H50.0878H50.0879H50.088H50.0881H50.0882H50.0883H50.0884H50.0885H50.0885H50.0886H50.0887H50.0888H50.0889H50.089H50.0891H50.0891H50.0892H50.0893H50.0894H50.0895H50.0896H50.0897H50.0898H50.0898H50.0899H50.09H50.0901H50.0902H50.0903H50.0904H50.0904H50.0905H50.0906H50.0907H50.0908H50.0909H50.091H50.091H50.0911H50.0912H50.0913H50.0914H50.0915H50.0916H50.0917H50.0917H50.0918H50.0919H50.092H50.0921H50.0922H50.0923H50.0923H50.0924H50.0925H50.0926H50.0927H50.0928H50.0929H50.0929H50.093H50.0931H50.0932H50.0933H50.0934H50.0935H50.0935H50.0936H50.0937H50.0938H50.0939H50.094H50.0941H50.0941H50.0942H50.0943H50.0944H50.0945H50.0946H50.0947H50.0947H50.0948H50.0949H50.095H50.0951H50.0952H50.0953H50.0953H50.0954H50.0955H50.0956H50.0957H50.0958H50.0959H50.0959H50.096H50.0961H50.0962H50.0963H50.0964H50.0965H50.0965H50.0966H50.0967H50.0968H50.0969H50.097H50.097H50.0971H50.0972H50.0973H50.0974H50.0975H50.0976H50.0976H50.0977H50.0978H50.0979H50.098H50.0981H50.0982H50.0982H50.0983H50.0984H50.0985H50.0986H50.0987H50.0987H50.0988H50.0989H50.099H50.0991H50.0992H50.0993H50.0993H50.0994H50.0995H50.0996H50.0997H50.0998H50.0998C53.7268 42.043 56.6555 45.0169 56.6288 48.6435ZM55.3752 61.0409L54.9041 63.3723L51.6158 57.077C53.0726 56.8116 54.4295 56.1767 55.5778 55.2161L59.4862 60.9003L56.6123 60.2425C56.3403 60.1801 56.0578 60.2309 55.8257 60.3802L55.8253 60.3805C55.5922 60.5313 55.4307 60.769 55.3753 61.0406L55.3752 61.0409ZM44.9922 63.3002L44.5556 60.9633C44.5048 60.691 44.3452 60.4501 44.1151 60.2966C43.8838 60.1419 43.5998 60.0874 43.3288 60.1465C43.3287 60.1465 43.3287 60.1465 43.3287 60.1465L40.4403 60.7639L44.4342 55.1348C45.5388 56.0845 46.8844 56.7578 48.3688 57.052L44.9922 63.3002Z" fill="#2E35B8" stroke="#2E35B8" stroke-width="0.4"/>
</svg>
