<svg width="132" height="132" viewBox="0 0 132 132" fill="none" xmlns="http://www.w3.org/2000/svg">
<path d="M112.437 54.8458V76.6918C112.437 79.8825 110.938 82.8482 108.469 84.5206C106.394 85.9267 103.6 87.7182 100.298 89.585V54.8458H112.437Z" fill="#FF4667"/>
<path d="M99.6794 54.8458V89.7382C90.7805 94.8026 78.2142 100.419 66.286 100.419C49.9378 100.419 32.3908 89.865 24.7216 84.6533C22.2529 82.9744 20.7538 79.9966 20.7538 76.7929V54.8458H99.6794V54.8458Z" fill="#FF4667"/>
<path d="M111.832 54.3903V75.7266C111.832 78.8531 110.333 81.7577 107.865 83.3945C100.196 88.48 82.6503 98.7768 66.3005 98.7768C49.9508 98.7768 32.4051 88.48 24.7361 83.3945C22.2681 81.7577 20.7686 78.8531 20.7686 75.7266V54.3903H111.832ZM114.31 51.9099H111.832H20.769H18.291V54.3903V75.7266C18.291 79.7145 20.1888 83.3542 23.3677 85.4622C27.408 88.1417 33.7949 92.0177 41.2764 95.2679C50.4244 99.2422 58.8435 101.257 66.3005 101.257C73.7576 101.257 82.1767 99.2422 91.3247 95.2679C98.8062 92.0177 105.193 88.1414 109.233 85.4622C112.412 83.3542 114.31 79.7145 114.31 75.7266V54.3903V51.9099V51.9099Z" fill="#FF4667"/>
<path d="M98.5311 94.7988C96.2114 95.0794 94.0748 96.2002 92.5236 97.9495C90.9727 99.6988 90.115 101.956 90.1125 104.295V112.733C90.1125 116.155 91.9357 119.316 94.8962 121.027C97.8561 122.738 101.503 122.738 104.463 121.027C107.423 119.316 109.247 116.155 109.247 112.733V104.295C109.244 101.956 108.386 99.6988 106.836 97.9495C105.285 96.2002 103.148 95.0794 100.828 94.7988" fill="#392C7D"/>
<path d="M106.949 105.421H92.4092V104.398C92.4092 100.379 95.6643 97.121 99.6792 97.121C103.694 97.121 106.949 100.379 106.949 104.398V105.421H106.949Z" fill="white"/>
<path d="M99.6783 57.5176V107.035" stroke="#392C7D" stroke-width="2.5" stroke-miterlimit="10" stroke-linecap="round"/>
<path d="M124.149 51.5612L69.0814 77.8041C67.2269 78.6877 65.073 78.6856 63.2204 77.7979L7.852 51.2704C2.71894 48.811 2.69168 41.5059 7.80616 39.0081L63.1445 11.9833C65.0395 11.0578 67.2563 11.0643 69.1461 12.0009L124.244 39.3107C129.333 41.833 129.276 49.118 124.149 51.5612Z" fill="#392C7D"/>
<path d="M66.1277 12.4364C66.8866 12.4364 67.6451 12.6063 68.343 12.9462L124.745 40.4064C128.48 42.2245 128.439 47.4759 124.676 49.2374L68.2959 75.6292C67.6172 75.9469 66.8835 76.1058 66.15 76.1058C65.4128 76.1058 64.6762 75.9456 63.9948 75.6249L7.31493 48.9508C3.54784 47.1781 3.52802 41.9121 7.28117 40.1116L63.9384 12.9334C64.6295 12.6021 65.3787 12.4364 66.1277 12.4364ZM66.1277 10C64.9987 10 63.8663 10.2573 62.8522 10.7437L6.1949 37.9218C3.59647 39.1684 1.98921 41.7083 2.00005 44.5507C2.0109 47.3931 3.63736 49.9211 6.24508 51.1485L62.9246 77.8223C63.9254 78.2931 65.0405 78.5419 66.1497 78.5419C67.2536 78.5419 68.364 78.2952 69.3608 77.8287L125.741 51.4369C128.345 50.2175 129.977 47.6982 130 44.8616C130.022 42.0254 128.43 39.4814 125.845 38.2227L69.4426 10.7629C68.4176 10.2637 67.2713 10 66.1277 10Z" fill="#392C7D"/>
</svg>
