<svg width="81" height="82" viewBox="0 0 81 82" fill="none" xmlns="http://www.w3.org/2000/svg">
<path d="M0 30.5C0 13.9315 13.4315 0.5 30 0.5H41C63.0914 0.5 81 18.4086 81 40.5V51.5C81 68.0685 67.5685 81.5 51 81.5H30C13.4315 81.5 0 68.0685 0 51.5V30.5Z" fill="#EAFDFF"/>
<path d="M22.3513 23.8287L22.3512 23.8289L22.3603 23.8329L28.3151 26.451C27.1552 28.2454 26.5505 30.2872 26.5505 32.429C26.5505 38.498 31.4813 43.4832 37.6048 43.4832C43.7276 43.4832 48.659 38.5518 48.659 32.429C48.659 30.3396 48.0549 28.2504 46.9427 26.4998L51.8771 24.1778V34.1402L50.2466 37.6114L50.2463 37.6113L50.2419 37.6222C50.1192 37.9291 50.1059 38.2747 50.3208 38.5613C50.5101 38.8137 50.8312 39.0138 51.1725 39.0138H54.3117C54.6151 39.0138 54.971 38.8929 55.1257 38.5401C55.3245 38.2578 55.3089 37.9215 55.1891 37.6222L55.1885 37.6207L53.7669 34.1455V23.1709C53.7669 22.9545 53.7554 22.7183 53.6175 22.4942C53.4799 22.2706 53.2369 22.0898 52.8475 21.923C52.8424 21.9208 52.8372 21.9188 52.832 21.9171C52.8331 21.9175 52.7799 21.895 52.6561 21.8412C52.5406 21.7908 52.3755 21.7185 52.1678 21.6272C51.7526 21.4447 51.1681 21.1869 50.4711 20.8789C49.077 20.2629 47.2331 19.4465 45.3941 18.6318C43.5552 17.8171 41.7212 17.004 40.347 16.3946L38.6873 15.6586L38.2227 15.4524L38.1003 15.3982L38.0689 15.3842L38.0623 15.3813C37.796 15.2496 37.52 15.2496 37.2537 15.3813L22.3629 21.9758C22.0172 22.1161 21.7619 22.5114 21.7619 22.9049C21.7619 23.3029 21.9671 23.6366 22.3513 23.8287ZM46.6096 32.429C46.6096 37.4264 42.549 41.487 37.5516 41.487C32.5541 41.487 28.4935 37.4264 28.4935 32.429C28.4935 30.5601 29.082 28.7871 30.1196 27.2526L37.2002 30.4284C37.3479 30.5009 37.4938 30.5008 37.5941 30.5007C37.5977 30.5007 37.6013 30.5007 37.6048 30.5007C37.6083 30.5007 37.6118 30.5007 37.6155 30.5007C37.7158 30.5008 37.8616 30.5009 38.0093 30.4284L44.9867 27.3042C46.0687 28.8358 46.6096 30.6072 46.6096 32.429ZM52.7926 37.0176H52.7103L52.7546 36.9227L52.7926 37.0176ZM25.2211 22.9049L37.658 17.3774L50.0948 22.9049L37.658 28.4324L25.2211 22.9049Z" fill="#3B97D3" stroke="#3B97D3" stroke-width="0.4" stroke-linecap="round" stroke-linejoin="round"/>
<path d="M37.8724 44.9992C27.3866 44.9992 18.8371 53.5486 18.8371 64.0344C18.8371 64.5705 19.2991 65.0325 19.8352 65.0325H55.9095C56.4456 65.0325 56.9076 64.5705 56.9076 64.0344C56.9076 53.5486 48.3582 44.9992 37.8724 44.9992ZM54.9006 63.0363H20.8973C21.4225 54.0894 28.8456 46.9954 37.9256 46.9954C47.0039 46.9954 54.3755 54.1399 54.9006 63.0363Z" fill="#3B97D3" stroke="#3B97D3" stroke-width="0.4" stroke-linecap="round" stroke-linejoin="round"/>
</svg>
