<svg width="270" height="694" viewBox="0 0 270 694" fill="none" xmlns="http://www.w3.org/2000/svg">
<path d="M-261.545 308.943C-255.148 237.672 -215.284 161.924 -152.481 124.237C-89.6779 86.5499 -6.22485 97.7591 23.2263 156.623C37.1538 184.456 38.9529 219.855 57.1021 244.48C91.3503 290.916 167.628 280.473 209.612 319.17C250.057 356.453 245.103 432.085 210.018 486.326C174.933 540.566 117.144 575.677 59.6378 596.56C-24.8524 627.24 -123.517 628.413 -176.793 567.106C-221.675 515.44 -261.974 384.053 -261.545 308.943Z" fill="#392C7D" fill-opacity="0.06"/>
<path d="M23.2317 245.261L23.232 245.261C37.4815 269.479 62.8476 280.738 88.7723 291.025C90.7772 291.821 92.7853 292.611 94.7923 293.4C118.881 302.874 142.817 312.288 159.158 330.928C193.129 369.679 182.521 440.809 145.665 489.165C108.817 537.511 52.4917 565.76 -2.63201 580.494C-83.6398 602.146 -174.918 594.177 -218.979 531.194C-237.576 504.6 -253.546 459.007 -264.031 410.976C-274.506 362.988 -279.455 312.808 -276.161 277.068C-264.328 209.809 -221.205 141.454 -160.21 111.36C-129.749 96.3308 -95.4988 93.3368 -66.0761 101.431C-36.655 109.524 -12.177 128.667 -1.08859 157.767C3.37531 169.48 5.72066 182.279 8.08739 195.194C8.51383 197.521 8.94096 199.852 9.38131 202.181C12.2523 217.365 15.6799 232.416 23.2317 245.261Z" stroke="#392C7D" stroke-opacity="0.11" stroke-width="3"/>
</svg>
