<svg width="341" height="172" viewBox="0 0 341 172" fill="none" xmlns="http://www.w3.org/2000/svg">
<path d="M41.8919 -213.982C48.2887 -285.253 88.1533 -361.001 150.956 -398.688C213.759 -436.375 297.212 -425.166 326.663 -366.302C340.591 -338.469 342.39 -303.07 360.539 -278.444C394.787 -232.009 471.065 -242.452 513.049 -203.755C553.494 -166.472 548.54 -90.8399 513.455 -36.5992C478.37 17.6415 420.581 52.7521 363.075 73.6348C278.585 104.315 179.92 105.488 126.644 44.1815C81.7623 -7.48523 41.4633 -138.872 41.8919 -213.982Z" fill="#392C7D" fill-opacity="0.06"/>
<path d="M326.669 -277.664L326.669 -277.663C340.919 -253.445 366.285 -242.187 392.209 -231.899C394.214 -231.104 396.222 -230.314 398.229 -229.525C422.318 -220.051 446.254 -210.637 462.595 -191.997C496.566 -153.246 485.958 -82.1162 449.102 -33.7598C412.254 14.5858 355.929 42.8349 300.805 57.5694C219.797 79.2214 128.519 71.2525 84.4575 8.26893C65.8608 -18.3247 49.8914 -63.9173 39.4064 -111.948C28.9309 -159.937 23.9823 -210.117 27.2762 -245.856C39.1091 -313.116 82.2321 -381.471 143.227 -411.565C173.688 -426.594 207.938 -429.588 237.361 -421.494C266.782 -413.401 291.26 -394.258 302.348 -365.158C306.812 -353.444 309.158 -340.646 311.524 -327.731C311.951 -325.404 312.378 -323.073 312.818 -320.744C315.689 -305.559 319.117 -290.509 326.669 -277.664Z" stroke="#392C7D" stroke-opacity="0.11" stroke-width="3"/>
</svg>
