<svg width="592" height="137" viewBox="0 0 592 137" fill="none" xmlns="http://www.w3.org/2000/svg">
<path d="M200.351 111.143C198.15 111.143 196.499 110.762 195.398 110C194.297 109.323 193.578 108.391 193.239 107.206C192.9 106.021 192.731 104.751 192.731 103.396V29.99C192.731 28.6353 192.858 27.4077 193.112 26.307C193.451 25.1217 194.17 24.1903 195.271 23.513C196.372 22.751 198.107 22.37 200.478 22.37L224.354 22.497C230.535 22.497 236.207 23.5553 241.372 25.672C246.621 27.7887 251.151 30.7943 254.961 34.689C258.771 38.5837 261.692 43.2403 263.724 48.659C265.841 53.993 266.899 59.8773 266.899 66.312C266.899 72.916 265.841 78.9697 263.724 84.473C261.607 89.9763 258.644 94.7177 254.834 98.697C251.024 102.676 246.494 105.767 241.245 107.968C236.08 110.085 230.323 111.143 223.973 111.143H200.351ZM208.098 95.776H224.354C229.773 95.776 234.514 94.5907 238.578 92.22C242.642 89.7647 245.775 86.378 247.976 82.06C250.262 77.742 251.405 72.7043 251.405 66.947C251.405 61.105 250.262 56.025 247.976 51.707C245.775 47.3043 242.6 43.9177 238.451 41.547C234.387 39.0917 229.646 37.864 224.227 37.864H208.098V95.776ZM280.067 111.27C277.781 111.27 276.088 110.889 274.987 110.127C273.971 109.45 273.336 108.518 273.082 107.333C272.828 106.148 272.701 104.835 272.701 103.396V56.279C272.701 54.755 272.828 53.4427 273.082 52.342C273.336 51.1567 273.971 50.2677 274.987 49.675C276.088 48.9977 277.824 48.659 280.194 48.659C282.48 48.659 284.131 48.9553 285.147 49.548C286.248 50.1407 286.925 50.9027 287.179 51.834C287.518 52.6807 287.687 53.5273 287.687 54.374L286.671 56.66C287.095 55.9827 287.687 55.1783 288.449 54.247C289.211 53.231 290.227 52.2573 291.497 51.326C292.767 50.31 294.291 49.5057 296.069 48.913C297.847 48.2357 299.964 47.897 302.419 47.897C303.435 47.897 304.494 48.024 305.594 48.278C306.78 48.4473 307.923 48.7437 309.023 49.167C310.209 49.5057 311.267 49.9713 312.198 50.564C313.13 51.1567 313.849 51.8763 314.357 52.723C314.865 53.485 315.119 54.374 315.119 55.39C315.119 58.0993 314.442 60.3853 313.087 62.248C311.733 64.1107 310.124 65.042 308.261 65.042C306.991 65.042 306.06 64.915 305.467 64.661C304.875 64.407 304.367 64.1107 303.943 63.772C303.605 63.4333 303.054 63.137 302.292 62.883C301.615 62.629 300.514 62.502 298.99 62.502C297.72 62.502 296.408 62.7137 295.053 63.137C293.783 63.5603 292.598 64.1953 291.497 65.042C290.397 65.8887 289.508 66.9893 288.83 68.344C288.153 69.614 287.814 71.0957 287.814 72.789V103.65C287.814 105.089 287.687 106.402 287.433 107.587C287.179 108.688 286.502 109.577 285.401 110.254C284.301 110.931 282.523 111.27 280.067 111.27ZM345.316 112.032C339.812 112.032 334.986 111.143 330.838 109.365C326.774 107.587 323.345 105.174 320.551 102.126C317.841 98.9933 315.767 95.522 314.328 91.712C312.973 87.8173 312.296 83.7957 312.296 79.647C312.296 73.551 313.693 68.1323 316.487 63.391C319.281 58.6497 323.133 54.9243 328.044 52.215C333.039 49.5057 338.754 48.151 345.189 48.151C349.761 48.151 353.782 48.8707 357.254 50.31C360.725 51.7493 363.604 53.6543 365.89 56.025C368.26 58.311 370.038 60.851 371.224 63.645C372.494 66.439 373.129 69.1483 373.129 71.773C373.129 76.2603 372.028 79.52 369.827 81.552C367.71 83.584 365.043 84.6 361.826 84.6H328.298C328.382 87.4787 329.271 89.9763 330.965 92.093C332.743 94.2097 334.944 95.8607 337.569 97.046C340.278 98.1467 343.03 98.697 345.824 98.697C347.94 98.697 349.803 98.57 351.412 98.316C353.105 98.062 354.544 97.7657 355.73 97.427C356.915 97.0037 357.931 96.5803 358.778 96.157C359.709 95.7337 360.556 95.3527 361.318 95.014C362.08 94.6753 362.799 94.4637 363.477 94.379C364.408 94.2943 365.339 94.506 366.271 95.014C367.202 95.522 367.964 96.411 368.557 97.681C369.065 98.5277 369.403 99.332 369.573 100.094C369.827 100.771 369.954 101.449 369.954 102.126C369.954 103.819 368.938 105.428 366.906 106.952C364.874 108.391 361.995 109.577 358.27 110.508C354.629 111.524 350.311 112.032 345.316 112.032ZM328.298 75.583H354.333C355.772 75.583 356.873 75.3713 357.635 74.948C358.397 74.44 358.778 73.424 358.778 71.9C358.778 69.9527 358.185 68.217 357 66.693C355.814 65.0843 354.206 63.8567 352.174 63.01C350.142 62.0787 347.771 61.613 345.062 61.613C341.929 61.613 339.093 62.248 336.553 63.518C334.013 64.7033 331.981 66.3543 330.457 68.471C329.017 70.5877 328.298 72.9583 328.298 75.583ZM429.27 111.016C426.815 111.016 424.995 110.55 423.809 109.619C422.624 108.688 422.031 107.418 422.031 105.809L422.92 101.618C422.243 102.719 421.1 104.031 419.491 105.555C417.883 106.994 415.766 108.307 413.141 109.492C410.517 110.593 407.342 111.143 403.616 111.143C399.637 111.143 395.869 110.339 392.313 108.73C388.842 107.037 385.752 104.751 383.042 101.872C380.418 98.9087 378.301 95.5643 376.692 91.839C375.168 88.029 374.406 83.965 374.406 79.647C374.406 75.4983 375.168 71.6037 376.692 67.963C378.301 64.2377 380.46 60.9357 383.169 58.057C385.879 55.1783 388.969 52.9347 392.44 51.326C395.996 49.6327 399.722 48.786 403.616 48.786C407.088 48.786 410.009 49.2517 412.379 50.183C414.835 51.1143 416.909 52.2997 418.602 53.739C420.296 55.0937 421.693 56.533 422.793 58.057L422.031 54.374C422.031 52.5113 422.624 51.1143 423.809 50.183C424.995 49.167 426.857 48.659 429.397 48.659C431.768 48.659 433.461 49.04 434.477 49.802C435.493 50.4793 436.128 51.453 436.382 52.723C436.636 53.9083 436.763 55.263 436.763 56.787V103.269C436.763 104.708 436.636 106.021 436.382 107.206C436.128 108.391 435.451 109.323 434.35 110C433.334 110.677 431.641 111.016 429.27 111.016ZM405.902 96.284C408.781 96.284 411.363 95.5643 413.649 94.125C415.935 92.6857 417.756 90.7383 419.11 88.283C420.55 85.743 421.269 82.949 421.269 79.901C421.269 76.599 420.55 73.7203 419.11 71.265C417.671 68.8097 415.766 66.9047 413.395 65.55C411.109 64.1107 408.527 63.391 405.648 63.391C402.516 63.391 399.722 64.153 397.266 65.677C394.811 67.1163 392.864 69.106 391.424 71.646C390.07 74.1013 389.392 76.8953 389.392 80.028C389.392 83.076 390.112 85.8277 391.551 88.283C392.991 90.7383 394.938 92.6857 397.393 94.125C399.933 95.5643 402.77 96.284 405.902 96.284ZM450.522 111.143C448.236 111.143 446.543 110.804 445.442 110.127C444.426 109.45 443.791 108.518 443.537 107.333C443.283 106.148 443.156 104.878 443.156 103.523V56.025C443.156 54.6703 443.283 53.4427 443.537 52.342C443.791 51.2413 444.468 50.3523 445.569 49.675C446.67 48.9977 448.405 48.659 450.776 48.659C453.231 48.659 455.009 49.167 456.11 50.183C457.295 51.199 457.888 52.8077 457.888 55.009L456.745 58.565C457.168 57.6337 457.888 56.6177 458.904 55.517C459.92 54.4163 461.148 53.3157 462.587 52.215C464.111 51.1143 465.804 50.2253 467.667 49.548C469.53 48.8707 471.477 48.532 473.509 48.532C476.303 48.532 478.843 48.9977 481.129 49.929C483.5 50.8603 485.574 52.215 487.352 53.993C489.215 55.771 490.823 57.93 492.178 60.47C493.617 58.2687 495.226 56.279 497.004 54.501C498.782 52.6383 500.856 51.199 503.227 50.183C505.598 49.0823 508.265 48.532 511.228 48.532C516.139 48.532 520.245 49.7597 523.547 52.215C526.934 54.6703 529.474 58.184 531.167 62.756C532.945 67.2433 533.834 72.6197 533.834 78.885V103.523C533.834 104.962 533.665 106.275 533.326 107.46C533.072 108.561 532.395 109.45 531.294 110.127C530.278 110.804 528.585 111.143 526.214 111.143C523.843 111.143 522.108 110.762 521.007 110C519.906 109.323 519.229 108.434 518.975 107.333C518.721 106.148 518.594 104.835 518.594 103.396V78.758C518.594 75.6253 518.213 72.916 517.451 70.63C516.689 68.344 515.546 66.566 514.022 65.296C512.583 64.026 510.678 63.391 508.307 63.391C505.767 63.391 503.566 64.026 501.703 65.296C499.925 66.4813 498.528 68.217 497.512 70.503C496.496 72.789 495.988 75.583 495.988 78.885V103.65C495.988 105.089 495.776 106.444 495.353 107.714C494.93 108.899 494.083 109.788 492.813 110.381C491.628 111.058 489.892 111.312 487.606 111.143C485.489 111.058 483.923 110.635 482.907 109.873C481.976 109.111 481.383 108.18 481.129 107.079C480.96 105.894 480.875 104.666 480.875 103.396V78.758C480.875 75.6253 480.494 72.916 479.732 70.63C478.97 68.2593 477.827 66.4813 476.303 65.296C474.864 64.026 472.916 63.391 470.461 63.391C467.836 63.391 465.593 64.0683 463.73 65.423C461.952 66.7777 460.597 68.598 459.666 70.884C458.735 73.17 458.269 75.7947 458.269 78.758V103.65C458.269 105.005 458.1 106.275 457.761 107.46C457.507 108.645 456.83 109.534 455.729 110.127C454.713 110.804 452.977 111.143 450.522 111.143ZM561.959 112.032C559.757 112.032 557.429 111.778 554.974 111.27C552.518 110.847 550.148 110.212 547.862 109.365C545.576 108.434 543.586 107.375 541.893 106.19C540.284 104.92 539.268 103.523 538.845 101.999C538.506 101.152 538.379 100.348 538.464 99.586C538.548 98.7393 538.802 97.8927 539.226 97.046C539.649 96.1147 540.284 95.1833 541.131 94.252C541.893 93.3207 542.655 92.8127 543.417 92.728C544.263 92.5587 545.322 92.8127 546.592 93.49C547.692 93.9133 548.878 94.4637 550.148 95.141C551.502 95.8183 552.857 96.4957 554.212 97.173C555.651 97.8503 557.09 98.4007 558.53 98.824C560.054 99.2473 561.535 99.459 562.975 99.459C566.107 99.459 568.605 98.951 570.468 97.935C572.33 96.8343 573.262 95.3103 573.262 93.363C573.262 92.2623 572.965 91.2887 572.373 90.442C571.78 89.5953 570.976 88.918 569.96 88.41C569.028 87.8173 567.885 87.3093 566.531 86.886C565.261 86.378 563.864 85.9547 562.34 85.616C560.9 85.1927 559.376 84.727 557.768 84.219C555.651 83.6263 553.534 82.9067 551.418 82.06C549.301 81.2133 547.396 80.1127 545.703 78.758C544.094 77.4033 542.782 75.71 541.766 73.678C540.75 71.646 540.242 69.106 540.242 66.058C540.242 62.248 541.131 59.0307 542.909 56.406C544.771 53.6967 547.438 51.6223 550.91 50.183C554.381 48.7437 558.572 48.024 563.483 48.024C565.176 48.024 566.785 48.151 568.309 48.405C569.917 48.659 571.441 49.04 572.881 49.548C574.405 49.9713 575.844 50.5217 577.199 51.199C578.638 51.8763 579.993 52.6383 581.263 53.485C583.379 54.6703 584.48 56.0673 584.565 57.676C584.649 59.2 584.057 60.851 582.787 62.629C581.855 63.8143 580.924 64.661 579.993 65.169C579.061 65.5923 578.088 65.5923 577.072 65.169C575.717 64.4917 574.235 63.772 572.627 63.01C571.103 62.1633 569.494 61.4437 567.801 60.851C566.192 60.2583 564.499 59.962 562.721 59.962C561.027 59.962 559.503 60.216 558.149 60.724C556.794 61.232 555.778 61.9517 555.101 62.883C554.423 63.8143 554.085 64.915 554.085 66.185C554.085 67.3703 554.423 68.344 555.101 69.106C555.778 69.868 556.667 70.503 557.768 71.011C558.868 71.519 560.181 71.9847 561.705 72.408C563.229 72.7467 564.837 73.0853 566.531 73.424C568.901 73.932 571.314 74.567 573.77 75.329C576.225 76.091 578.469 77.1493 580.501 78.504C582.617 79.8587 584.311 81.679 585.581 83.965C586.851 86.1663 587.486 89.045 587.486 92.601C587.486 98.7817 585.2 103.565 580.628 106.952C576.14 110.339 569.917 112.032 561.959 112.032Z" fill="#392C7D"/>
<path d="M506.209 39.36C505.249 39.36 504.555 39.2267 504.129 38.96C503.702 38.6667 503.435 38.28 503.329 37.8C503.222 37.32 503.169 36.8267 503.169 36.32V14.44C503.169 13.9067 503.209 13.4133 503.289 12.96C503.395 12.5067 503.662 12.1333 504.089 11.84C504.515 11.5467 505.222 11.4 506.209 11.4C507.222 11.4 507.929 11.5467 508.329 11.84C508.755 12.1333 509.009 12.5067 509.089 12.96C509.195 13.4133 509.249 13.9067 509.249 14.44V34.08H520.209C520.662 34.08 521.089 34.12 521.489 34.2C521.889 34.28 522.209 34.5067 522.449 34.88C522.715 35.2533 522.849 35.8667 522.849 36.72C522.849 37.5467 522.715 38.16 522.449 38.56C522.182 38.9333 521.849 39.16 521.449 39.24C521.075 39.32 520.662 39.36 520.209 39.36H506.209ZM532.266 39.36C531.306 39.36 530.613 39.2133 530.186 38.92C529.786 38.6267 529.533 38.2533 529.426 37.8C529.319 37.32 529.266 36.8133 529.266 36.28V14.4C529.266 13.8933 529.319 13.4267 529.426 13C529.533 12.5467 529.799 12.1733 530.226 11.88C530.653 11.5867 531.359 11.44 532.346 11.44C533.013 11.44 533.519 11.48 533.866 11.56C534.213 11.64 534.466 11.76 534.626 11.92C534.786 12.0533 534.959 12.2133 535.146 12.4L544.146 24.56H543.546L552.586 12.4C552.799 12.1333 553.013 11.9333 553.226 11.8C553.439 11.6667 553.706 11.5733 554.026 11.52C554.373 11.4667 554.853 11.44 555.466 11.44C556.426 11.44 557.119 11.5867 557.546 11.88C557.973 12.1733 558.239 12.56 558.346 13.04C558.453 13.4933 558.506 13.9733 558.506 14.48V36.36C558.506 36.8667 558.453 37.3467 558.346 37.8C558.239 38.2533 557.973 38.6267 557.546 38.92C557.119 39.2133 556.413 39.36 555.426 39.36C554.466 39.36 553.773 39.2133 553.346 38.92C552.919 38.6267 552.653 38.24 552.546 37.76C552.439 37.28 552.386 36.7867 552.386 36.28V22L546.426 30.44C546.319 30.5733 546.173 30.76 545.986 31C545.799 31.2133 545.533 31.4 545.186 31.56C544.866 31.72 544.426 31.8 543.866 31.8C543.279 31.8 542.813 31.72 542.466 31.56C542.146 31.4 541.893 31.2133 541.706 31C541.519 30.7867 541.359 30.6 541.226 30.44L535.306 22.04V36.36C535.306 36.8667 535.253 37.3467 535.146 37.8C535.039 38.2533 534.773 38.6267 534.346 38.92C533.946 39.2133 533.253 39.36 532.266 39.36ZM575.004 39.76C573.591 39.76 572.351 39.5867 571.284 39.24C570.244 38.8933 569.351 38.48 568.604 38C567.884 37.4933 567.311 37 566.884 36.52C566.457 36.04 566.164 35.68 566.004 35.44C565.551 34.8533 565.271 34.3467 565.164 33.92C565.057 33.4667 565.111 33.0133 565.324 32.56C565.564 32.1067 565.964 31.6133 566.524 31.08C567.084 30.6 567.604 30.3467 568.084 30.32C568.591 30.2667 569.084 30.3867 569.564 30.68C570.044 30.9733 570.511 31.3867 570.964 31.92C571.604 32.6933 572.231 33.24 572.844 33.56C573.484 33.8533 574.151 34 574.844 34C575.724 34 576.471 33.8933 577.084 33.68C577.697 33.4667 578.164 33.1333 578.484 32.68C578.804 32.2 578.964 31.6 578.964 30.88C578.964 30.2933 578.737 29.8267 578.284 29.48C577.857 29.1067 577.271 28.7867 576.524 28.52C575.804 28.2533 574.991 28 574.084 27.76C573.204 27.4933 572.324 27.1867 571.444 26.84C570.831 26.6267 570.244 26.36 569.684 26.04C569.124 25.72 568.591 25.36 568.084 24.96C567.577 24.56 567.137 24.08 566.764 23.52C566.417 22.96 566.137 22.32 565.924 21.6C565.737 20.88 565.644 20.0533 565.644 19.12C565.644 17.5467 566.031 16.1467 566.804 14.92C567.577 13.6933 568.644 12.7333 570.004 12.04C571.391 11.32 572.977 10.96 574.764 10.96C575.964 10.96 577.004 11.0667 577.884 11.28C578.791 11.4933 579.551 11.7467 580.164 12.04C580.777 12.3333 581.257 12.6267 581.604 12.92C581.977 13.1867 582.231 13.4 582.364 13.56C583.111 14.2533 583.524 14.8533 583.604 15.36C583.684 15.84 583.404 16.52 582.764 17.4C582.097 18.3333 581.431 18.8533 580.764 18.96C580.124 19.0667 579.391 18.84 578.564 18.28C578.244 17.9867 577.924 17.72 577.604 17.48C577.284 17.24 576.897 17.0533 576.444 16.92C576.017 16.76 575.444 16.68 574.724 16.68C574.297 16.68 573.897 16.7467 573.524 16.88C573.151 16.9867 572.831 17.1467 572.564 17.36C572.297 17.5733 572.084 17.84 571.924 18.16C571.764 18.4533 571.684 18.7867 571.684 19.16C571.684 19.7733 571.884 20.2667 572.284 20.64C572.711 21.0133 573.257 21.32 573.924 21.56C574.617 21.7733 575.377 21.9867 576.204 22.2C577.057 22.3867 577.924 22.6133 578.804 22.88C579.604 23.1467 580.377 23.48 581.124 23.88C581.871 24.2533 582.537 24.7333 583.124 25.32C583.711 25.9067 584.177 26.64 584.524 27.52C584.897 28.4 585.084 29.48 585.084 30.76C585.084 32.36 584.777 33.7333 584.164 34.88C583.551 36.0267 582.737 36.96 581.724 37.68C580.711 38.4 579.617 38.92 578.444 39.24C577.271 39.5867 576.124 39.76 575.004 39.76Z" fill="#FF4667"/>
<path d="M133.733 55.3054V81.7596C133.733 85.6234 131.917 89.2146 128.928 91.2398C126.415 92.9425 123.032 95.1119 119.033 97.3725V55.3054H133.733Z" fill="#FF4667"/>
<path d="M118.283 55.3054V97.558C107.507 103.691 92.2903 110.491 77.846 110.491C58.0493 110.491 36.8011 97.7115 27.5141 91.4005C24.5247 89.3674 22.7094 85.7615 22.7094 81.882V55.3054H118.283V55.3054Z" fill="#FF4667"/>
<path d="M133 54.7539V80.5908C133 84.3769 131.185 87.8941 128.196 89.8762C118.91 96.0344 97.6626 108.503 77.864 108.503C58.0655 108.503 36.8187 96.0344 27.5321 89.8762C24.5435 87.8941 22.7277 84.3769 22.7277 80.5908V54.7539H133ZM136.001 51.7502H133H22.7281H19.7275V54.7539V80.5908C19.7275 85.4199 22.0256 89.8274 25.875 92.3801C30.7676 95.6247 38.5017 100.318 47.5614 104.254C58.6389 109.067 68.834 111.507 77.864 111.507C86.894 111.507 97.0891 109.067 108.167 104.254C117.226 100.318 124.96 95.6244 129.853 92.3801C133.702 89.8274 136.001 85.4199 136.001 80.5908V54.7539V51.7502V51.7502Z" fill="#FF4667"/>
<path d="M116.893 103.686C114.084 104.026 111.497 105.383 109.618 107.501C107.74 109.62 106.702 112.353 106.699 115.185V125.404C106.699 129.546 108.906 133.375 112.491 135.446C116.076 137.518 120.492 137.518 124.076 135.446C127.661 133.375 129.869 129.546 129.869 125.404V115.185C129.866 112.353 128.827 109.62 126.949 107.501C125.071 105.383 122.483 104.026 119.674 103.686" fill="#392C7D"/>
<path d="M127.087 116.549H109.48V115.31C109.48 110.443 113.422 106.498 118.283 106.498C123.145 106.498 127.087 110.444 127.087 115.31V116.549H127.087Z" fill="white"/>
<path d="M118.283 58.5409V118.503" stroke="#392C7D" stroke-width="3" stroke-miterlimit="10" stroke-linecap="round"/>
<path d="M147.915 51.3281L81.2315 83.1066C78.9859 84.1767 76.3776 84.174 74.1342 83.0991L7.08657 50.976C0.870756 47.9979 0.83775 39.1518 7.03106 36.1271L74.0423 3.40173C76.3371 2.28099 79.0215 2.28888 81.3099 3.42313L148.03 36.4935C154.192 39.5479 154.124 48.3696 147.915 51.3281Z" fill="#392C7D"/>
<path d="M77.6546 3.95034C78.5736 3.95034 79.4921 4.15612 80.3372 4.5677L148.637 37.8202C153.159 40.0219 153.109 46.381 148.553 48.5141L80.2802 80.4729C79.4584 80.8575 78.5698 81.05 77.6816 81.05C76.7889 81.05 75.897 80.856 75.0718 80.4677L6.43605 48.167C1.87434 46.0203 1.85033 39.6435 6.39517 37.4632L75.0036 4.55221C75.8404 4.15096 76.7477 3.95034 77.6546 3.95034ZM77.6546 1C76.2875 1 74.9162 1.31163 73.6882 1.90059L5.07977 34.8116C1.93322 36.3211 -0.0130618 39.3968 6.59941e-05 42.8387C0.0131938 46.2807 1.98274 49.342 5.14053 50.8282L73.7759 83.1285C74.9878 83.6987 76.3381 84 77.6813 84C79.018 84 80.3627 83.7013 81.5697 83.1363L149.842 51.1775C152.996 49.7009 154.973 46.6502 155 43.2153C155.027 39.7807 153.099 36.7002 149.968 35.176L81.6687 1.92382C80.4276 1.31937 79.0394 1 77.6546 1Z" fill="#392C7D"/>
</svg>
