<svg width="81" height="81" viewBox="0 0 81 81" fill="none" xmlns="http://www.w3.org/2000/svg">
<path d="M0 30C0 13.4315 13.4315 0 30 0H41C63.0914 0 81 17.9086 81 40V51C81 67.5685 67.5685 81 51 81H30C13.4315 81 0 67.5685 0 51V30Z" fill="#FFF0EE"/>
<path d="M30.1468 23.5405C30.1179 23.5143 30.087 23.4906 30.0539 23.4686C30.0482 23.4648 30.0427 23.4609 30.0372 23.457C30.0274 23.4501 30.0176 23.4431 30.0071 23.4371C29.9682 23.415 29.9267 23.3977 29.8837 23.3819L30.17 23.5584C30.166 23.5545 30.1615 23.5513 30.1569 23.5481C30.1534 23.5457 30.15 23.5432 30.1468 23.5405ZM30.1468 23.5405L30.2814 23.3926C30.2789 23.3903 30.2765 23.3881 30.274 23.386C30.274 23.3859 30.2739 23.3859 30.2738 23.3858L30.2719 23.3844L30.2706 23.3836C30.2699 23.3831 30.2699 23.383 30.2701 23.3832L30.2701 23.3832C30.2705 23.3835 30.2732 23.3855 30.277 23.3887L30.1468 23.5405ZM38.9451 31.9117L30.3114 23.417C30.3111 23.4167 30.3108 23.4164 30.3105 23.4161L30.3102 23.4158L38.9451 31.9117ZM38.9451 31.9117L53.3427 17.5146C53.7287 17.1287 54.3538 17.1287 54.7398 17.5146L62.9109 25.6858C63.2969 26.0718 63.2967 26.6967 62.9117 27.0831L62.9114 27.0833L48.5996 41.3956L58.764 51.1789L58.7641 51.179C58.8788 51.2895 58.9591 51.4237 59.0083 51.5661C61.4614 54.1624 61.4223 58.2676 58.8803 60.8096L38.9451 31.9117ZM20.6794 32.9071L20.6791 32.9067C20.6758 32.9027 20.6738 32.9003 20.6706 32.8965C20.668 32.8935 20.6647 32.8897 20.6595 32.8834C20.6504 32.8726 20.6377 32.8569 20.625 32.8377C20.6248 32.8375 20.6247 32.8373 20.6245 32.837L20.7916 32.7271L20.6794 32.9071ZM20.6794 32.9071C20.6833 32.912 20.6857 32.9153 20.6899 32.921C20.6928 32.925 20.6966 32.9303 20.7024 32.938C20.7133 32.9527 20.7301 32.9747 20.7525 32.9965C20.7526 32.9966 20.7527 32.9967 20.7528 32.9968L29.3759 41.481M20.6794 32.9071L29.3759 41.481M29.3759 41.481L16.941 53.9163C16.5551 54.3023 16.5551 54.9274 16.941 55.3134L25.1127 63.4856C25.2979 63.6708 25.5495 63.7748 25.8115 63.7748C26.0737 63.7748 26.3245 63.6706 26.51 63.4858L26.5102 63.4856L39.078 50.9178L49.2179 60.7723L49.2185 60.7728C49.3697 60.9185 49.5522 60.9942 49.7328 61.0247C50.9552 62.1374 52.523 62.753 54.1886 62.753C55.9604 62.753 57.6277 62.0628 58.8802 60.8097L29.3759 41.481ZM49.9112 23.7407L53.2982 27.1276C53.6843 27.5131 53.6843 28.1395 53.2982 28.5249M49.9112 23.7407L48.8982 31.5271L45.5113 28.1401L48.5137 25.1377L51.9008 28.5248C52.0938 28.7178 52.3471 28.814 52.5995 28.814C52.8519 28.814 53.1052 28.7179 53.2982 28.5249M49.9112 23.7407L54.042 19.6099L60.8157 26.3845L47.183 40.0177L40.3534 33.2975L44.1137 29.5372L47.5008 32.9242C47.6938 33.1173 47.9471 33.2134 48.1996 33.2134C48.452 33.2134 48.7053 33.1173 48.8983 32.9242C49.2843 32.5388 49.2843 31.9126 48.8983 31.5272L49.9112 23.7407ZM53.2982 28.5249L53.1569 28.3834M53.2982 28.5249C53.2982 28.5249 53.2983 28.5248 53.2983 28.5248L53.1569 28.3834M53.1569 28.3834C53.4647 28.076 53.4647 27.5765 53.1569 27.2692V28.3834ZM20.502 32.5866L20.5021 32.5869L16.7876 20.7007L20.502 32.5866ZM25.2523 27.2585L25.2523 27.2586C24.9304 27.3533 24.678 27.6049 24.5832 27.9277C24.5832 27.9277 24.5832 27.9277 24.5832 27.9277L23.8071 30.5678L22.0985 31.0704L19.2363 21.9117L28.3955 24.7738L27.8929 26.4819L25.2523 27.2585ZM31.4193 40.7191L23.3355 32.7658L24.8819 32.3112L24.882 32.3112C25.2039 32.2164 25.4562 31.9648 25.5511 31.642L26.3277 29.002L28.9683 28.2254L28.9683 28.2254C29.2902 28.1306 29.5425 27.879 29.6374 27.5562C29.6374 27.5562 29.6374 27.5562 29.6374 27.5562L30.1011 25.9806L46.487 42.1025L46.4886 42.104L56.6688 51.9036L49.8959 58.6759L31.4202 40.72L31.4193 40.7191ZM25.811 61.3898L19.0363 54.6146L21.7225 51.9284L25.1095 55.3155C25.3026 55.5085 25.5559 55.6047 25.8083 55.6047C26.0607 55.6047 26.3141 55.5085 26.5071 55.3155C26.893 54.9295 26.893 54.3044 26.5071 53.9184L23.12 50.5314L25.7285 47.9229L29.1155 51.31C29.3086 51.503 29.5619 51.5992 29.8143 51.5992C30.0667 51.5992 30.32 51.503 30.5131 51.31C30.899 50.9241 30.899 50.2989 30.5131 49.913L27.126 46.5259L30.7897 42.8622L37.6612 49.5406L25.811 61.3898ZM57.4817 59.4121C55.8456 61.0472 53.287 61.2082 51.4675 59.8978L57.9678 53.3975C59.2783 55.2176 59.1172 57.777 57.4817 59.4121Z" fill="#F66962" stroke="#F66962" stroke-width="0.4"/>
</svg>
