<svg width="141" height="154" viewBox="0 0 141 154" fill="none" xmlns="http://www.w3.org/2000/svg">
<path d="M4.54839 2.26471C4.54839 3.51547 3.5302 4.52941 2.27419 4.52941C1.01819 4.52941 0 3.51547 0 2.26471C0 1.01394 1.01819 0 2.27419 0C3.5302 0 4.54839 1.01394 4.54839 2.26471Z" fill="white"/>
<path d="M18.1935 2.26471C18.1935 3.51547 17.1754 4.52941 15.9194 4.52941C14.6634 4.52941 13.6452 3.51547 13.6452 2.26471C13.6452 1.01394 14.6634 0 15.9194 0C17.1754 0 18.1935 1.01394 18.1935 2.26471Z" fill="white"/>
<path d="M31.8387 2.26471C31.8387 3.51547 30.8205 4.52941 29.5645 4.52941C28.3085 4.52941 27.2903 3.51547 27.2903 2.26471C27.2903 1.01394 28.3085 0 29.5645 0C30.8205 0 31.8387 1.01394 31.8387 2.26471Z" fill="white"/>
<path d="M45.4839 2.26471C45.4839 3.51547 44.4657 4.52941 43.2097 4.52941C41.9537 4.52941 40.9355 3.51547 40.9355 2.26471C40.9355 1.01394 41.9537 0 43.2097 0C44.4657 0 45.4839 1.01394 45.4839 2.26471Z" fill="white"/>
<path d="M59.129 2.26471C59.129 3.51547 58.1108 4.52941 56.8548 4.52941C55.5988 4.52941 54.5806 3.51547 54.5806 2.26471C54.5806 1.01394 55.5988 0 56.8548 0C58.1108 0 59.129 1.01394 59.129 2.26471Z" fill="white"/>
<path d="M72.7742 2.26471C72.7742 3.51547 71.756 4.52941 70.5 4.52941C69.244 4.52941 68.2258 3.51547 68.2258 2.26471C68.2258 1.01394 69.244 0 70.5 0C71.756 0 72.7742 1.01394 72.7742 2.26471Z" fill="white"/>
<path d="M86.4194 2.26471C86.4194 3.51547 85.4012 4.52941 84.1452 4.52941C82.8892 4.52941 81.871 3.51547 81.871 2.26471C81.871 1.01394 82.8892 0 84.1452 0C85.4012 0 86.4194 1.01394 86.4194 2.26471Z" fill="white"/>
<path d="M100.065 2.26471C100.065 3.51547 99.0463 4.52941 97.7903 4.52941C96.5343 4.52941 95.5161 3.51547 95.5161 2.26471C95.5161 1.01394 96.5343 0 97.7903 0C99.0463 0 100.065 1.01394 100.065 2.26471Z" fill="white"/>
<path d="M113.71 2.26471C113.71 3.51547 112.691 4.52941 111.435 4.52941C110.179 4.52941 109.161 3.51547 109.161 2.26471C109.161 1.01394 110.179 0 111.435 0C112.691 0 113.71 1.01394 113.71 2.26471Z" fill="white"/>
<path d="M127.355 2.26471C127.355 3.51547 126.337 4.52941 125.081 4.52941C123.825 4.52941 122.806 3.51547 122.806 2.26471C122.806 1.01394 123.825 0 125.081 0C126.337 0 127.355 1.01394 127.355 2.26471Z" fill="white"/>
<path d="M141 2.26471C141 3.51547 139.982 4.52941 138.726 4.52941C137.47 4.52941 136.452 3.51547 136.452 2.26471C136.452 1.01394 137.47 0 138.726 0C139.982 0 141 1.01394 141 2.26471Z" fill="white"/>
<path d="M4.54839 15.8529C4.54839 17.1037 3.5302 18.1176 2.27419 18.1176C1.01819 18.1176 0 17.1037 0 15.8529C0 14.6022 1.01819 13.5882 2.27419 13.5882C3.5302 13.5882 4.54839 14.6022 4.54839 15.8529Z" fill="white"/>
<path d="M18.1935 15.8529C18.1935 17.1037 17.1754 18.1176 15.9194 18.1176C14.6634 18.1176 13.6452 17.1037 13.6452 15.8529C13.6452 14.6022 14.6634 13.5882 15.9194 13.5882C17.1754 13.5882 18.1935 14.6022 18.1935 15.8529Z" fill="white"/>
<path d="M31.8387 15.8529C31.8387 17.1037 30.8205 18.1176 29.5645 18.1176C28.3085 18.1176 27.2903 17.1037 27.2903 15.8529C27.2903 14.6022 28.3085 13.5882 29.5645 13.5882C30.8205 13.5882 31.8387 14.6022 31.8387 15.8529Z" fill="white"/>
<path d="M45.4839 15.8529C45.4839 17.1037 44.4657 18.1176 43.2097 18.1176C41.9537 18.1176 40.9355 17.1037 40.9355 15.8529C40.9355 14.6022 41.9537 13.5882 43.2097 13.5882C44.4657 13.5882 45.4839 14.6022 45.4839 15.8529Z" fill="white"/>
<path d="M59.129 15.8529C59.129 17.1037 58.1108 18.1176 56.8548 18.1176C55.5988 18.1176 54.5806 17.1037 54.5806 15.8529C54.5806 14.6022 55.5988 13.5882 56.8548 13.5882C58.1108 13.5882 59.129 14.6022 59.129 15.8529Z" fill="white"/>
<path d="M72.7742 15.8529C72.7742 17.1037 71.756 18.1176 70.5 18.1176C69.244 18.1176 68.2258 17.1037 68.2258 15.8529C68.2258 14.6022 69.244 13.5882 70.5 13.5882C71.756 13.5882 72.7742 14.6022 72.7742 15.8529Z" fill="white"/>
<path d="M86.4194 15.8529C86.4194 17.1037 85.4012 18.1176 84.1452 18.1176C82.8892 18.1176 81.871 17.1037 81.871 15.8529C81.871 14.6022 82.8892 13.5882 84.1452 13.5882C85.4012 13.5882 86.4194 14.6022 86.4194 15.8529Z" fill="white"/>
<path d="M100.065 15.8529C100.065 17.1037 99.0463 18.1176 97.7903 18.1176C96.5343 18.1176 95.5161 17.1037 95.5161 15.8529C95.5161 14.6022 96.5343 13.5882 97.7903 13.5882C99.0463 13.5882 100.065 14.6022 100.065 15.8529Z" fill="white"/>
<path d="M113.71 15.8529C113.71 17.1037 112.691 18.1176 111.435 18.1176C110.179 18.1176 109.161 17.1037 109.161 15.8529C109.161 14.6022 110.179 13.5882 111.435 13.5882C112.691 13.5882 113.71 14.6022 113.71 15.8529Z" fill="white"/>
<path d="M127.355 15.8529C127.355 17.1037 126.337 18.1176 125.081 18.1176C123.825 18.1176 122.806 17.1037 122.806 15.8529C122.806 14.6022 123.825 13.5882 125.081 13.5882C126.337 13.5882 127.355 14.6022 127.355 15.8529Z" fill="white"/>
<path d="M141 15.8529C141 17.1037 139.982 18.1176 138.726 18.1176C137.47 18.1176 136.452 17.1037 136.452 15.8529C136.452 14.6022 137.47 13.5882 138.726 13.5882C139.982 13.5882 141 14.6022 141 15.8529Z" fill="white"/>
<path d="M4.54839 29.4412C4.54839 30.6919 3.5302 31.7059 2.27419 31.7059C1.01819 31.7059 0 30.6919 0 29.4412C0 28.1904 1.01819 27.1765 2.27419 27.1765C3.5302 27.1765 4.54839 28.1904 4.54839 29.4412Z" fill="white"/>
<path d="M18.1935 29.4412C18.1935 30.6919 17.1754 31.7059 15.9194 31.7059C14.6634 31.7059 13.6452 30.6919 13.6452 29.4412C13.6452 28.1904 14.6634 27.1765 15.9194 27.1765C17.1754 27.1765 18.1935 28.1904 18.1935 29.4412Z" fill="white"/>
<path d="M31.8387 29.4412C31.8387 30.6919 30.8205 31.7059 29.5645 31.7059C28.3085 31.7059 27.2903 30.6919 27.2903 29.4412C27.2903 28.1904 28.3085 27.1765 29.5645 27.1765C30.8205 27.1765 31.8387 28.1904 31.8387 29.4412Z" fill="white"/>
<path d="M45.4839 29.4412C45.4839 30.6919 44.4657 31.7059 43.2097 31.7059C41.9537 31.7059 40.9355 30.6919 40.9355 29.4412C40.9355 28.1904 41.9537 27.1765 43.2097 27.1765C44.4657 27.1765 45.4839 28.1904 45.4839 29.4412Z" fill="white"/>
<path d="M59.129 29.4412C59.129 30.6919 58.1108 31.7059 56.8548 31.7059C55.5988 31.7059 54.5806 30.6919 54.5806 29.4412C54.5806 28.1904 55.5988 27.1765 56.8548 27.1765C58.1108 27.1765 59.129 28.1904 59.129 29.4412Z" fill="white"/>
<path d="M72.7742 29.4412C72.7742 30.6919 71.756 31.7059 70.5 31.7059C69.244 31.7059 68.2258 30.6919 68.2258 29.4412C68.2258 28.1904 69.244 27.1765 70.5 27.1765C71.756 27.1765 72.7742 28.1904 72.7742 29.4412Z" fill="white"/>
<path d="M86.4194 29.4412C86.4194 30.6919 85.4012 31.7059 84.1452 31.7059C82.8892 31.7059 81.871 30.6919 81.871 29.4412C81.871 28.1904 82.8892 27.1765 84.1452 27.1765C85.4012 27.1765 86.4194 28.1904 86.4194 29.4412Z" fill="white"/>
<path d="M100.065 29.4412C100.065 30.6919 99.0463 31.7059 97.7903 31.7059C96.5343 31.7059 95.5161 30.6919 95.5161 29.4412C95.5161 28.1904 96.5343 27.1765 97.7903 27.1765C99.0463 27.1765 100.065 28.1904 100.065 29.4412Z" fill="white"/>
<path d="M113.71 29.4412C113.71 30.6919 112.691 31.7059 111.435 31.7059C110.179 31.7059 109.161 30.6919 109.161 29.4412C109.161 28.1904 110.179 27.1765 111.435 27.1765C112.691 27.1765 113.71 28.1904 113.71 29.4412Z" fill="white"/>
<path d="M127.355 29.4412C127.355 30.6919 126.337 31.7059 125.081 31.7059C123.825 31.7059 122.806 30.6919 122.806 29.4412C122.806 28.1904 123.825 27.1765 125.081 27.1765C126.337 27.1765 127.355 28.1904 127.355 29.4412Z" fill="white"/>
<path d="M141 29.4412C141 30.6919 139.982 31.7059 138.726 31.7059C137.47 31.7059 136.452 30.6919 136.452 29.4412C136.452 28.1904 137.47 27.1765 138.726 27.1765C139.982 27.1765 141 28.1904 141 29.4412Z" fill="white"/>
<path d="M4.54839 43.0294C4.54839 44.2802 3.5302 45.2941 2.27419 45.2941C1.01819 45.2941 0 44.2802 0 43.0294C0 41.7786 1.01819 40.7647 2.27419 40.7647C3.5302 40.7647 4.54839 41.7786 4.54839 43.0294Z" fill="white"/>
<path d="M18.1935 43.0294C18.1935 44.2802 17.1754 45.2941 15.9194 45.2941C14.6634 45.2941 13.6452 44.2802 13.6452 43.0294C13.6452 41.7786 14.6634 40.7647 15.9194 40.7647C17.1754 40.7647 18.1935 41.7786 18.1935 43.0294Z" fill="white"/>
<path d="M31.8387 43.0294C31.8387 44.2802 30.8205 45.2941 29.5645 45.2941C28.3085 45.2941 27.2903 44.2802 27.2903 43.0294C27.2903 41.7786 28.3085 40.7647 29.5645 40.7647C30.8205 40.7647 31.8387 41.7786 31.8387 43.0294Z" fill="white"/>
<path d="M45.4839 43.0294C45.4839 44.2802 44.4657 45.2941 43.2097 45.2941C41.9537 45.2941 40.9355 44.2802 40.9355 43.0294C40.9355 41.7786 41.9537 40.7647 43.2097 40.7647C44.4657 40.7647 45.4839 41.7786 45.4839 43.0294Z" fill="white"/>
<path d="M59.129 43.0294C59.129 44.2802 58.1108 45.2941 56.8548 45.2941C55.5988 45.2941 54.5806 44.2802 54.5806 43.0294C54.5806 41.7786 55.5988 40.7647 56.8548 40.7647C58.1108 40.7647 59.129 41.7786 59.129 43.0294Z" fill="white"/>
<path d="M72.7742 43.0294C72.7742 44.2802 71.756 45.2941 70.5 45.2941C69.244 45.2941 68.2258 44.2802 68.2258 43.0294C68.2258 41.7786 69.244 40.7647 70.5 40.7647C71.756 40.7647 72.7742 41.7786 72.7742 43.0294Z" fill="white"/>
<path d="M86.4194 43.0294C86.4194 44.2802 85.4012 45.2941 84.1452 45.2941C82.8892 45.2941 81.871 44.2802 81.871 43.0294C81.871 41.7786 82.8892 40.7647 84.1452 40.7647C85.4012 40.7647 86.4194 41.7786 86.4194 43.0294Z" fill="white"/>
<path d="M100.065 43.0294C100.065 44.2802 99.0463 45.2941 97.7903 45.2941C96.5343 45.2941 95.5161 44.2802 95.5161 43.0294C95.5161 41.7786 96.5343 40.7647 97.7903 40.7647C99.0463 40.7647 100.065 41.7786 100.065 43.0294Z" fill="white"/>
<path d="M113.71 43.0294C113.71 44.2802 112.691 45.2941 111.435 45.2941C110.179 45.2941 109.161 44.2802 109.161 43.0294C109.161 41.7786 110.179 40.7647 111.435 40.7647C112.691 40.7647 113.71 41.7786 113.71 43.0294Z" fill="white"/>
<path d="M127.355 43.0294C127.355 44.2802 126.337 45.2941 125.081 45.2941C123.825 45.2941 122.806 44.2802 122.806 43.0294C122.806 41.7786 123.825 40.7647 125.081 40.7647C126.337 40.7647 127.355 41.7786 127.355 43.0294Z" fill="white"/>
<path d="M141 43.0294C141 44.2802 139.982 45.2941 138.726 45.2941C137.47 45.2941 136.452 44.2802 136.452 43.0294C136.452 41.7786 137.47 40.7647 138.726 40.7647C139.982 40.7647 141 41.7786 141 43.0294Z" fill="white"/>
<path d="M4.54839 56.6176C4.54839 57.8684 3.5302 58.8824 2.27419 58.8824C1.01819 58.8824 0 57.8684 0 56.6176C0 55.3669 1.01819 54.3529 2.27419 54.3529C3.5302 54.3529 4.54839 55.3669 4.54839 56.6176Z" fill="white"/>
<path d="M18.1935 56.6176C18.1935 57.8684 17.1754 58.8824 15.9194 58.8824C14.6634 58.8824 13.6452 57.8684 13.6452 56.6176C13.6452 55.3669 14.6634 54.3529 15.9194 54.3529C17.1754 54.3529 18.1935 55.3669 18.1935 56.6176Z" fill="white"/>
<path d="M31.8387 56.6176C31.8387 57.8684 30.8205 58.8824 29.5645 58.8824C28.3085 58.8824 27.2903 57.8684 27.2903 56.6176C27.2903 55.3669 28.3085 54.3529 29.5645 54.3529C30.8205 54.3529 31.8387 55.3669 31.8387 56.6176Z" fill="white"/>
<path d="M45.4839 56.6176C45.4839 57.8684 44.4657 58.8824 43.2097 58.8824C41.9537 58.8824 40.9355 57.8684 40.9355 56.6176C40.9355 55.3669 41.9537 54.3529 43.2097 54.3529C44.4657 54.3529 45.4839 55.3669 45.4839 56.6176Z" fill="white"/>
<path d="M59.129 56.6176C59.129 57.8684 58.1108 58.8824 56.8548 58.8824C55.5988 58.8824 54.5806 57.8684 54.5806 56.6176C54.5806 55.3669 55.5988 54.3529 56.8548 54.3529C58.1108 54.3529 59.129 55.3669 59.129 56.6176Z" fill="white"/>
<path d="M72.7742 56.6176C72.7742 57.8684 71.756 58.8824 70.5 58.8824C69.244 58.8824 68.2258 57.8684 68.2258 56.6176C68.2258 55.3669 69.244 54.3529 70.5 54.3529C71.756 54.3529 72.7742 55.3669 72.7742 56.6176Z" fill="white"/>
<path d="M86.4194 56.6176C86.4194 57.8684 85.4012 58.8824 84.1452 58.8824C82.8892 58.8824 81.871 57.8684 81.871 56.6176C81.871 55.3669 82.8892 54.3529 84.1452 54.3529C85.4012 54.3529 86.4194 55.3669 86.4194 56.6176Z" fill="white"/>
<path d="M100.065 56.6176C100.065 57.8684 99.0463 58.8824 97.7903 58.8824C96.5343 58.8824 95.5161 57.8684 95.5161 56.6176C95.5161 55.3669 96.5343 54.3529 97.7903 54.3529C99.0463 54.3529 100.065 55.3669 100.065 56.6176Z" fill="white"/>
<path d="M113.71 56.6176C113.71 57.8684 112.691 58.8824 111.435 58.8824C110.179 58.8824 109.161 57.8684 109.161 56.6176C109.161 55.3669 110.179 54.3529 111.435 54.3529C112.691 54.3529 113.71 55.3669 113.71 56.6176Z" fill="white"/>
<path d="M127.355 56.6176C127.355 57.8684 126.337 58.8824 125.081 58.8824C123.825 58.8824 122.806 57.8684 122.806 56.6176C122.806 55.3669 123.825 54.3529 125.081 54.3529C126.337 54.3529 127.355 55.3669 127.355 56.6176Z" fill="white"/>
<path d="M141 56.6176C141 57.8684 139.982 58.8824 138.726 58.8824C137.47 58.8824 136.452 57.8684 136.452 56.6176C136.452 55.3669 137.47 54.3529 138.726 54.3529C139.982 54.3529 141 55.3669 141 56.6176Z" fill="white"/>
<path d="M4.54839 70.2059C4.54839 71.4566 3.5302 72.4706 2.27419 72.4706C1.01819 72.4706 0 71.4566 0 70.2059C0 68.9551 1.01819 67.9412 2.27419 67.9412C3.5302 67.9412 4.54839 68.9551 4.54839 70.2059Z" fill="white"/>
<path d="M18.1935 70.2059C18.1935 71.4566 17.1754 72.4706 15.9194 72.4706C14.6634 72.4706 13.6452 71.4566 13.6452 70.2059C13.6452 68.9551 14.6634 67.9412 15.9194 67.9412C17.1754 67.9412 18.1935 68.9551 18.1935 70.2059Z" fill="white"/>
<path d="M31.8387 70.2059C31.8387 71.4566 30.8205 72.4706 29.5645 72.4706C28.3085 72.4706 27.2903 71.4566 27.2903 70.2059C27.2903 68.9551 28.3085 67.9412 29.5645 67.9412C30.8205 67.9412 31.8387 68.9551 31.8387 70.2059Z" fill="white"/>
<path d="M45.4839 70.2059C45.4839 71.4566 44.4657 72.4706 43.2097 72.4706C41.9537 72.4706 40.9355 71.4566 40.9355 70.2059C40.9355 68.9551 41.9537 67.9412 43.2097 67.9412C44.4657 67.9412 45.4839 68.9551 45.4839 70.2059Z" fill="white"/>
<path d="M59.129 70.2059C59.129 71.4566 58.1108 72.4706 56.8548 72.4706C55.5988 72.4706 54.5806 71.4566 54.5806 70.2059C54.5806 68.9551 55.5988 67.9412 56.8548 67.9412C58.1108 67.9412 59.129 68.9551 59.129 70.2059Z" fill="white"/>
<path d="M72.7742 70.2059C72.7742 71.4566 71.756 72.4706 70.5 72.4706C69.244 72.4706 68.2258 71.4566 68.2258 70.2059C68.2258 68.9551 69.244 67.9412 70.5 67.9412C71.756 67.9412 72.7742 68.9551 72.7742 70.2059Z" fill="white"/>
<path d="M86.4194 70.2059C86.4194 71.4566 85.4012 72.4706 84.1452 72.4706C82.8892 72.4706 81.871 71.4566 81.871 70.2059C81.871 68.9551 82.8892 67.9412 84.1452 67.9412C85.4012 67.9412 86.4194 68.9551 86.4194 70.2059Z" fill="white"/>
<path d="M100.065 70.2059C100.065 71.4566 99.0463 72.4706 97.7903 72.4706C96.5343 72.4706 95.5161 71.4566 95.5161 70.2059C95.5161 68.9551 96.5343 67.9412 97.7903 67.9412C99.0463 67.9412 100.065 68.9551 100.065 70.2059Z" fill="white"/>
<path d="M113.71 70.2059C113.71 71.4566 112.691 72.4706 111.435 72.4706C110.179 72.4706 109.161 71.4566 109.161 70.2059C109.161 68.9551 110.179 67.9412 111.435 67.9412C112.691 67.9412 113.71 68.9551 113.71 70.2059Z" fill="white"/>
<path d="M127.355 70.2059C127.355 71.4566 126.337 72.4706 125.081 72.4706C123.825 72.4706 122.806 71.4566 122.806 70.2059C122.806 68.9551 123.825 67.9412 125.081 67.9412C126.337 67.9412 127.355 68.9551 127.355 70.2059Z" fill="white"/>
<path d="M141 70.2059C141 71.4566 139.982 72.4706 138.726 72.4706C137.47 72.4706 136.452 71.4566 136.452 70.2059C136.452 68.9551 137.47 67.9412 138.726 67.9412C139.982 67.9412 141 68.9551 141 70.2059Z" fill="white"/>
<path d="M4.54839 83.7941C4.54839 85.0449 3.5302 86.0588 2.27419 86.0588C1.01819 86.0588 0 85.0449 0 83.7941C0 82.5434 1.01819 81.5294 2.27419 81.5294C3.5302 81.5294 4.54839 82.5434 4.54839 83.7941Z" fill="white"/>
<path d="M18.1935 83.7941C18.1935 85.0449 17.1754 86.0588 15.9194 86.0588C14.6634 86.0588 13.6452 85.0449 13.6452 83.7941C13.6452 82.5434 14.6634 81.5294 15.9194 81.5294C17.1754 81.5294 18.1935 82.5434 18.1935 83.7941Z" fill="white"/>
<path d="M31.8387 83.7941C31.8387 85.0449 30.8205 86.0588 29.5645 86.0588C28.3085 86.0588 27.2903 85.0449 27.2903 83.7941C27.2903 82.5434 28.3085 81.5294 29.5645 81.5294C30.8205 81.5294 31.8387 82.5434 31.8387 83.7941Z" fill="white"/>
<path d="M45.4839 83.7941C45.4839 85.0449 44.4657 86.0588 43.2097 86.0588C41.9537 86.0588 40.9355 85.0449 40.9355 83.7941C40.9355 82.5434 41.9537 81.5294 43.2097 81.5294C44.4657 81.5294 45.4839 82.5434 45.4839 83.7941Z" fill="white"/>
<path d="M59.129 83.7941C59.129 85.0449 58.1108 86.0588 56.8548 86.0588C55.5988 86.0588 54.5806 85.0449 54.5806 83.7941C54.5806 82.5434 55.5988 81.5294 56.8548 81.5294C58.1108 81.5294 59.129 82.5434 59.129 83.7941Z" fill="white"/>
<path d="M72.7742 83.7941C72.7742 85.0449 71.756 86.0588 70.5 86.0588C69.244 86.0588 68.2258 85.0449 68.2258 83.7941C68.2258 82.5434 69.244 81.5294 70.5 81.5294C71.756 81.5294 72.7742 82.5434 72.7742 83.7941Z" fill="white"/>
<path d="M86.4194 83.7941C86.4194 85.0449 85.4012 86.0588 84.1452 86.0588C82.8892 86.0588 81.871 85.0449 81.871 83.7941C81.871 82.5434 82.8892 81.5294 84.1452 81.5294C85.4012 81.5294 86.4194 82.5434 86.4194 83.7941Z" fill="white"/>
<path d="M100.065 83.7941C100.065 85.0449 99.0463 86.0588 97.7903 86.0588C96.5343 86.0588 95.5161 85.0449 95.5161 83.7941C95.5161 82.5434 96.5343 81.5294 97.7903 81.5294C99.0463 81.5294 100.065 82.5434 100.065 83.7941Z" fill="white"/>
<path d="M113.71 83.7941C113.71 85.0449 112.691 86.0588 111.435 86.0588C110.179 86.0588 109.161 85.0449 109.161 83.7941C109.161 82.5434 110.179 81.5294 111.435 81.5294C112.691 81.5294 113.71 82.5434 113.71 83.7941Z" fill="white"/>
<path d="M127.355 83.7941C127.355 85.0449 126.337 86.0588 125.081 86.0588C123.825 86.0588 122.806 85.0449 122.806 83.7941C122.806 82.5434 123.825 81.5294 125.081 81.5294C126.337 81.5294 127.355 82.5434 127.355 83.7941Z" fill="white"/>
<path d="M141 83.7941C141 85.0449 139.982 86.0588 138.726 86.0588C137.47 86.0588 136.452 85.0449 136.452 83.7941C136.452 82.5434 137.47 81.5294 138.726 81.5294C139.982 81.5294 141 82.5434 141 83.7941Z" fill="white"/>
<path d="M4.54839 97.3824C4.54839 98.6331 3.5302 99.6471 2.27419 99.6471C1.01819 99.6471 0 98.6331 0 97.3824C0 96.1316 1.01819 95.1176 2.27419 95.1176C3.5302 95.1176 4.54839 96.1316 4.54839 97.3824Z" fill="white"/>
<path d="M18.1935 97.3824C18.1935 98.6331 17.1754 99.6471 15.9194 99.6471C14.6634 99.6471 13.6452 98.6331 13.6452 97.3824C13.6452 96.1316 14.6634 95.1176 15.9194 95.1176C17.1754 95.1176 18.1935 96.1316 18.1935 97.3824Z" fill="white"/>
<path d="M31.8387 97.3824C31.8387 98.6331 30.8205 99.6471 29.5645 99.6471C28.3085 99.6471 27.2903 98.6331 27.2903 97.3824C27.2903 96.1316 28.3085 95.1176 29.5645 95.1176C30.8205 95.1176 31.8387 96.1316 31.8387 97.3824Z" fill="white"/>
<path d="M45.4839 97.3824C45.4839 98.6331 44.4657 99.6471 43.2097 99.6471C41.9537 99.6471 40.9355 98.6331 40.9355 97.3824C40.9355 96.1316 41.9537 95.1176 43.2097 95.1176C44.4657 95.1176 45.4839 96.1316 45.4839 97.3824Z" fill="white"/>
<path d="M59.129 97.3824C59.129 98.6331 58.1108 99.6471 56.8548 99.6471C55.5988 99.6471 54.5806 98.6331 54.5806 97.3824C54.5806 96.1316 55.5988 95.1176 56.8548 95.1176C58.1108 95.1176 59.129 96.1316 59.129 97.3824Z" fill="white"/>
<path d="M72.7742 97.3824C72.7742 98.6331 71.756 99.6471 70.5 99.6471C69.244 99.6471 68.2258 98.6331 68.2258 97.3824C68.2258 96.1316 69.244 95.1176 70.5 95.1176C71.756 95.1176 72.7742 96.1316 72.7742 97.3824Z" fill="white"/>
<path d="M86.4194 97.3824C86.4194 98.6331 85.4012 99.6471 84.1452 99.6471C82.8892 99.6471 81.871 98.6331 81.871 97.3824C81.871 96.1316 82.8892 95.1176 84.1452 95.1176C85.4012 95.1176 86.4194 96.1316 86.4194 97.3824Z" fill="white"/>
<path d="M100.065 97.3824C100.065 98.6331 99.0463 99.6471 97.7903 99.6471C96.5343 99.6471 95.5161 98.6331 95.5161 97.3824C95.5161 96.1316 96.5343 95.1176 97.7903 95.1176C99.0463 95.1176 100.065 96.1316 100.065 97.3824Z" fill="white"/>
<path d="M113.71 97.3824C113.71 98.6331 112.691 99.6471 111.435 99.6471C110.179 99.6471 109.161 98.6331 109.161 97.3824C109.161 96.1316 110.179 95.1176 111.435 95.1176C112.691 95.1176 113.71 96.1316 113.71 97.3824Z" fill="white"/>
<path d="M127.355 97.3824C127.355 98.6331 126.337 99.6471 125.081 99.6471C123.825 99.6471 122.806 98.6331 122.806 97.3824C122.806 96.1316 123.825 95.1176 125.081 95.1176C126.337 95.1176 127.355 96.1316 127.355 97.3824Z" fill="white"/>
<path d="M141 97.3824C141 98.6331 139.982 99.6471 138.726 99.6471C137.47 99.6471 136.452 98.6331 136.452 97.3824C136.452 96.1316 137.47 95.1176 138.726 95.1176C139.982 95.1176 141 96.1316 141 97.3824Z" fill="white"/>
<path d="M4.54839 110.971C4.54839 112.221 3.5302 113.235 2.27419 113.235C1.01819 113.235 0 112.221 0 110.971C0 109.72 1.01819 108.706 2.27419 108.706C3.5302 108.706 4.54839 109.72 4.54839 110.971Z" fill="white"/>
<path d="M18.1935 110.971C18.1935 112.221 17.1754 113.235 15.9194 113.235C14.6634 113.235 13.6452 112.221 13.6452 110.971C13.6452 109.72 14.6634 108.706 15.9194 108.706C17.1754 108.706 18.1935 109.72 18.1935 110.971Z" fill="white"/>
<path d="M31.8387 110.971C31.8387 112.221 30.8205 113.235 29.5645 113.235C28.3085 113.235 27.2903 112.221 27.2903 110.971C27.2903 109.72 28.3085 108.706 29.5645 108.706C30.8205 108.706 31.8387 109.72 31.8387 110.971Z" fill="white"/>
<path d="M45.4839 110.971C45.4839 112.221 44.4657 113.235 43.2097 113.235C41.9537 113.235 40.9355 112.221 40.9355 110.971C40.9355 109.72 41.9537 108.706 43.2097 108.706C44.4657 108.706 45.4839 109.72 45.4839 110.971Z" fill="white"/>
<path d="M59.129 110.971C59.129 112.221 58.1108 113.235 56.8548 113.235C55.5988 113.235 54.5806 112.221 54.5806 110.971C54.5806 109.72 55.5988 108.706 56.8548 108.706C58.1108 108.706 59.129 109.72 59.129 110.971Z" fill="white"/>
<path d="M72.7742 110.971C72.7742 112.221 71.756 113.235 70.5 113.235C69.244 113.235 68.2258 112.221 68.2258 110.971C68.2258 109.72 69.244 108.706 70.5 108.706C71.756 108.706 72.7742 109.72 72.7742 110.971Z" fill="white"/>
<path d="M86.4194 110.971C86.4194 112.221 85.4012 113.235 84.1452 113.235C82.8892 113.235 81.871 112.221 81.871 110.971C81.871 109.72 82.8892 108.706 84.1452 108.706C85.4012 108.706 86.4194 109.72 86.4194 110.971Z" fill="white"/>
<path d="M100.065 110.971C100.065 112.221 99.0463 113.235 97.7903 113.235C96.5343 113.235 95.5161 112.221 95.5161 110.971C95.5161 109.72 96.5343 108.706 97.7903 108.706C99.0463 108.706 100.065 109.72 100.065 110.971Z" fill="white"/>
<path d="M113.71 110.971C113.71 112.221 112.691 113.235 111.435 113.235C110.179 113.235 109.161 112.221 109.161 110.971C109.161 109.72 110.179 108.706 111.435 108.706C112.691 108.706 113.71 109.72 113.71 110.971Z" fill="white"/>
<path d="M127.355 110.971C127.355 112.221 126.337 113.235 125.081 113.235C123.825 113.235 122.806 112.221 122.806 110.971C122.806 109.72 123.825 108.706 125.081 108.706C126.337 108.706 127.355 109.72 127.355 110.971Z" fill="white"/>
<path d="M141 110.971C141 112.221 139.982 113.235 138.726 113.235C137.47 113.235 136.452 112.221 136.452 110.971C136.452 109.72 137.47 108.706 138.726 108.706C139.982 108.706 141 109.72 141 110.971Z" fill="white"/>
<path d="M4.54839 124.559C4.54839 125.81 3.5302 126.824 2.27419 126.824C1.01819 126.824 0 125.81 0 124.559C0 123.308 1.01819 122.294 2.27419 122.294C3.5302 122.294 4.54839 123.308 4.54839 124.559Z" fill="white"/>
<path d="M18.1935 124.559C18.1935 125.81 17.1754 126.824 15.9194 126.824C14.6634 126.824 13.6452 125.81 13.6452 124.559C13.6452 123.308 14.6634 122.294 15.9194 122.294C17.1754 122.294 18.1935 123.308 18.1935 124.559Z" fill="white"/>
<path d="M31.8387 124.559C31.8387 125.81 30.8205 126.824 29.5645 126.824C28.3085 126.824 27.2903 125.81 27.2903 124.559C27.2903 123.308 28.3085 122.294 29.5645 122.294C30.8205 122.294 31.8387 123.308 31.8387 124.559Z" fill="white"/>
<path d="M45.4839 124.559C45.4839 125.81 44.4657 126.824 43.2097 126.824C41.9537 126.824 40.9355 125.81 40.9355 124.559C40.9355 123.308 41.9537 122.294 43.2097 122.294C44.4657 122.294 45.4839 123.308 45.4839 124.559Z" fill="white"/>
<path d="M59.129 124.559C59.129 125.81 58.1108 126.824 56.8548 126.824C55.5988 126.824 54.5806 125.81 54.5806 124.559C54.5806 123.308 55.5988 122.294 56.8548 122.294C58.1108 122.294 59.129 123.308 59.129 124.559Z" fill="white"/>
<path d="M72.7742 124.559C72.7742 125.81 71.756 126.824 70.5 126.824C69.244 126.824 68.2258 125.81 68.2258 124.559C68.2258 123.308 69.244 122.294 70.5 122.294C71.756 122.294 72.7742 123.308 72.7742 124.559Z" fill="white"/>
<path d="M86.4194 124.559C86.4194 125.81 85.4012 126.824 84.1452 126.824C82.8892 126.824 81.871 125.81 81.871 124.559C81.871 123.308 82.8892 122.294 84.1452 122.294C85.4012 122.294 86.4194 123.308 86.4194 124.559Z" fill="white"/>
<path d="M100.065 124.559C100.065 125.81 99.0463 126.824 97.7903 126.824C96.5343 126.824 95.5161 125.81 95.5161 124.559C95.5161 123.308 96.5343 122.294 97.7903 122.294C99.0463 122.294 100.065 123.308 100.065 124.559Z" fill="white"/>
<path d="M113.71 124.559C113.71 125.81 112.691 126.824 111.435 126.824C110.179 126.824 109.161 125.81 109.161 124.559C109.161 123.308 110.179 122.294 111.435 122.294C112.691 122.294 113.71 123.308 113.71 124.559Z" fill="white"/>
<path d="M127.355 124.559C127.355 125.81 126.337 126.824 125.081 126.824C123.825 126.824 122.806 125.81 122.806 124.559C122.806 123.308 123.825 122.294 125.081 122.294C126.337 122.294 127.355 123.308 127.355 124.559Z" fill="white"/>
<path d="M141 124.559C141 125.81 139.982 126.824 138.726 126.824C137.47 126.824 136.452 125.81 136.452 124.559C136.452 123.308 137.47 122.294 138.726 122.294C139.982 122.294 141 123.308 141 124.559Z" fill="white"/>
<path d="M4.54839 138.147C4.54839 139.398 3.5302 140.412 2.27419 140.412C1.01819 140.412 0 139.398 0 138.147C0 136.896 1.01819 135.882 2.27419 135.882C3.5302 135.882 4.54839 136.896 4.54839 138.147Z" fill="white"/>
<path d="M18.1935 138.147C18.1935 139.398 17.1754 140.412 15.9194 140.412C14.6634 140.412 13.6452 139.398 13.6452 138.147C13.6452 136.896 14.6634 135.882 15.9194 135.882C17.1754 135.882 18.1935 136.896 18.1935 138.147Z" fill="white"/>
<path d="M31.8387 138.147C31.8387 139.398 30.8205 140.412 29.5645 140.412C28.3085 140.412 27.2903 139.398 27.2903 138.147C27.2903 136.896 28.3085 135.882 29.5645 135.882C30.8205 135.882 31.8387 136.896 31.8387 138.147Z" fill="white"/>
<path d="M45.4839 138.147C45.4839 139.398 44.4657 140.412 43.2097 140.412C41.9537 140.412 40.9355 139.398 40.9355 138.147C40.9355 136.896 41.9537 135.882 43.2097 135.882C44.4657 135.882 45.4839 136.896 45.4839 138.147Z" fill="white"/>
<path d="M59.129 138.147C59.129 139.398 58.1108 140.412 56.8548 140.412C55.5988 140.412 54.5806 139.398 54.5806 138.147C54.5806 136.896 55.5988 135.882 56.8548 135.882C58.1108 135.882 59.129 136.896 59.129 138.147Z" fill="white"/>
<path d="M72.7742 138.147C72.7742 139.398 71.756 140.412 70.5 140.412C69.244 140.412 68.2258 139.398 68.2258 138.147C68.2258 136.896 69.244 135.882 70.5 135.882C71.756 135.882 72.7742 136.896 72.7742 138.147Z" fill="white"/>
<path d="M86.4194 138.147C86.4194 139.398 85.4012 140.412 84.1452 140.412C82.8892 140.412 81.871 139.398 81.871 138.147C81.871 136.896 82.8892 135.882 84.1452 135.882C85.4012 135.882 86.4194 136.896 86.4194 138.147Z" fill="white"/>
<path d="M100.065 138.147C100.065 139.398 99.0463 140.412 97.7903 140.412C96.5343 140.412 95.5161 139.398 95.5161 138.147C95.5161 136.896 96.5343 135.882 97.7903 135.882C99.0463 135.882 100.065 136.896 100.065 138.147Z" fill="white"/>
<path d="M113.71 138.147C113.71 139.398 112.691 140.412 111.435 140.412C110.179 140.412 109.161 139.398 109.161 138.147C109.161 136.896 110.179 135.882 111.435 135.882C112.691 135.882 113.71 136.896 113.71 138.147Z" fill="white"/>
<path d="M127.355 138.147C127.355 139.398 126.337 140.412 125.081 140.412C123.825 140.412 122.806 139.398 122.806 138.147C122.806 136.896 123.825 135.882 125.081 135.882C126.337 135.882 127.355 136.896 127.355 138.147Z" fill="white"/>
<path d="M141 138.147C141 139.398 139.982 140.412 138.726 140.412C137.47 140.412 136.452 139.398 136.452 138.147C136.452 136.896 137.47 135.882 138.726 135.882C139.982 135.882 141 136.896 141 138.147Z" fill="white"/>
<path d="M4.54839 151.735C4.54839 152.986 3.5302 154 2.27419 154C1.01819 154 0 152.986 0 151.735C0 150.485 1.01819 149.471 2.27419 149.471C3.5302 149.471 4.54839 150.485 4.54839 151.735Z" fill="white"/>
<path d="M18.1935 151.735C18.1935 152.986 17.1754 154 15.9194 154C14.6634 154 13.6452 152.986 13.6452 151.735C13.6452 150.485 14.6634 149.471 15.9194 149.471C17.1754 149.471 18.1935 150.485 18.1935 151.735Z" fill="white"/>
<path d="M31.8387 151.735C31.8387 152.986 30.8205 154 29.5645 154C28.3085 154 27.2903 152.986 27.2903 151.735C27.2903 150.485 28.3085 149.471 29.5645 149.471C30.8205 149.471 31.8387 150.485 31.8387 151.735Z" fill="white"/>
<path d="M45.4839 151.735C45.4839 152.986 44.4657 154 43.2097 154C41.9537 154 40.9355 152.986 40.9355 151.735C40.9355 150.485 41.9537 149.471 43.2097 149.471C44.4657 149.471 45.4839 150.485 45.4839 151.735Z" fill="white"/>
<path d="M59.129 151.735C59.129 152.986 58.1108 154 56.8548 154C55.5988 154 54.5806 152.986 54.5806 151.735C54.5806 150.485 55.5988 149.471 56.8548 149.471C58.1108 149.471 59.129 150.485 59.129 151.735Z" fill="white"/>
<path d="M72.7742 151.735C72.7742 152.986 71.756 154 70.5 154C69.244 154 68.2258 152.986 68.2258 151.735C68.2258 150.485 69.244 149.471 70.5 149.471C71.756 149.471 72.7742 150.485 72.7742 151.735Z" fill="white"/>
<path d="M86.4194 151.735C86.4194 152.986 85.4012 154 84.1452 154C82.8892 154 81.871 152.986 81.871 151.735C81.871 150.485 82.8892 149.471 84.1452 149.471C85.4012 149.471 86.4194 150.485 86.4194 151.735Z" fill="white"/>
<path d="M100.065 151.735C100.065 152.986 99.0463 154 97.7903 154C96.5343 154 95.5161 152.986 95.5161 151.735C95.5161 150.485 96.5343 149.471 97.7903 149.471C99.0463 149.471 100.065 150.485 100.065 151.735Z" fill="white"/>
<path d="M113.71 151.735C113.71 152.986 112.691 154 111.435 154C110.179 154 109.161 152.986 109.161 151.735C109.161 150.485 110.179 149.471 111.435 149.471C112.691 149.471 113.71 150.485 113.71 151.735Z" fill="white"/>
<path d="M127.355 151.735C127.355 152.986 126.337 154 125.081 154C123.825 154 122.806 152.986 122.806 151.735C122.806 150.485 123.825 149.471 125.081 149.471C126.337 149.471 127.355 150.485 127.355 151.735Z" fill="white"/>
<path d="M141 151.735C141 152.986 139.982 154 138.726 154C137.47 154 136.452 152.986 136.452 151.735C136.452 150.485 137.47 149.471 138.726 149.471C139.982 149.471 141 150.485 141 151.735Z" fill="white"/>
</svg>
