<svg width="61" height="61" viewBox="0 0 61 61" fill="none" xmlns="http://www.w3.org/2000/svg">
<path d="M13 11.75C10.25 11.75 8 14 8 16.75V49.25C8 52 10.25 54.25 13 54.25H33C35.75 54.25 38 52 38 49.25V16.75C38 14 35.75 11.75 33 11.75" fill="#673AB7"/>
<path d="M18 16.75H20.5V49.25H18V16.75ZM30.5 11.75V9.25C30.5 7.75 29.5 6.75 28 6.75H18C16.5 6.75 15.5 7.75 15.5 9.25V11.75H30.5Z" fill="#311B92"/>
<path d="M38 16.75H20.5V49.25H38V16.75ZM26.75 46.75H23V41.75H26.75V46.75ZM26.75 24.25H23V19.25H26.75V24.25ZM34.25 46.75H30.5V41.75H34.25V46.75ZM30.5 24.25V19.25H34.25V24.25H30.5Z" fill="#D84315"/>
<path d="M38 16.75V19.25H41.75V24.25H38V41.75H41.75V46.75H38V49.25H53V16.75H38ZM49.25 46.75H45.5V41.75H49.25V46.75ZM49.25 24.25H45.5V19.25H49.25V24.25Z" fill="#FF5722"/>
</svg>
