<svg width="53" height="53" viewBox="0 0 53 53" fill="none" xmlns="http://www.w3.org/2000/svg">
<path d="M47.3618 2.48486H5.11182C3.31619 2.48486 1.86182 3.93924 1.86182 5.73486V47.9849C1.86182 49.7805 3.31619 51.2349 5.11182 51.2349H47.3618C49.1574 51.2349 50.6118 49.7805 50.6118 47.9849V5.73486C50.6118 3.93924 49.1574 2.48486 47.3618 2.48486Z" fill="#F77E00"/>
<path d="M44.8024 2.48486H4.9087C4.10243 2.49071 3.33084 2.8136 2.7607 3.38374C2.19056 3.95387 1.86767 4.72546 1.86183 5.53174V45.3036C1.85776 46.9855 3.2187 48.3464 4.90058 48.3505H44.7618C46.4437 48.3546 47.8046 46.9936 47.8087 45.3117V5.53174C47.8453 3.88643 46.5371 2.52143 44.8918 2.48486H44.8024Z" fill="#FF9800"/>
<path opacity="0.75" d="M16.3649 6.10058C16.3649 5.1662 15.7149 4.88183 11.9774 5.0037C8.84931 5.12558 7.30556 5.4912 6.37119 6.6287C5.43681 7.7662 5.19306 10.0818 5.15244 12.8443C5.15244 14.7943 5.15244 16.6225 6.16806 16.6225C7.54931 16.6225 7.54931 13.4131 8.68681 11.6256C10.8806 8.0912 16.3649 7.31933 16.3649 6.10058Z" fill="#FFBD52"/>
<path d="M41.7149 15.8912V22.2693C41.7149 22.7162 41.3493 23.0818 40.9024 23.0818H39.1962C38.7493 23.0818 38.3837 22.7162 38.3837 22.2693V18.8568C38.3837 18.6537 38.2212 18.4912 38.0181 18.4912H14.3337C14.1306 18.4912 13.9681 18.6537 13.9681 18.8568V22.2693C13.9681 22.7162 13.6024 23.0818 13.1556 23.0818H11.5712C11.1243 23.0818 10.7587 22.7162 10.7587 22.2693V15.8912C10.7587 15.6881 10.9212 15.5256 11.1243 15.5256H15.0243C15.2315 15.5256 15.4021 15.3549 15.4021 15.1477C15.4021 15.0827 15.3859 15.0137 15.3493 14.9568C14.7957 14.0393 14.1851 13.1574 13.5212 12.3162C13.447 12.216 13.3961 12.1005 13.3723 11.9782C13.3485 11.8558 13.3522 11.7297 13.3834 11.609C13.4145 11.4883 13.4723 11.3761 13.5523 11.2805C13.6324 11.185 13.7328 11.1086 13.8462 11.0568L15.3493 10.4474C15.6743 10.3256 16.0399 10.4068 16.2837 10.6506C17.0962 11.5849 18.5993 13.9006 19.2899 14.9568C19.5134 15.3021 19.8953 15.5134 20.3056 15.5256H24.2056C24.429 15.5134 24.5996 15.3224 24.5915 15.099C24.5915 15.0665 24.5834 15.0299 24.5712 14.9974C24.0293 13.7706 23.3908 12.5888 22.6618 11.4631C22.4221 11.1015 22.5196 10.614 22.8812 10.3743C22.9381 10.3377 23.0031 10.3052 23.0681 10.2849C23.5556 10.1224 24.1243 9.91931 24.5306 9.75681C24.8718 9.63493 25.2496 9.74868 25.4649 10.0412C26.1962 11.0974 27.8212 13.8193 28.4712 14.9568C28.6581 15.2777 28.9953 15.4768 29.3649 15.4849H32.1681C32.2778 15.4971 32.3834 15.4484 32.4524 15.3631C33.6143 13.8234 34.6746 12.2106 35.6212 10.5287C35.7153 10.3722 35.8559 10.2489 36.0234 10.1761C36.1909 10.1032 36.3769 10.0845 36.5556 10.1224L38.5056 10.7318C38.9321 10.8659 39.1718 11.3249 39.0337 11.7515C39.0053 11.8368 38.9646 11.9181 38.9118 11.9912C38.1399 13.0068 37.3681 13.9818 36.6368 14.8756C36.5028 15.0299 36.5231 15.2656 36.6774 15.3956C36.7465 15.4524 36.8318 15.4849 36.9212 15.4849H41.3087C41.5321 15.4849 41.7149 15.6677 41.7149 15.8912ZM27.3743 29.9068C27.0899 30.5568 26.8462 31.2474 26.6024 31.8568C26.5334 32.0681 26.6471 32.2996 26.8624 32.3687C26.8828 32.3768 26.9071 32.3809 26.9274 32.3849H38.3431C38.7899 32.3849 39.1556 32.7506 39.1556 33.1974V43.1912C39.1556 43.6381 38.7899 44.0037 38.3431 44.0037H36.4743C36.0274 44.0037 35.6618 43.6381 35.6618 43.1912V43.0693C35.6618 42.8662 35.4993 42.7037 35.2962 42.7037H17.3399C17.1368 42.7037 16.9743 42.8662 16.9743 43.0693V43.2318C16.9743 43.6787 16.6087 44.0443 16.1618 44.0443H14.4556C14.0087 44.0443 13.6431 43.6787 13.6431 43.2318V33.1568C13.6431 32.7099 14.0087 32.3443 14.4556 32.3443H22.7024C22.8731 32.3362 23.0193 32.2224 23.0681 32.0599C23.2712 31.4099 23.4337 30.7599 23.5962 30.1099C23.6102 30.0619 23.6146 30.0116 23.6091 29.9619C23.6036 29.9122 23.5884 29.864 23.5642 29.8202C23.54 29.7764 23.5075 29.7378 23.4683 29.7067C23.4292 29.6755 23.3843 29.6524 23.3362 29.6387C23.3037 29.6306 23.2671 29.6224 23.2306 29.6224H17.2587C16.8118 29.6224 16.4462 29.2568 16.4462 28.8099V21.7006C16.4462 21.2537 16.8118 20.8881 17.2587 20.8881H35.1743C35.6212 20.8881 35.9868 21.2537 35.9868 21.7006V28.8506C35.9868 29.2974 35.6212 29.6631 35.1743 29.6631H27.6993C27.6248 29.6575 27.5508 29.6791 27.4911 29.7239C27.4313 29.7688 27.3898 29.8337 27.3743 29.9068ZM35.2962 35.3912H17.3399C17.1368 35.3912 16.9743 35.5537 16.9743 35.7568V39.2912C16.9743 39.4943 17.1368 39.6568 17.3399 39.6568H35.2962C35.4993 39.6568 35.6618 39.4943 35.6618 39.2912V35.7568C35.6618 35.5537 35.4993 35.3912 35.2962 35.3912ZM20.0212 27.0631H32.2087C32.4118 27.0631 32.5743 26.9006 32.5743 26.6974V23.8537C32.5743 23.6506 32.4118 23.4881 32.2087 23.4881H20.0212C19.8181 23.4881 19.6556 23.6506 19.6556 23.8537V26.6974C19.6759 26.8924 19.8262 27.0427 20.0212 27.0631Z" fill="#FAFAFA"/>
</svg>
