<svg width="40" height="42" viewBox="0 0 40 42" fill="none" xmlns="http://www.w3.org/2000/svg">
<path d="M39.7188 10.0335C39.7334 10.087 39.7409 10.1421 39.7409 10.1976V18.8138C39.7409 19.039 39.6197 19.2469 39.4229 19.3588L32.1387 23.5227V31.7752C32.1387 31.8857 32.1095 31.9942 32.054 32.0898C31.9985 32.1855 31.9186 32.265 31.8223 32.3204L16.6167 41.0105C16.5818 41.03 16.5439 41.0425 16.5059 41.056C16.4916 41.0606 16.4783 41.0693 16.4632 41.0733C16.3569 41.1011 16.2452 41.1011 16.1389 41.0733C16.1214 41.0687 16.1056 41.0591 16.089 41.0529C16.0542 41.0402 16.0179 41.0292 15.9847 41.0105L0.782101 32.3202C0.685495 32.2652 0.605223 32.1858 0.549382 32.0901C0.493542 31.9944 0.464108 31.8858 0.46405 31.7752L0.46405 5.92647C0.46405 5.8698 0.472028 5.81482 0.486144 5.76151C0.4909 5.74338 0.501946 5.72693 0.50839 5.70881C0.520204 5.6759 0.531404 5.64209 0.548741 5.61147C0.560555 5.59106 0.577892 5.57461 0.59216 5.55573C0.610418 5.53059 0.626988 5.5047 0.648314 5.48261C0.666572 5.46464 0.690353 5.45124 0.710912 5.43555C0.733925 5.41666 0.754331 5.39625 0.780413 5.38132H0.78118L8.38279 1.03633C8.47905 0.981338 8.58817 0.952393 8.69923 0.952393C8.81029 0.952393 8.91941 0.981338 9.01567 1.03633L16.6173 5.38132H16.6188C16.6441 5.39716 16.6656 5.41666 16.6885 5.43479C16.709 5.45048 16.732 5.46464 16.7502 5.48201C16.7724 5.5047 16.7882 5.53075 16.8071 5.55573C16.8206 5.57461 16.8388 5.59106 16.8499 5.61147C16.868 5.64285 16.8783 5.6759 16.891 5.70896C16.8973 5.72693 16.9083 5.74338 16.9131 5.76227C16.9277 5.81573 16.9352 5.87102 16.9353 5.92647V22.0711L23.2697 18.4501V10.1968C23.2697 10.142 23.2776 10.0861 23.2919 10.0335C23.2974 10.0146 23.3077 9.9982 23.314 9.98023C23.3267 9.94717 23.3378 9.91321 23.3551 9.88274C23.3669 9.86233 23.3843 9.84588 23.3979 9.82699C23.4168 9.80186 23.4326 9.77597 23.4547 9.75388C23.4731 9.73591 23.496 9.72251 23.5165 9.70682C23.5403 9.68793 23.5609 9.66752 23.5862 9.65259H23.5869L31.1893 5.3076C31.2855 5.25253 31.3947 5.22354 31.5058 5.22354C31.6168 5.22354 31.726 5.25253 31.8222 5.3076L39.4238 9.65259C39.4507 9.66828 39.4712 9.68793 39.495 9.7059C39.5146 9.72174 39.5376 9.73591 39.5559 9.75312C39.578 9.77597 39.5938 9.80186 39.6127 9.82699C39.6271 9.84588 39.6444 9.86233 39.6556 9.88274C39.6737 9.91321 39.684 9.94717 39.6966 9.98023C39.7038 9.9982 39.7141 10.0146 39.7188 10.0335ZM38.4738 18.4503V11.2853L35.8136 12.8055L32.1386 14.9063V22.0713L38.4746 18.4503H38.4738ZM30.8722 31.4117V24.2416L27.2572 26.2914L16.9346 32.1403V39.3775L30.8722 31.4114V31.4117ZM1.73119 7.01401V31.4117L15.6673 39.3769V32.1411L8.38693 28.0505L8.38463 28.049L8.38156 28.0474C8.35702 28.0333 8.3363 28.0129 8.31344 27.9956C8.2935 27.9798 8.27064 27.9673 8.2533 27.95L8.25177 27.9477C8.23121 27.928 8.21694 27.9037 8.1996 27.8817C8.18365 27.8604 8.16477 27.8424 8.15204 27.8205L8.15127 27.818C8.137 27.7946 8.12826 27.7663 8.11798 27.7396C8.1077 27.716 8.09435 27.6939 8.08791 27.6689V27.6682C8.08008 27.6383 8.07855 27.6068 8.07533 27.5762C8.07226 27.5527 8.06582 27.5291 8.06582 27.5055V10.6352L4.39143 8.53352L1.73119 7.01492V7.01401ZM8.70008 2.30696L2.36637 5.92647L8.69854 9.54582L15.0313 5.92555L8.69854 2.30696H8.70008ZM11.9938 24.8952L15.668 22.7954V7.01401L13.0081 8.53443L9.3328 10.635V26.4163L11.9938 24.8952ZM31.5057 6.57823L25.1729 10.1976L31.5057 13.8171L37.8377 10.1968L31.5058 6.57823H31.5057ZM30.872 14.9063L27.197 12.8055L24.5369 11.2853V18.4503L28.2112 20.5502L30.8722 22.0713V14.9063H30.872ZM16.3002 31.0528L25.589 25.7881L30.2322 23.1573L23.9041 19.5402L16.6181 23.7046L9.9775 27.5L16.3002 31.0528Z" fill="#FF2D20"/>
</svg>
