<svg width="54" height="53" viewBox="0 0 54 53" fill="none" xmlns="http://www.w3.org/2000/svg">
<path d="M46.1132 9.10938H30.63L27.0957 16.0656H7.23676V43.8906H49.6474V9.10938H46.1132ZM46.1132 40.0813H11.1076V19.5438H46.1132V40.0813ZM46.1132 16.0656H32.3129L33.9959 12.5875H45.9449V16.0656H46.1132Z" fill="#7A9EDD"/>
<path d="M43.2522 22.6907H0.841492L7.23675 43.8907H49.6474L43.2522 22.6907Z" fill="#7A9EDD"/>
<path d="M34.5008 51.2163C44.2603 51.2163 52.1719 47.1209 52.1719 42.0689C52.1719 37.0168 44.2603 32.9214 34.5008 32.9214C24.7413 32.9214 16.8297 37.0168 16.8297 42.0689C16.8297 47.1209 24.7413 51.2163 34.5008 51.2163Z" fill="url(#paint0_radial_24_2970)"/>
<path d="M34.5008 50.5372C43.8792 50.5372 51.4819 46.7457 51.4819 42.0687C51.4819 37.3918 43.8792 33.6003 34.5008 33.6003C25.1224 33.6003 17.5197 37.3918 17.5197 42.0687C17.5197 46.7457 25.1224 50.5372 34.5008 50.5372Z" fill="#6280B6"/>
<path d="M37.9407 44.8065L38.7822 40.54C38.9021 40.1749 38.9218 39.7852 38.8393 39.4103C38.7569 39.0354 38.5752 38.6886 38.3127 38.4051C37.5796 37.8932 36.6823 37.6612 35.7882 37.7525H34.3325L34.7498 35.6391C34.759 35.5992 34.7588 35.5578 34.7494 35.518C34.74 35.4782 34.7216 35.441 34.6956 35.4092C34.6695 35.3773 34.6365 35.3517 34.599 35.3341C34.5615 35.3166 34.5204 35.3076 34.4789 35.3079H32.4593C32.3952 35.3079 32.3331 35.3299 32.2836 35.3701C32.2342 35.4103 32.2005 35.4662 32.1884 35.5281L31.3031 40.063C31.234 39.579 31.0248 39.1248 30.7006 38.7545C30.3396 38.3988 29.9042 38.1249 29.4246 37.9518C28.945 37.7788 28.4328 37.7107 27.9237 37.7525H24.0193C23.9551 37.7525 23.893 37.7745 23.8435 37.8147C23.7941 37.8549 23.7604 37.9108 23.7483 37.9728L21.9374 47.1401C21.9283 47.18 21.9285 47.2214 21.9379 47.2612C21.9472 47.301 21.9657 47.3382 21.9917 47.3701C22.0177 47.4019 22.0508 47.4276 22.0883 47.4451C22.1258 47.4626 22.1669 47.4716 22.2084 47.4714H24.2347C24.2988 47.4714 24.3609 47.4494 24.4104 47.4092C24.4598 47.369 24.4935 47.3131 24.5056 47.2511L24.9432 45.0334H26.4579C27.1268 45.0499 27.7943 44.965 28.437 44.7816C28.9794 44.6052 29.4754 44.3127 29.8894 43.9253C30.2285 43.6213 30.518 43.2677 30.7477 42.8769L30.3859 44.7087C30.3768 44.7486 30.3769 44.79 30.3863 44.8298C30.3957 44.8696 30.4141 44.9069 30.4402 44.9387C30.4662 44.9705 30.4992 44.9962 30.5368 45.0137C30.5743 45.0313 30.6153 45.0402 30.6569 45.04H32.6764C32.7406 45.04 32.8027 45.018 32.8521 44.9778C32.9016 44.9376 32.9353 44.8817 32.9474 44.8197L33.9403 39.788H35.322C35.9111 39.788 36.0827 39.904 36.1299 39.9536C36.177 40.0033 36.2611 40.159 36.1618 40.6609L35.3607 44.717C35.3516 44.7569 35.3518 44.7983 35.3612 44.8381C35.3706 44.8779 35.389 44.9151 35.415 44.947C35.4411 44.9788 35.4741 45.0045 35.5116 45.022C35.5491 45.0395 35.5902 45.0485 35.6317 45.0483H37.6765C37.7427 45.0459 37.8058 45.0201 37.8543 44.9757C37.9028 44.9313 37.9335 44.8713 37.9407 44.8065ZM28.6104 41.2803C28.5485 41.8019 28.2968 42.2837 27.9019 42.6368C27.4061 42.9405 26.8247 43.0803 26.2425 43.0359H25.3437L25.99 39.7499H27.1529C28.0079 39.7499 28.3512 39.9305 28.4892 40.0812C28.5945 40.2612 28.6597 40.4612 28.6806 40.6679C28.7015 40.8747 28.6776 41.0834 28.6104 41.2803ZM46.5508 38.7562C46.1898 38.4005 45.7543 38.1265 45.2747 37.9535C44.7951 37.7804 44.2829 37.7124 43.7739 37.7541H39.8711C39.807 37.7542 39.7448 37.7762 39.6954 37.8164C39.6459 37.8566 39.6123 37.9124 39.6001 37.9744L37.7893 47.1418C37.7801 47.1817 37.7803 47.223 37.7897 47.2629C37.7991 47.3027 37.8175 47.3399 37.8435 47.3717C37.8696 47.4036 37.9026 47.4292 37.9401 47.4468C37.9776 47.4643 38.0187 47.4733 38.0602 47.473H40.0899C40.154 47.473 40.2161 47.451 40.2656 47.4108C40.315 47.3706 40.3487 47.3147 40.3608 47.2527L40.7984 45.035H42.3131C42.982 45.0515 43.6495 44.9666 44.2922 44.7833C44.8346 44.6068 45.3306 44.3144 45.7446 43.927C46.4532 43.2985 46.9307 42.4571 47.1028 41.5337C47.2397 41.0607 47.2611 40.5625 47.1652 40.0798C47.0692 39.5971 46.8587 39.1436 46.5508 38.7562ZM44.4454 41.282C44.3835 41.8035 44.1318 42.2854 43.7369 42.6384C43.2411 42.9421 42.6597 43.082 42.0775 43.0376H41.1788L41.8284 39.7499H42.9913C43.8463 39.7499 44.1896 39.9305 44.3276 40.0812C44.4323 40.2615 44.497 40.4616 44.5173 40.6683C44.5376 40.875 44.5131 41.0836 44.4454 41.2803V41.282Z" fill="white"/>
<path d="M27.1529 39.4701C27.4254 39.4364 27.7019 39.4563 27.9665 39.5285C28.2312 39.6007 28.4786 39.7238 28.6945 39.8908C28.8346 40.1017 28.9239 40.3412 28.9557 40.5912C28.9875 40.8412 28.9609 41.095 28.878 41.3334C28.8055 41.9202 28.5169 42.4606 28.0668 42.8522C27.5237 43.1946 26.8823 43.3544 26.2391 43.3076H25.0055L25.7628 39.4701H27.1529ZM22.2151 47.1915H24.2347L24.716 44.7535H26.4562C27.096 44.7703 27.7346 44.6898 28.3495 44.515C28.8528 44.3502 29.3126 44.0776 29.6959 43.7167C30.3617 43.1277 30.8099 42.3377 30.9699 41.4708C31.0975 41.0398 31.1199 40.5852 31.0354 40.144C30.9509 39.7029 30.7618 39.2875 30.4835 38.9318C30.1484 38.6056 29.745 38.3552 29.3014 38.1982C28.8579 38.0411 28.3848 37.9812 27.9153 38.0225H24.0193L22.2151 47.1915ZM32.4661 35.5862H34.4856L33.9959 38.0242H35.7899C36.614 37.9391 37.4419 38.1451 38.1259 38.6055C38.3522 38.8586 38.507 39.1658 38.5746 39.4963C38.6423 39.8269 38.6204 40.1691 38.5113 40.4887L37.6698 44.7552H35.625L36.4261 40.699C36.4818 40.5442 36.5017 40.3791 36.4842 40.2157C36.4668 40.0524 36.4124 39.895 36.3251 39.755C36.0333 39.5478 35.6722 39.4578 35.3153 39.5032H33.7064L32.6697 44.7552H30.6501L32.4661 35.5862ZM42.9913 39.4701C43.2638 39.4364 43.5403 39.4563 43.8049 39.5285C44.0695 39.6007 44.317 39.7238 44.5329 39.8908C44.673 40.1017 44.7623 40.3412 44.7941 40.5912C44.8259 40.8412 44.7993 41.095 44.7164 41.3334C44.6438 41.9202 44.3552 42.4606 43.9052 42.8522C43.3611 43.1953 42.7185 43.3552 42.0741 43.3076H40.8405L41.5978 39.4701H42.9913ZM38.0468 47.1915H40.0764L40.5577 44.7535H42.2962C42.9361 44.7703 43.5747 44.6898 44.1896 44.515C44.6929 44.3502 45.1527 44.0776 45.536 43.7167C46.2018 43.1277 46.6499 42.3377 46.81 41.4708C46.9375 41.0398 46.96 40.5852 46.8755 40.144C46.791 39.7029 46.6019 39.2875 46.3236 38.9318C45.9885 38.6061 45.5853 38.3562 45.142 38.1994C44.6988 38.0427 44.2262 37.9829 43.7571 38.0242H39.8576L38.0468 47.1915Z" fill="#000004"/>
<defs>
<radialGradient id="paint0_radial_24_2970" cx="0" cy="0" r="1" gradientUnits="userSpaceOnUse" gradientTransform="translate(27.4391 36.1378) scale(23.2047 22.8364)">
<stop stop-color="white"/>
<stop offset="0.5" stop-color="#4C6B96"/>
<stop offset="1" stop-color="#231F20"/>
</radialGradient>
</defs>
</svg>
