<svg width="84" height="51" viewBox="0 0 84 51" fill="none" xmlns="http://www.w3.org/2000/svg">
<path d="M41.5259 50.6091C41.2415 50.6091 40.9761 50.5355 40.7295 50.4067L38.2077 48.9529C37.8284 48.7503 38.018 48.6767 38.1319 48.64C38.6438 48.4744 38.7386 48.4374 39.2695 48.1431C39.3264 48.1062 39.4024 48.1247 39.4592 48.1615L41.3933 49.2841C41.4691 49.3209 41.5639 49.3209 41.6207 49.2841L49.1864 45.0328C49.2622 44.996 49.3003 44.9223 49.3003 44.8304V36.3463C49.3003 36.2541 49.2622 36.1807 49.1864 36.1438L41.6207 31.911C41.5449 31.874 41.4501 31.874 41.3933 31.911L33.8276 36.1438C33.7518 36.1806 33.7137 36.2726 33.7137 36.3462V44.8302C33.7137 44.904 33.7518 44.9959 33.8276 45.0328L35.8944 46.1922C37.0132 46.7443 37.7147 46.1001 37.7147 45.456V37.0823C37.7147 36.972 37.8095 36.8615 37.9422 36.8615H38.9092C39.0231 36.8615 39.1368 36.9535 39.1368 37.0823V45.456C39.1368 46.9099 38.3214 47.7565 36.8993 47.7565C36.4632 47.7565 36.122 47.7565 35.1548 47.2963L33.1639 46.1922C32.6709 45.9162 32.3676 45.4008 32.3676 44.8487V36.3646C32.3676 35.8126 32.6709 35.2971 33.1639 35.0212L40.7295 30.7699C41.2036 30.5122 41.8484 30.5122 42.3224 30.7699L49.888 35.0212C50.381 35.2971 50.6845 35.8126 50.6845 36.3646V44.8487C50.6845 45.4008 50.381 45.9162 49.888 46.1922L42.3224 50.4435C42.0758 50.554 41.7915 50.6091 41.526 50.6091H41.5259ZM43.8582 44.7751C40.54 44.7751 39.8573 43.3029 39.8573 42.0514C39.8573 41.9409 39.9522 41.8306 40.0849 41.8306H41.0709C41.1846 41.8306 41.2794 41.9041 41.2794 42.0146C41.4312 42.99 41.8673 43.4685 43.8772 43.4685C45.4699 43.4685 46.1528 43.1188 46.1528 42.2906C46.1528 41.8121 45.9629 41.4626 43.479 41.2232C41.4122 41.0207 40.1228 40.5791 40.1228 38.978C40.1228 37.4872 41.4123 36.6038 43.5738 36.6038C46.0008 36.6038 47.1955 37.4137 47.3473 39.1802C47.3473 39.2357 47.3283 39.2908 47.2904 39.346C47.2523 39.3828 47.1955 39.4196 47.1386 39.4196H46.1526C46.0578 39.4196 45.9629 39.346 45.9441 39.254C45.7165 38.2419 45.1287 37.9105 43.5738 37.9105C41.8294 37.9105 41.6207 38.4995 41.6207 38.9411C41.6207 39.4748 41.8673 39.6404 44.2185 39.9349C46.5508 40.2294 47.6506 40.6527 47.6506 42.2353C47.6316 43.8549 46.2664 44.7751 43.8582 44.7751Z" fill="#539E43"/>
<path d="M18.0515 17.4271C18.0515 17.0959 17.8618 16.7828 17.5585 16.6172L9.51874 12.1268C9.38585 12.0531 9.23426 12.0163 9.08266 11.9978H9.0067C8.85511 11.9978 8.70335 12.0531 8.57063 12.1268L0.530907 16.6172C0.227391 16.7828 0.037899 17.0957 0.037899 17.4271L0.0569303 29.4999C0.0569303 29.6655 0.151758 29.8311 0.303352 29.9048C0.45511 29.9968 0.644602 29.9968 0.777493 29.9048L5.55581 27.2546C5.85916 27.089 6.04882 26.7761 6.04882 26.4449V20.7949C6.04882 20.4637 6.23831 20.1508 6.54183 19.9852L8.57063 18.8441C8.72238 18.7521 8.89301 18.7152 9.06363 18.7152C9.23426 18.7152 9.40488 18.7521 9.53777 18.8441L11.5666 19.9852C11.8701 20.1508 12.0596 20.4636 12.0596 20.7949V26.4449C12.0596 26.7761 12.2492 27.089 12.5526 27.2546L17.3309 29.9048C17.4047 29.9499 17.4902 29.9739 17.5774 29.9739C17.6646 29.9739 17.7501 29.9499 17.8239 29.9048C17.9757 29.8311 18.0705 29.6655 18.0705 29.4999L18.0515 17.4271ZM56.6952 0.808468C56.5437 0.734742 56.354 0.734742 56.2211 0.808468C56.0695 0.900507 55.9747 1.04764 55.9747 1.21325V13.1758C55.9747 13.2862 55.9179 13.3965 55.8041 13.4703C55.6904 13.5253 55.5765 13.5253 55.4628 13.4703L53.4529 12.3476C53.3055 12.2662 53.1389 12.2234 52.9693 12.2234C52.7997 12.2234 52.6331 12.2662 52.4857 12.3476L44.446 16.8566C44.1427 17.0222 43.953 17.3351 43.953 17.6663V26.6656C43.953 26.9968 44.1427 27.3099 44.446 27.4755L52.4857 31.9844C52.6331 32.0659 52.7997 32.1087 52.9693 32.1087C53.1389 32.1087 53.3055 32.0659 53.4529 31.9844L61.4926 27.4755C61.7959 27.3099 61.9856 26.997 61.9856 26.6656V4.23156C61.9856 3.88188 61.7959 3.56914 61.4926 3.40337L56.6954 0.808468H56.6952ZM55.9558 23.7027C55.9558 23.7948 55.9179 23.8683 55.842 23.9051L53.0926 25.451C53.0542 25.4692 53.012 25.4786 52.9693 25.4786C52.9266 25.4786 52.8844 25.4692 52.846 25.451L50.0967 23.9051C50.0207 23.8683 49.9828 23.7763 49.9828 23.7027V20.6109C49.9828 20.5188 50.0207 20.4453 50.0967 20.4085L52.846 18.8624C52.8844 18.8443 52.9266 18.8348 52.9693 18.8348C53.012 18.8348 53.0542 18.8443 53.0926 18.8624L55.842 20.4085C55.9179 20.4451 55.9558 20.5373 55.9558 20.6109V23.7027ZM83.4501 20.5373C83.7536 20.3717 83.9242 20.0588 83.9242 19.7274V17.5374C83.9242 17.2062 83.7346 16.8933 83.4501 16.7277L75.4673 12.2373C75.3199 12.1559 75.1533 12.113 74.9837 12.113C74.8141 12.113 74.6475 12.1559 74.5001 12.2373L66.4604 16.746C66.1569 16.9117 65.9674 17.2246 65.9674 17.5558V26.5553C65.9674 26.8865 66.1571 27.1994 66.4604 27.365L74.4432 31.7819C74.7467 31.9475 75.107 31.9475 75.3915 31.7819L80.2266 29.1688C80.3783 29.0951 80.4731 28.9295 80.4731 28.7639C80.4731 28.5983 80.3783 28.4327 80.2266 28.3589L72.149 23.85C71.9972 23.758 71.9024 23.6109 71.9024 23.4453V20.6295C71.9024 20.4639 71.9972 20.2983 72.149 20.2246L74.6707 18.8258C74.7446 18.7807 74.83 18.7568 74.9173 18.7568C75.0045 18.7568 75.0899 18.7807 75.1638 18.8258L77.6857 20.2246C77.8375 20.3166 77.9322 20.4637 77.9322 20.6295V22.8379C77.9322 23.0035 78.027 23.1691 78.1787 23.2427C78.2526 23.2878 78.338 23.3117 78.4252 23.3117C78.5125 23.3117 78.5979 23.2878 78.6717 23.2427L83.4501 20.5373Z" fill="#333333"/>
<path d="M74.8604 20.1138C74.8886 20.0958 74.9215 20.0862 74.9552 20.0862C74.989 20.0862 75.0219 20.0958 75.0501 20.1138L76.586 20.9788C76.6428 21.0157 76.6807 21.0708 76.6807 21.1444V22.8745C76.6807 22.948 76.6429 23.0033 76.586 23.0401L75.0501 23.905C75.0219 23.923 74.989 23.9327 74.9552 23.9327C74.9215 23.9327 74.8886 23.923 74.8604 23.905L73.3246 23.0401C73.2677 23.0033 73.2298 22.948 73.2298 22.8745V21.1445C73.2298 21.0708 73.2675 21.0155 73.3246 20.9789L74.8604 20.1138Z" fill="#539E43"/>
<mask id="mask0_418_158" style="mask-type:alpha" maskUnits="userSpaceOnUse" x="22" y="12" width="18" height="20">
<path d="M31.4952 12.2741C31.3479 12.1927 31.1813 12.1499 31.0117 12.1499C30.8422 12.1499 30.6756 12.1927 30.5283 12.2741L22.5455 16.7459C22.242 16.9115 22.0713 17.2244 22.0713 17.5556V26.5184C22.0713 26.8496 22.261 27.1625 22.5455 27.3281L30.5283 31.8002C30.6756 31.8816 30.8422 31.9244 31.0117 31.9244C31.1813 31.9244 31.3479 31.8816 31.4952 31.8002L39.4782 27.3281C39.7815 27.1625 39.9523 26.8496 39.9523 26.5184V17.5558C39.9523 17.2246 39.7625 16.9117 39.4782 16.7461L31.4952 12.2741Z" fill="white"/>
</mask>
<g mask="url(#mask0_418_158)">
<path d="M31.4952 12.2741C31.3479 12.1927 31.1813 12.1499 31.0117 12.1499C30.8422 12.1499 30.6756 12.1927 30.5283 12.2741L22.5455 16.7459C22.242 16.9115 22.0713 17.2244 22.0713 17.5556V26.5184C22.0713 26.8496 22.261 27.1625 22.5455 27.3281L30.5283 31.8002C30.6756 31.8816 30.8422 31.9244 31.0117 31.9244C31.1813 31.9244 31.3479 31.8816 31.4952 31.8002L39.4782 27.3281C39.7815 27.1625 39.9523 26.8496 39.9523 26.5184V17.5558C39.9523 17.2246 39.7625 16.9117 39.4782 16.7461L31.4952 12.2741Z" fill="url(#paint0_linear_418_158)"/>
<path d="M39.4971 16.7461L31.4764 12.2742C31.3976 12.2355 31.315 12.2047 31.2298 12.1821L22.242 27.1261C22.3164 27.2143 22.4063 27.2891 22.5076 27.3469L30.5283 31.8191C30.7558 31.9479 31.0213 31.9847 31.2677 31.9109L39.7057 16.9304C39.6488 16.8568 39.5729 16.8014 39.4971 16.7463V16.7461Z" fill="url(#paint1_linear_418_158)"/>
<path fill-rule="evenodd" clip-rule="evenodd" d="M39.5161 27.3281C39.7436 27.1993 39.9143 26.9784 39.9902 26.7393L31.1917 12.1635C30.9642 12.1267 30.7176 12.145 30.5092 12.2738L22.5453 16.7277L31.1348 31.9291C31.2597 31.9092 31.381 31.8721 31.4951 31.8187L39.5159 27.3283L39.5161 27.3281Z" fill="url(#paint2_linear_418_158)"/>
<path fill-rule="evenodd" clip-rule="evenodd" d="M39.5161 27.3283L31.5143 31.8004C31.4013 31.8563 31.2796 31.8936 31.154 31.9108L31.3058 32.1869L40.1797 27.1996V27.0891L39.9522 26.7209C39.9143 26.9786 39.7436 27.1995 39.5161 27.3283Z" fill="url(#paint3_linear_418_158)"/>
<path fill-rule="evenodd" clip-rule="evenodd" d="M39.5161 27.3283L31.5143 31.8004C31.4013 31.8563 31.2796 31.8936 31.154 31.9108L31.3058 32.1869L40.1797 27.1996V27.0891L39.9522 26.7209C39.9143 26.9786 39.7436 27.1995 39.5161 27.3283Z" fill="url(#paint4_linear_418_158)"/>
</g>
<defs>
<linearGradient id="paint0_linear_418_158" x1="34.264" y1="15.6079" x2="25.8813" y2="29.1789" gradientUnits="userSpaceOnUse">
<stop stop-color="#41873F"/>
<stop offset="0.3288" stop-color="#418B3D"/>
<stop offset="0.6352" stop-color="#419637"/>
<stop offset="0.9319" stop-color="#3FA92D"/>
<stop offset="1" stop-color="#3FAE2A"/>
</linearGradient>
<linearGradient id="paint1_linear_418_158" x1="29.7998" y1="23.0871" x2="51.4104" y2="10.99" gradientUnits="userSpaceOnUse">
<stop offset="0.1376" stop-color="#41873F"/>
<stop offset="0.4032" stop-color="#54A044"/>
<stop offset="0.7136" stop-color="#66B848"/>
<stop offset="0.9081" stop-color="#6CC04A"/>
</linearGradient>
<linearGradient id="paint2_linear_418_158" x1="21.7796" y1="22.0373" x2="40.2517" y2="22.0373" gradientUnits="userSpaceOnUse">
<stop offset="0.09192" stop-color="#6CC04A"/>
<stop offset="0.2864" stop-color="#66B848"/>
<stop offset="0.5968" stop-color="#54A044"/>
<stop offset="0.8624" stop-color="#41873F"/>
</linearGradient>
<linearGradient id="paint3_linear_418_158" x1="21.7798" y1="29.4689" x2="40.2517" y2="29.4689" gradientUnits="userSpaceOnUse">
<stop offset="0.09192" stop-color="#6CC04A"/>
<stop offset="0.2864" stop-color="#66B848"/>
<stop offset="0.5968" stop-color="#54A044"/>
<stop offset="0.8624" stop-color="#41873F"/>
</linearGradient>
<linearGradient id="paint4_linear_418_158" x1="42.9428" y1="15.1841" x2="38.5254" y2="39.0325" gradientUnits="userSpaceOnUse">
<stop stop-color="#41873F"/>
<stop offset="0.3288" stop-color="#418B3D"/>
<stop offset="0.6352" stop-color="#419637"/>
<stop offset="0.9319" stop-color="#3FA92D"/>
<stop offset="1" stop-color="#3FAE2A"/>
</linearGradient>
</defs>
</svg>
