<svg width="75" height="75" viewBox="0 0 75 75" fill="none" xmlns="http://www.w3.org/2000/svg">
<path opacity="0.4" d="M60.875 40.4688H67.1875V35.9688C67.1875 29.5 61.9063 24.2188 55.4375 24.2188H19.5625C13.0937 24.2188 7.8125 29.5 7.8125 35.9688L7.8125 47.3749C10.2812 45.1249 13.5938 43.75 17.1875 43.75C24.9688 43.75 31.25 50.0625 31.25 57.8125C31.25 59.4688 30.9688 61.0313 30.4375 62.5C29.5938 64.9688 28.0312 67.0938 26.0625 68.75H55.4375C61.9063 68.75 67.1875 63.4687 67.1875 57V53.2812H61.25C57.875 53.2812 54.7813 50.8125 54.5 47.4375C54.3125 45.4687 55.0625 43.625 56.375 42.3437C57.5312 41.1562 59.125 40.4688 60.875 40.4688Z" fill="#FFB54A"/>
<path d="M17.1875 43.75C13.5937 43.75 10.2812 45.1249 7.8125 47.3749C7.25 47.8749 6.71875 48.4062 6.25 49C4.28125 51.4062 3.125 54.4687 3.125 57.8125C3.125 65.5937 9.4375 71.875 17.1875 71.875C20.5625 71.875 23.625 70.6875 26.0625 68.75C28.0312 67.0937 29.5938 64.9687 30.4375 62.5C30.9688 61.0312 31.25 59.4687 31.25 57.8125C31.25 50.0625 24.9687 43.75 17.1875 43.75ZM25.625 55.0938C25.625 56.0625 24.8437 56.8125 23.9062 56.8125C22.9687 56.8125 22.1875 56.0625 22.1875 55.0938V54.7501C22.1875 54.3751 21.9062 54.0625 21.5312 54.0625H14.4688C14.8125 54.7187 14.75 55.5313 14.1875 56.0938C13.875 56.4063 13.4375 56.5937 12.9687 56.5937C12.5312 56.5937 12.0938 56.4063 11.7813 56.0938L9.25002 53.5625C9.09377 53.4063 8.96874 53.2188 8.87499 53.0001C8.71874 52.5938 8.71874 52.1249 8.87499 51.6874C8.96874 51.4999 9.09377 51.2812 9.25002 51.125L11.7813 48.625C12.4375 47.9375 13.5312 47.9375 14.1875 48.625C14.75 49.1562 14.8125 50 14.4688 50.625H21.5312C23.7812 50.625 25.625 52.4688 25.625 54.7501V55.0938ZM21.4063 67.4999C20.9375 67.4999 20.5 67.3438 20.1875 67C19.625 66.4688 19.5625 65.625 19.9062 65H12.8438C10.5938 65 8.75001 63.1562 8.75001 60.8749V60.5312C8.75001 59.5625 9.53127 58.8125 10.4688 58.8125C11.4063 58.8125 12.1875 59.5625 12.1875 60.5312V60.8749C12.1875 61.2499 12.4688 61.5625 12.8438 61.5625H19.9062C19.5625 60.9063 19.625 60.0937 20.1875 59.5312C20.8438 58.875 21.9375 58.875 22.5937 59.5312L25.125 62.0624C25.2812 62.2187 25.4063 62.4062 25.5 62.6249C25.6563 63.0312 25.6563 63.5001 25.5 63.9376C25.4063 64.1251 25.2812 64.3438 25.125 64.5L22.5937 67C22.2812 67.3438 21.8438 67.4999 21.4063 67.4999Z" fill="#FFB54A"/>
<path d="M46.4063 12.3443V24.2193H19.5625C13.0937 24.2193 7.8125 29.5006 7.8125 35.9693V24.5006C7.8125 20.7819 10.0937 17.4692 13.5625 16.1567L38.375 6.78173C42.25 5.34423 46.4063 8.18807 46.4063 12.3443Z" fill="#FFB54A"/>
<path d="M70.5011 43.6561V50.0938C70.5011 51.8125 69.1261 53.2187 67.3761 53.2812H61.2512C57.8762 53.2812 54.7824 50.8124 54.5012 47.4374C54.3137 45.4687 55.0636 43.6249 56.3761 42.3437C57.5324 41.1562 59.1261 40.4688 60.8761 40.4688H67.3761C69.1261 40.5312 70.5011 41.9374 70.5011 43.6561Z" fill="#FFB54A"/>
<path d="M43.75 39.8438H21.875C20.5938 39.8438 19.5312 38.7812 19.5312 37.5C19.5312 36.2188 20.5938 35.1562 21.875 35.1562H43.75C45.0312 35.1562 46.0938 36.2188 46.0938 37.5C46.0938 38.7812 45.0312 39.8438 43.75 39.8438Z" fill="#FFB54A"/>
</svg>
