<svg width="75" height="75" viewBox="0 0 75 75" fill="none" xmlns="http://www.w3.org/2000/svg">
<path d="M15.625 46.875C12.6875 46.875 9.96875 47.9063 7.8125 49.625C4.9375 51.9063 3.125 55.4375 3.125 59.375C3.125 61.7188 3.78126 63.9375 4.93751 65.8125C7.09376 69.4375 11.0625 71.875 15.625 71.875C18.7812 71.875 21.6563 70.7188 23.8438 68.75C24.8125 67.9375 25.6562 66.9375 26.3125 65.8125C27.4687 63.9375 28.125 61.7188 28.125 59.375C28.125 52.4688 22.5312 46.875 15.625 46.875ZM22.0938 58.0313L15.4375 64.1874C15 64.5937 14.4062 64.8125 13.8437 64.8125C13.25 64.8125 12.6562 64.5938 12.1875 64.1251L9.09376 61.0313C8.18751 60.1251 8.18751 58.6249 9.09376 57.7187C10 56.8124 11.5 56.8124 12.4063 57.7187L13.9062 59.2188L18.9063 54.5937C19.8438 53.7187 21.3438 53.7813 22.2188 54.7188C23.0938 55.6563 23.0313 57.1563 22.0938 58.0313Z" fill="#159F46"/>
<path opacity="0.4" d="M60.875 40.4688H67.1875V35.9688C67.1875 29.5 61.9063 24.2188 55.4375 24.2188H19.5625C13.0937 24.2188 7.8125 29.5 7.8125 35.9688V49.625C9.96875 47.9063 12.6875 46.875 15.625 46.875C22.5312 46.875 28.125 52.4688 28.125 59.375C28.125 61.7188 27.4687 63.9375 26.3125 65.8125C25.6562 66.9375 24.8125 67.9375 23.8438 68.75H55.4375C61.9063 68.75 67.1875 63.4687 67.1875 57V53.2812H61.25C57.875 53.2812 54.7813 50.8125 54.5 47.4375C54.3125 45.4687 55.0625 43.625 56.375 42.3437C57.5312 41.1562 59.125 40.4688 60.875 40.4688Z" fill="#159F46"/>
<path d="M46.4063 12.3443V24.2193H19.5625C13.0937 24.2193 7.8125 29.5006 7.8125 35.9693V24.5006C7.8125 20.7819 10.0937 17.4692 13.5625 16.1567L38.375 6.78173C42.25 5.34423 46.4063 8.18807 46.4063 12.3443Z" fill="#159F46"/>
<path d="M70.5012 43.6561V50.0938C70.5012 51.8126 69.1262 53.2187 67.3762 53.2812H61.2512C57.8762 53.2812 54.7824 50.8124 54.5012 47.4374C54.3137 45.4687 55.0636 43.6249 56.3761 42.3437C57.5324 41.1562 59.1261 40.4688 60.8761 40.4688H67.3762C69.1262 40.5312 70.5012 41.9374 70.5012 43.6561Z" fill="#159F46"/>
<path d="M43.75 39.8438H21.875C20.5938 39.8438 19.5312 38.7812 19.5312 37.5C19.5312 36.2188 20.5938 35.1562 21.875 35.1562H43.75C45.0312 35.1562 46.0938 36.2188 46.0938 37.5C46.0938 38.7812 45.0312 39.8438 43.75 39.8438Z" fill="#159F46"/>
</svg>
