<svg width="75" height="75" viewBox="0 0 75 75" fill="none" xmlns="http://www.w3.org/2000/svg">
<path d="M68.75 18.75V26.3125C68.75 31.25 65.625 34.375 60.6875 34.375H50V12.5313C50 9.0625 52.8438 6.25 56.3125 6.25C59.7188 6.28125 62.8438 7.65625 65.0938 9.90625C67.3438 12.1875 68.75 15.3125 68.75 18.75Z" fill="#392C7D"/>
<path opacity="0.4" d="M6.25 21.875V65.625C6.25 68.2188 9.18752 69.6875 11.25 68.125L16.5937 64.125C17.8437 63.1875 19.5938 63.3125 20.7188 64.4375L25.9062 69.6563C27.125 70.875 29.125 70.875 30.3438 69.6563L35.5937 64.4062C36.6875 63.3125 38.4375 63.1875 39.6563 64.125L45 68.125C47.0625 69.6562 50 68.1875 50 65.625V12.5C50 9.0625 52.8125 6.25 56.25 6.25H21.875H18.75C9.375 6.25 6.25 11.8438 6.25 18.75V21.875Z" fill="#392C7D"/>
<path d="M37.5 30.4688H18.75C17.4688 30.4688 16.4062 29.4062 16.4062 28.125C16.4062 26.8438 17.4688 25.7812 18.75 25.7812H37.5C38.7812 25.7812 39.8438 26.8438 39.8438 28.125C39.8438 29.4062 38.7812 30.4688 37.5 30.4688Z" fill="#392C7D"/>
<path d="M35.1562 42.9688H21.0938C19.8125 42.9688 18.75 41.9062 18.75 40.625C18.75 39.3438 19.8125 38.2812 21.0938 38.2812H35.1562C36.4375 38.2812 37.5 39.3438 37.5 40.625C37.5 41.9062 36.4375 42.9688 35.1562 42.9688Z" fill="#392C7D"/>
</svg>
