<svg width="39" height="41" viewBox="0 0 39 41" fill="none" xmlns="http://www.w3.org/2000/svg">
<path d="M19.375 0.819824C18.7926 0.819824 18.2104 0.957121 17.7079 1.23315L1.89711 10.0059C0.876049 10.5733 0.23938 11.6476 0.23938 12.7824V28.6985C0.23938 29.8487 0.876049 30.9076 1.89711 31.475L6.04768 33.7753C8.05789 34.7261 8.77471 34.7247 9.68409 34.7247C12.6675 34.7247 14.3737 32.9921 14.3737 29.9864V13.5641C14.3737 13.3188 14.1678 13.1178 13.9126 13.1178H11.9183C11.6471 13.1178 11.454 13.3188 11.454 13.5641V29.9715C11.454 31.321 10.0039 32.6394 7.65867 31.52L3.31803 29.1119C3.15848 29.0352 3.06251 28.8672 3.06251 28.6985V12.7974C3.06251 12.6133 3.15848 12.4581 3.31803 12.3661L19.1288 3.59631C19.2724 3.5043 19.4647 3.5043 19.6243 3.59631L35.435 12.3661C35.5946 12.4581 35.6905 12.6137 35.6905 12.7824V28.6985C35.6905 28.8672 35.5942 29.0352 35.4506 29.1119L19.6243 37.8996C19.4807 37.9763 19.2724 37.9763 19.1288 37.8996L15.0593 35.5843C14.9476 35.5077 14.7908 35.4931 14.6791 35.5544C13.5464 36.1678 13.339 36.244 12.286 36.5967C12.0307 36.6734 11.6316 36.8263 12.4293 37.2556L17.7079 40.2627C18.2184 40.5388 18.7944 40.6911 19.3687 40.6911C19.959 40.6911 20.5315 40.5388 21.0421 40.2627L36.8715 31.475C37.8926 30.9076 38.5293 29.8487 38.5293 28.6985V12.7974C38.5293 11.6472 37.8926 10.5883 36.8715 10.0209L21.0421 1.23315C20.5395 0.957121 19.9573 0.819824 19.375 0.819824ZM23.6284 13.0969C19.1133 13.0969 16.4179 14.9359 16.4179 18.0029C16.4179 21.3306 19.0956 22.2493 23.4352 22.6633C28.6203 23.1541 29.0191 23.8923 29.0191 24.8737C29.0191 26.5606 27.6016 27.2818 24.2672 27.2818C20.0712 27.2818 19.1453 26.2683 18.8421 24.2747C18.8102 24.06 18.6199 23.9063 18.3965 23.9063H16.3368C16.0816 23.9063 15.8912 24.1076 15.8912 24.3376C15.8912 26.8986 17.3431 29.9475 24.2672 29.9475C29.2767 29.9475 32.1476 28.0484 32.1476 24.736C32.1476 21.4543 29.8339 20.5785 24.9838 19.9497C20.054 19.3363 19.5588 19.0142 19.5588 17.9101C19.5588 16.99 19.9908 15.7805 23.6284 15.7805C26.867 15.7805 28.0789 16.4531 28.5735 18.554C28.6214 18.7534 28.7958 18.9074 29.0191 18.9074H31.0788C31.2064 18.9074 31.3165 18.8467 31.4122 18.7547C31.492 18.678 31.5404 18.5543 31.5244 18.4162C31.2053 14.7972 28.7018 13.0969 23.6284 13.0969Z" fill="black"/>
</svg>
