<svg width="40" height="42" viewBox="0 0 40 42" fill="none" xmlns="http://www.w3.org/2000/svg">
<path d="M19.8277 0.826814C19.722 0.823582 19.6166 0.840046 19.5167 0.8754L1.30117 7.34767C1.1133 7.41439 0.953479 7.5448 0.84833 7.71719C0.743182 7.88957 0.699049 8.09352 0.72328 8.29509L3.60085 32.3917C3.61766 32.5323 3.66715 32.6668 3.74521 32.7839C3.82326 32.901 3.92762 32.9974 4.04956 33.065L19.4062 41.5865C19.5343 41.6576 19.6779 41.6947 19.8237 41.6944C19.9695 41.6941 20.1129 41.6564 20.2408 41.5848L35.6773 32.947C35.7984 32.8792 35.902 32.7829 35.9794 32.6661C36.0568 32.5493 36.1059 32.4154 36.1226 32.2755L39.0002 8.18056C39.0245 7.97807 38.9799 7.7732 38.8737 7.60036C38.7675 7.42753 38.6063 7.29725 38.4172 7.23141L20.0827 0.873665C20.0005 0.845151 19.9145 0.82936 19.8277 0.826814ZM19.8073 2.65571L37.1866 8.68203L34.4484 31.6091L19.8209 39.7941L5.27504 31.7219L2.53514 8.79135L19.8073 2.65571ZM19.8923 4.38049C19.7215 4.37448 19.5526 4.41999 19.4069 4.51134C19.2612 4.60268 19.1451 4.73581 19.0731 4.89411L7.75998 29.7698C7.69831 29.9052 7.67104 30.0542 7.68069 30.2032C7.69034 30.3521 7.7366 30.4962 7.81519 30.6221C7.89379 30.748 8.00218 30.8516 8.13037 30.9235C8.25856 30.9953 8.40241 31.033 8.54863 31.0331H12.4103C12.576 31.033 12.7383 30.9846 12.878 30.8936C13.0177 30.8026 13.1291 30.6728 13.199 30.5194L15.3865 25.7095H24.337L26.5245 30.5194C26.5944 30.6728 26.7058 30.8026 26.8455 30.8936C26.9852 30.9846 27.1474 31.033 27.3132 31.0331H31.1748C31.3211 31.033 31.4649 30.9953 31.5931 30.9235C31.7213 30.8516 31.8297 30.748 31.9083 30.6221C31.9869 30.4962 32.0331 30.3521 32.0428 30.2032C32.0524 30.0542 32.0252 29.9052 31.9635 29.7698L20.6504 4.89411C20.5827 4.74544 20.4761 4.61877 20.3423 4.52812C20.2085 4.43747 20.0528 4.38638 19.8923 4.38049ZM19.8617 7.37717L29.8117 29.2562H27.869L25.6815 24.4463C25.6115 24.2929 25.5002 24.1631 25.3605 24.0721C25.2208 23.9811 25.0585 23.9327 24.8928 23.9326H14.8307C14.665 23.9327 14.5027 23.9811 14.363 24.0721C14.2233 24.1631 14.1119 24.2929 14.042 24.4463L11.8528 29.2562H9.91178L19.8617 7.37717ZM19.8957 12.8205C19.7236 12.8137 19.5534 12.8593 19.4067 12.9513C19.2599 13.0433 19.1433 13.1778 19.0714 13.3376L15.655 20.8995C15.594 21.0349 15.5674 21.1837 15.5775 21.3323C15.5876 21.4809 15.6341 21.6245 15.7128 21.75C15.7915 21.8754 15.8999 21.9787 16.0279 22.0502C16.1559 22.1217 16.2995 22.1592 16.4454 22.1593H23.2781C23.424 22.1592 23.5676 22.1217 23.6956 22.0502C23.8236 21.9787 23.9319 21.8754 24.0106 21.75C24.0893 21.6245 24.1359 21.4809 24.146 21.3323C24.1561 21.1837 24.1294 21.0349 24.0685 20.8995L20.6521 13.3376C20.5851 13.1885 20.4789 13.0613 20.3454 12.97C20.2119 12.8788 20.0563 12.827 19.8957 12.8205ZM19.8617 15.8293L21.9184 20.3824H17.8051L19.8617 15.8293Z" fill="black"/>
</svg>
