<svg width="39" height="41" viewBox="0 0 39 41" fill="none" xmlns="http://www.w3.org/2000/svg">
<path d="M27.6587 0.829205C27.01 0.804327 26.331 0.933322 25.6502 1.18506C24.2885 1.68854 22.8617 2.6697 21.3974 4.0282C20.8235 4.5606 20.2444 5.16918 19.6634 5.81489C19.0952 5.18557 18.528 4.59147 17.9668 4.07083C16.5037 2.71342 15.0807 1.73374 13.7221 1.2314C12.3636 0.729057 11.0118 0.713491 9.90161 1.44454C8.7914 2.17559 8.12749 3.51756 7.82965 5.1106C7.53181 6.70363 7.563 8.60073 7.86215 10.7246C7.96606 11.4623 8.11588 12.2362 8.28467 13.0247C7.65029 13.244 7.03424 13.4745 6.46297 13.729C4.73891 14.497 3.31235 15.4158 2.27354 16.5091C1.23472 17.6024 0.563965 18.9294 0.563965 20.3864C0.563965 21.8435 1.23472 23.1686 2.27354 24.2619C3.31235 25.3553 4.73891 26.2759 6.46297 27.0439C7.07382 27.316 7.73518 27.561 8.41792 27.7927C8.17234 28.8392 7.97337 29.8548 7.83777 30.8175C7.53838 32.943 7.50676 34.8404 7.80527 36.437C8.10379 38.0337 8.76804 39.3832 9.88374 40.1179C10.9994 40.8526 12.3573 40.8345 13.7189 40.3311C15.0805 39.8276 16.5058 38.8483 17.9701 37.4898C18.5387 36.9623 19.1138 36.3605 19.6894 35.7216C20.2678 36.364 20.8457 36.9692 21.4169 37.499C22.88 38.8564 24.3046 39.8361 25.6632 40.3385C27.0217 40.8408 28.3719 40.8564 29.4821 40.1253C30.5923 39.3943 31.2562 38.0523 31.554 36.4593C31.8519 34.8662 31.8191 32.9691 31.5199 30.8453C31.3839 29.88 31.1848 28.8629 30.9381 27.8131C31.6434 27.5758 32.3257 27.3242 32.9548 27.0439C34.6789 26.2759 36.1055 25.3553 37.1443 24.2619C38.1831 23.1686 38.8538 21.8435 38.8538 20.3864C38.8538 18.9294 38.1831 17.6024 37.1443 16.5091C36.1055 15.4158 34.6789 14.497 32.9548 13.729C32.3754 13.4708 31.7499 13.2373 31.1055 13.0154C31.2757 12.2221 31.4267 11.4427 31.5313 10.7005C31.8307 8.57493 31.8623 6.67574 31.5638 5.07909C31.2653 3.48244 30.5994 2.13472 29.4837 1.40006C28.9258 1.03273 28.3075 0.854084 27.6587 0.829205ZM27.5824 2.76046C27.9894 2.77316 28.3367 2.88365 28.6338 3.07925C29.2279 3.47047 29.6671 4.23187 29.9013 5.48499C30.1356 6.7381 30.1275 8.43119 29.851 10.3947C29.7563 11.0669 29.6188 11.7794 29.4626 12.5094C27.7611 12.0424 25.8967 11.6957 23.9097 11.4919C22.9115 9.91453 21.8855 8.47963 20.8513 7.20496C21.3981 6.59624 21.9413 6.02693 22.4715 5.53503C23.8242 4.28011 25.1048 3.42621 26.1734 3.03106C26.7078 2.83349 27.1753 2.74777 27.5824 2.76046ZM11.7932 2.76602C12.2026 2.75299 12.6711 2.83848 13.207 3.03662C14.2788 3.43291 15.5616 4.28644 16.9154 5.54244C17.4349 6.02436 17.9662 6.58126 18.5015 7.1753C17.4599 8.46009 16.4267 9.91001 15.422 11.5012C13.442 11.7087 11.5843 12.0587 9.89024 12.528C9.73503 11.8014 9.59937 11.0918 9.5051 10.4225C9.22829 8.45729 9.22138 6.76211 9.45634 5.50537C9.69131 4.24864 10.134 3.48335 10.7336 3.08852C11.0335 2.89111 11.3838 2.77906 11.7932 2.76602ZM19.6894 8.57092C20.3671 9.41207 21.0452 10.3329 21.7175 11.3232C21.0568 11.2918 20.3881 11.2732 19.7089 11.2732C19.0162 11.2732 18.3347 11.2924 17.6613 11.3251C18.3338 10.3338 19.0115 9.41279 19.6894 8.57092ZM19.7089 13.1896C20.8404 13.1896 21.9432 13.2427 23.0159 13.3323C23.754 14.5415 24.4753 15.8242 25.1626 17.1819C25.7665 18.3749 26.313 19.566 26.8105 20.7423C26.3078 21.9342 25.7521 23.1415 25.1399 24.3509C24.6009 25.4155 24.0381 26.4267 23.4661 27.4016C22.2544 27.5171 20.9988 27.5814 19.7089 27.5814C18.3879 27.5814 17.1042 27.5133 15.8656 27.3924C15.3031 26.4314 14.7498 25.4338 14.2194 24.3861C13.6086 23.1794 13.0556 21.9762 12.5537 20.7868C13.0577 19.5906 13.6132 18.3789 14.2275 17.1652C14.9112 15.8146 15.6304 14.5393 16.3645 13.3361C17.4488 13.2443 18.5644 13.1896 19.7089 13.1896ZM25.1594 13.5696C26.5304 13.7647 27.8176 14.0359 29.0157 14.361C28.66 15.6906 28.222 17.0794 27.6912 18.5126C27.3466 17.755 26.9897 16.9947 26.6041 16.2329C26.137 15.3102 25.6513 14.4291 25.1594 13.5696ZM14.1707 13.5844C13.6888 14.4283 13.2147 15.2914 12.7569 16.1959C12.3663 16.9675 12.0019 17.7379 11.6534 18.5052C11.1273 17.0806 10.6918 15.6997 10.3388 14.3777C11.5283 14.0518 12.8086 13.7818 14.1707 13.5844ZM30.6619 14.8651C31.2517 15.0687 31.8213 15.2811 32.3438 15.5138C33.9331 16.2218 35.1903 17.0601 36.0051 17.9177C36.8199 18.7753 37.1735 19.5931 37.1735 20.3864C37.1735 21.1798 36.8199 21.9976 36.0051 22.8552C35.1903 23.7128 33.9331 24.5511 32.3438 25.2591C31.7632 25.5177 31.1252 25.7523 30.462 25.9745C29.9889 24.3055 29.385 22.5643 28.6663 20.7868C29.4926 18.746 30.1602 16.7563 30.6619 14.8651ZM8.72831 14.8744C9.22426 16.7466 9.88328 18.7167 10.6979 20.7367C9.97448 22.5246 9.36761 24.2757 8.89244 25.9541C8.25258 25.7377 7.63625 25.5095 7.07399 25.2591C5.48468 24.5511 4.22751 23.7128 3.41271 22.8552C2.59791 21.9976 2.24429 21.1798 2.24429 20.3864C2.24429 19.5931 2.59791 18.7753 3.41271 17.9177C4.22751 17.0601 5.48468 16.2218 7.07399 15.5138C7.58846 15.2846 8.14853 15.0753 8.72831 14.8744ZM19.7089 16.0272C17.4212 16.0272 15.5487 18.1627 15.5487 20.772C15.5487 23.3812 17.4212 25.5167 19.7089 25.5167C21.9967 25.5167 23.8691 23.3812 23.8691 20.772C23.8691 18.1627 21.9967 16.0272 19.7089 16.0272ZM19.7089 17.9251C21.0973 17.9251 22.205 19.1884 22.205 20.772C22.205 22.3555 21.0973 23.6188 19.7089 23.6188C18.3205 23.6188 17.2128 22.3555 17.2128 20.772C17.2128 19.1884 18.3205 17.9251 19.7089 17.9251ZM27.7124 23.0146C28.1487 24.1924 28.528 25.345 28.8467 26.4564C27.846 26.721 26.7806 26.944 25.6599 27.1199C25.9825 26.5328 26.3011 25.9348 26.6122 25.3202C27.0022 24.5499 27.3643 23.7806 27.7124 23.0146ZM11.6729 23.0164C12.0228 23.7872 12.3872 24.5599 12.7796 25.3351C13.0868 25.9419 13.4005 26.5343 13.7189 27.1143C12.6015 26.9376 11.5393 26.7139 10.5419 26.449C10.8591 25.341 11.2386 24.1908 11.6729 23.0164ZM10.0625 28.2913C11.5683 28.6981 13.2005 29.0106 14.9312 29.2143C16.0868 31.1205 17.2899 32.8324 18.5015 34.3297C17.9598 34.932 17.4229 35.4973 16.8975 35.9848C15.5449 37.2397 14.2627 38.0918 13.194 38.4869C12.1253 38.8821 11.3278 38.8299 10.7336 38.4387C10.1395 38.0475 9.702 37.2861 9.46772 36.033C9.23343 34.7799 9.23991 33.0886 9.51647 31.1251C9.64194 30.2344 9.82944 29.2806 10.0625 28.2913ZM29.3277 28.2987C29.5625 29.2935 29.7508 30.2518 29.877 31.1474C30.1538 33.1126 30.1607 34.8059 29.9257 36.0626C29.6908 37.3194 29.2496 38.0865 28.65 38.4813C28.0504 38.8762 27.2468 38.9295 26.1751 38.5332C25.1033 38.1369 23.8205 37.2816 22.4666 36.0256C21.9375 35.5346 21.3969 34.9666 20.8513 34.3593C22.0708 32.8564 23.2829 31.1352 24.446 29.218C26.1811 29.0157 27.8177 28.705 29.3277 28.2987ZM17.1023 29.4089C17.9566 29.462 18.8222 29.4978 19.7089 29.4978C20.5663 29.4978 21.4038 29.4641 22.231 29.4144C21.3854 30.7156 20.5235 31.8985 19.665 32.9637C18.8071 31.8962 17.9468 30.7112 17.1023 29.4089Z" fill="black"/>
</svg>
