<svg width="40" height="41" viewBox="0 0 40 41" fill="none" xmlns="http://www.w3.org/2000/svg">
<path d="M16.2304 0.819824V6.86092H8.57248V12.902H4.74351V18.9431H1.77607C1.41112 18.9525 1.10301 19.3632 1.03421 19.9248C1.03421 19.9248 0.914551 20.9584 0.914551 22.2657C0.914551 23.0964 0.968396 23.9978 1.05814 24.9087C1.01327 24.9276 0.953439 24.97 0.914551 24.9842H1.05814C1.2795 27.1694 1.78803 29.4961 2.63758 31.7049C2.64058 31.7144 2.63459 31.7332 2.63758 31.7427C2.64357 31.7663 2.65254 31.7946 2.66152 31.8182C2.7004 32.1061 2.80211 32.3609 2.94869 32.5356C2.96364 32.5497 2.98159 32.5639 2.99655 32.5733C3.23287 33.1114 3.48115 33.6494 3.76234 34.1591C5.81144 37.8876 9.13785 40.6911 13.933 40.6911C21.7615 40.6911 28.3814 35.4287 32.1206 24.9842H39.0845C38.2529 24.6538 36.4671 24.2102 36.7632 22.4923C35.7731 24.2999 33.8885 24.5264 32.4317 24.1158C32.7099 23.2851 32.9791 22.4403 33.2214 21.5483C35.435 21.4587 37.0235 20.3354 37.9119 18.9809C38.8841 17.4989 39.1803 15.847 39.1803 15.847C39.255 15.3845 39.1533 14.8984 38.917 14.6011C38.917 14.6011 36.9816 12.3734 34.0829 13.1286C33.2573 8.85731 31.1155 6.78541 31.1155 6.78541C30.957 6.6391 30.7715 6.58246 30.589 6.63438C30.4664 6.67685 30.3497 6.76653 30.254 6.89868C30.254 6.89868 29.7425 7.58774 29.3207 8.82428C28.8989 10.0608 28.51 11.9439 28.6506 14.3745C28.7164 15.512 28.9438 16.5927 29.2728 17.6216C29.0873 17.801 28.9797 17.952 28.6745 18.1502C28.0404 18.5655 27.116 18.9431 25.8028 18.9431H25.4199V12.902H21.591V0.819824H16.2304ZM17.762 3.23626H20.0594V6.86092H17.762V3.23626ZM10.1041 9.27736H12.4014V12.902H10.1041V9.27736ZM13.933 9.27736H16.2304V12.902H13.933V9.27736ZM17.762 9.27736H20.0594V12.902H17.762V9.27736ZM30.8523 9.54166C31.4206 10.2071 32.4497 11.5994 32.8146 14.6388C32.8535 14.9739 32.9791 15.2618 33.1616 15.4412C33.3441 15.6205 33.5654 15.6724 33.7718 15.5828C35.7252 14.7379 36.7812 15.4317 37.3615 15.9603C37.2508 16.3426 37.2688 16.5786 36.835 17.2441C36.138 18.306 34.9564 19.3773 32.7428 19.2452C32.4197 19.2263 32.1236 19.5283 32.0009 20.0003C31.6958 21.2038 31.3428 22.3176 30.9719 23.3984C30.8582 23.2946 30.7625 23.1719 30.6847 23.0586C29.6587 25.4042 23.7059 24.5075 23.2901 22.681C22.0068 25.0597 18.0192 25.0597 16.733 22.681C16.3172 24.5075 10.3404 25.4042 9.31434 23.0586C8.39599 24.4179 4.77044 25.2532 3.25979 22.4923C3.40338 23.3229 3.03245 23.8609 2.54186 24.2291C2.47904 23.54 2.44614 22.884 2.44614 22.2657C2.44614 21.7466 2.47007 21.6994 2.494 21.3595H25.8028C27.3105 21.3595 28.4412 20.9065 29.2489 20.3779C30.0565 19.8493 30.6309 19.2074 30.7087 19.1319C30.8941 18.9478 31.0198 18.6505 31.0557 18.3107C31.0916 17.9756 31.0347 17.6263 30.9001 17.3573C30.4753 16.4842 30.254 15.3892 30.1822 14.148C30.0715 12.1988 30.3617 10.8348 30.6608 9.95698C30.7625 9.65965 30.7685 9.721 30.8523 9.54166ZM6.2751 15.3185H8.57248V18.9431H6.2751V15.3185ZM10.1041 15.3185H12.4014V18.9431H10.1041V15.3185ZM13.933 15.3185H16.2304V18.9431H13.933V15.3185ZM17.762 15.3185H20.0594V18.9431H17.762V15.3185ZM21.591 15.3185H23.8883V18.9431H21.591V15.3185ZM2.63758 24.9842H30.3976C26.8827 33.942 21.0465 38.2746 13.933 38.2746C9.7451 38.2746 7.02893 36.0328 5.24607 33.0642C8.64427 33.319 11.2767 31.8937 11.2767 31.8937C11.6985 31.8088 12.0006 31.1999 11.9468 30.5345C11.8929 29.869 11.507 29.3923 11.0852 29.4773C11.0434 29.4867 11.0045 29.4961 10.9656 29.515C10.8998 29.5292 10.8369 29.5528 10.7741 29.5905C10.7741 29.5905 7.64216 31.2754 3.97772 30.4589C3.2897 28.6702 2.85595 26.7541 2.63758 24.9842ZM13.1672 27.4006C12.7454 27.4006 12.4014 27.9434 12.4014 28.6089C12.4014 29.2743 12.7454 29.8171 13.1672 29.8171C13.589 29.8171 13.933 29.2743 13.933 28.6089C13.933 28.4437 13.9241 28.2974 13.8852 28.1558C13.8313 28.3068 13.7147 28.4201 13.598 28.4201C13.4245 28.4201 13.2869 28.1652 13.2869 27.8915C13.2869 27.7074 13.3617 27.5611 13.4544 27.4762C13.3677 27.4242 13.2659 27.4006 13.1672 27.4006Z" fill="black"/>
</svg>
