<svg width="218" height="51" viewBox="0 0 218 51" fill="none" xmlns="http://www.w3.org/2000/svg">
<rect x="14.9614" y="22.4917" width="29.372" height="15.6689" rx="4" fill="#1CBEEF"/>
<path fill-rule="evenodd" clip-rule="evenodd" d="M14.948 7.35152C7.06635 11.0808 1.45982 13.9489 0.960337 14.5067C0.023258 15.553 -0.0786385 16.6312 0.638714 17.9091C1.54652 19.526 26.476 31.5 28.933 31.4992C29.9045 31.4989 32.2181 30.6128 36.589 28.567C40.0342 26.9546 42.8943 25.6784 42.9447 25.7311C42.9955 25.7838 43.0944 28.7504 43.1652 32.323C43.2697 37.5956 43.1996 38.8194 42.7935 38.8191C42.5182 38.8191 41.7264 39.379 41.0335 40.0634C39.7948 41.2868 39.7737 41.3611 39.7737 44.4734C39.7737 48.0804 40.3017 49.4814 41.9847 50.341C43.3686 51.0477 44.3524 51.0422 45.8956 50.3191C47.5586 49.5395 48.296 47.8692 48.296 44.8822C48.296 41.7282 47.5993 40.1007 45.9079 39.304L44.5906 38.6837V31.7796V24.8758L47.4623 23.5415C49.0415 22.8073 50.4173 22.1069 50.5192 21.9843C50.621 21.8617 51.9831 21.1674 53.5464 20.4409C56.9724 18.849 57.8339 17.8019 57.3407 15.8293C57.0039 14.484 56.9827 14.4715 43.6643 7.95319C36.3277 4.36261 29.8249 1.35797 29.2135 1.27599C28.3553 1.16144 25.1024 2.54665 14.948 7.35152ZM73.2314 9.2513C72.6963 9.39366 72.122 9.72304 71.9549 9.98324C71.7878 10.2431 71.6484 17.1578 71.6451 25.3487L71.6395 40.2416L72.4632 40.8111C73.1254 41.2693 74.4515 41.3809 79.2399 41.3809C87.6558 41.3809 90.7413 40.4821 94.2628 37.0038C101.279 30.0741 100.257 16.7885 92.319 11.7209C91.0521 10.9121 89.1743 10.0147 88.1457 9.7267C86.1141 9.15797 74.9217 8.80115 73.2314 9.2513ZM86.4983 15.0878C88.9553 15.9135 90.8691 17.609 92.0756 20.0296C93.159 22.2035 93.2112 22.5065 93.0586 25.7231C92.8711 29.669 92.1693 31.351 89.8446 33.4253C87.8482 35.2065 85.347 35.8913 80.8354 35.8913H77.1975V25.278V14.6648H81.2182C83.4295 14.6648 85.8054 14.8551 86.4983 15.0878ZM109.445 18.8815C108.738 19.197 107.861 19.7211 107.498 20.0464C107.133 20.3718 106.795 20.5701 106.745 20.4878C106.696 20.4051 106.471 20.008 106.247 19.6054C105.675 18.5818 102.449 18.3523 101.758 19.2859C101.398 19.7723 101.282 22.3963 101.282 30.0796C101.282 41.7088 101.228 41.498 104.19 41.3077C106.686 41.147 106.828 40.6863 106.835 32.7384C106.84 26.6098 106.898 26.0363 107.601 25.1532C108.713 23.7574 110.941 23.2516 112.585 24.0224C114.261 24.8081 115.563 24.4689 116.304 23.0525C117.602 20.5734 116.203 18.7747 112.747 18.4801C111.384 18.364 110.314 18.494 109.445 18.8815ZM125.047 18.6978C124.158 18.8819 122.574 19.507 121.527 20.0871C113.785 24.3763 114.202 36.6086 122.223 40.4846C126.813 42.7031 135.085 41.7201 136.996 38.729C137.506 37.9294 136.449 35.6977 135.436 35.436C135.031 35.3313 133.975 35.578 133.09 35.9839C130.803 37.0327 126.792 37.0646 124.832 36.049C123.147 35.1762 122.087 33.9081 121.945 32.5975L121.847 31.6826L129.072 31.4996C133.046 31.3989 136.523 31.1731 136.799 30.9975C137.47 30.5696 138.336 28.462 138.336 27.2536C138.336 24.3437 135.967 20.8552 133.051 19.4689C131.212 18.5946 127.347 18.2224 125.047 18.6978ZM205.231 18.861C200.448 20.1291 198.729 25.8175 202.1 29.2229C202.946 30.0774 204.209 30.693 206.792 31.5106C211.876 33.119 212.425 33.4641 212.437 35.0594C212.44 35.5385 212.043 36.1328 211.474 36.501C209.989 37.462 207.468 37.2501 204.661 35.9282C203.336 35.3042 201.97 34.7937 201.625 34.7937C200.777 34.7934 199.844 36.187 199.844 37.454C199.844 41.2656 210.229 43.1548 214.726 40.1615C216.791 38.7872 217.63 37.1934 217.628 34.6477C217.626 30.7574 215.966 29.1398 210.63 27.8281C206.877 26.9055 205.846 26.4491 205.57 25.5884C204.726 22.964 208.24 21.899 212.016 23.6348C214.457 24.7572 215.202 24.7755 215.941 23.7325C216.939 22.3264 216.681 21.0536 215.227 20.2067C212.185 18.4332 208.643 17.9567 205.231 18.861ZM146.219 19.2958C144.127 20.0274 141.317 22.5815 140.19 24.7763C138.806 27.4717 138.68 31.8586 139.911 34.5141C141.063 37.0002 142.786 38.9413 144.963 40.2054C146.441 41.0632 147.075 41.1972 149.637 41.1928C152.842 41.1873 154.061 40.7543 155.852 38.9852L156.864 37.9854L156.641 39.0877C156.462 39.9719 156.588 40.3082 157.278 40.7854C158.338 41.5192 160.184 41.5555 161.145 40.8619C161.822 40.3737 161.87 39.7614 161.961 30.5232C162.072 19.1443 162.03 18.9394 159.502 18.7593C157.579 18.6221 156.346 19.4821 156.598 20.7846C156.797 21.8144 156.675 21.8218 155.642 20.8424C153.484 18.7952 149.513 18.1437 146.219 19.2958ZM164.85 19.5041C164.363 20.1899 164.274 21.8075 164.278 29.8428C164.285 40.8813 164.341 41.1353 166.821 41.3121C169.655 41.5145 169.831 41.1134 169.831 34.4596C169.831 31.3195 169.994 28.1872 170.194 27.4991C171 24.7225 173.824 23.185 176.039 24.3166C177.949 25.2919 178.353 26.9864 178.353 34.012C178.353 39.5126 178.425 40.2343 179.031 40.7752C179.982 41.6254 182.252 41.5558 183.17 40.6489C183.851 39.9759 183.911 39.4291 183.911 33.8667C183.911 27.1924 184.222 25.8131 185.982 24.6745C187.438 23.7318 189.584 23.816 190.709 24.859C192.052 26.1059 192.433 28.249 192.433 34.5632C192.433 40.9659 192.589 41.3809 194.983 41.3809C197.66 41.3809 197.791 41.076 197.923 34.5489C198.061 27.7044 197.473 24.0941 195.848 21.8042C192.972 17.7521 186.776 17.5644 183.65 21.4346C183.08 22.1394 182.516 22.7162 182.396 22.7162C182.276 22.7162 181.987 22.3027 181.753 21.7969C181.52 21.2915 180.544 20.3857 179.583 19.784C176.655 17.9498 173.139 18.3549 170.456 20.8358C169.728 21.5089 169.488 21.6058 169.663 21.1575C169.805 20.7912 169.652 20.1222 169.307 19.6025C168.471 18.3417 165.717 18.281 164.85 19.5041ZM130.921 23.9949C133.023 25.0687 133.862 27.4369 132.411 28.2036C131.966 28.4389 129.731 28.5528 126.76 28.4909L121.847 28.3888L121.945 27.4739C122.081 26.2142 123.11 24.9318 124.632 24.1256C126.198 23.2963 129.421 23.2293 130.921 23.9949ZM153.793 25.1309C155.419 26.3562 156.121 27.8032 156.121 29.9318C156.121 33.4773 153.795 35.8913 150.378 35.8913C147.891 35.8913 146.227 34.8314 145.056 32.5013C144.347 31.0882 144.229 30.443 144.435 29.0878C144.737 27.0998 146.694 24.7313 148.476 24.1966C150.167 23.689 152.4 24.0817 153.793 25.1309ZM43.479 41.7688V43.621L42.0895 43.5072C40.8575 43.4065 40.7115 43.2916 40.8023 42.4923C40.9175 41.4768 42.2411 39.917 42.9877 39.917C43.3312 39.917 43.479 40.4751 43.479 41.7688ZM46.4162 40.8813C46.8386 41.4116 47.1844 42.2351 47.1844 42.7112C47.1844 43.4563 47.0039 43.5767 45.8875 43.5767H44.5906V41.7469C44.5906 39.6246 45.1894 39.3406 46.4162 40.8813Z" fill="#7B1FFE"/>
<path d="M184.886 12.0824C184.489 12.0824 184.181 11.9727 183.962 11.7534C183.753 11.5341 183.649 11.2313 183.649 10.8449V2.24474C183.649 1.83744 183.753 1.52936 183.962 1.3205C184.171 1.11163 184.474 1.0072 184.87 1.0072C185.257 1.0072 185.555 1.11163 185.763 1.3205C185.972 1.52936 186.077 1.83744 186.077 2.24474V10.0303H190.275C190.609 10.0303 190.865 10.119 191.043 10.2966C191.23 10.4741 191.324 10.7248 191.324 11.0485C191.324 11.3827 191.23 11.6386 191.043 11.8161C190.865 11.9936 190.609 12.0824 190.275 12.0824H184.886Z" fill="#1CBEEF"/>
<path d="M193.756 12.2234C193.401 12.2234 193.13 12.1242 192.942 11.9257C192.754 11.7273 192.66 11.4506 192.66 11.0955V2.02543C192.66 1.67035 192.759 1.3936 192.957 1.19518C193.166 0.996753 193.448 0.897541 193.803 0.897541C194.117 0.897541 194.362 0.960201 194.54 1.08552C194.728 1.2004 194.9 1.40404 195.057 1.69646L198.675 8.30712H198.143L201.761 1.69646C201.918 1.40404 202.085 1.2004 202.262 1.08552C202.45 0.960201 202.696 0.897541 202.999 0.897541C203.354 0.897541 203.625 0.996753 203.813 1.19518C204.012 1.3936 204.111 1.67035 204.111 2.02543V11.0955C204.111 11.4506 204.017 11.7273 203.829 11.9257C203.641 12.1242 203.369 12.2234 203.014 12.2234C202.659 12.2234 202.383 12.1242 202.184 11.9257C201.996 11.7273 201.902 11.4506 201.902 11.0955V4.75115H202.247L199.333 9.96761C199.208 10.166 199.072 10.3175 198.926 10.4219C198.79 10.5159 198.607 10.5629 198.378 10.5629C198.148 10.5629 197.96 10.5107 197.814 10.4062C197.667 10.3018 197.537 10.1556 197.422 9.96761L194.477 4.73548H194.853V11.0955C194.853 11.4506 194.759 11.7273 194.571 11.9257C194.393 12.1242 194.122 12.2234 193.756 12.2234Z" fill="#1CBEEF"/>
<path d="M210.298 12.2547C209.86 12.2547 209.411 12.2182 208.951 12.1451C208.502 12.0824 208.069 11.9884 207.651 11.8631C207.244 11.7378 206.878 11.5811 206.554 11.3931C206.325 11.2678 206.163 11.1059 206.069 10.9075C205.975 10.6987 205.938 10.4898 205.959 10.2809C205.99 10.072 206.069 9.88929 206.194 9.73264C206.33 9.56554 206.497 9.46111 206.695 9.41934C206.904 9.36712 207.134 9.40367 207.385 9.52899C207.813 9.76919 208.277 9.94673 208.779 10.0616C209.291 10.1765 209.797 10.2339 210.298 10.2339C211.061 10.2339 211.604 10.119 211.927 9.88929C212.251 9.64909 212.413 9.35145 212.413 8.99638C212.413 8.69352 212.298 8.45332 212.068 8.27579C211.839 8.09825 211.437 7.94682 210.862 7.8215L209.092 7.44554C208.09 7.23667 207.343 6.8816 206.852 6.38031C206.372 5.86859 206.131 5.20021 206.131 4.37519C206.131 3.85302 206.241 3.37784 206.46 2.94966C206.68 2.52149 206.988 2.15075 207.385 1.83744C207.781 1.52414 208.251 1.28395 208.794 1.11685C209.348 0.949758 209.954 0.866211 210.612 0.866211C211.196 0.866211 211.771 0.939315 212.335 1.08552C212.899 1.22129 213.395 1.42493 213.823 1.69646C214.032 1.82178 214.173 1.98365 214.246 2.18208C214.329 2.37006 214.356 2.56326 214.324 2.76168C214.303 2.94966 214.225 3.11676 214.089 3.26297C213.964 3.40917 213.802 3.50316 213.604 3.54494C213.405 3.58671 213.165 3.53972 212.883 3.40395C212.538 3.22641 212.173 3.09587 211.786 3.01232C211.4 2.92878 211.003 2.887 210.596 2.887C210.157 2.887 209.781 2.94444 209.468 3.05932C209.165 3.1742 208.93 3.33607 208.763 3.54494C208.606 3.7538 208.528 3.994 208.528 4.26553C208.528 4.56839 208.638 4.81381 208.857 5.00179C209.076 5.18977 209.458 5.3412 210.001 5.45608L211.771 5.83204C212.794 6.05135 213.557 6.40642 214.058 6.89726C214.559 7.37766 214.81 8.0147 214.81 8.8084C214.81 9.33057 214.705 9.80574 214.497 10.2339C214.288 10.6517 213.985 11.012 213.588 11.3148C213.191 11.6177 212.716 11.8526 212.162 12.0197C211.609 12.1764 210.988 12.2547 210.298 12.2547Z" fill="#1CBEEF"/>
</svg>
