<svg width="56" height="61" viewBox="0 0 56 61" fill="none" xmlns="http://www.w3.org/2000/svg">
<path d="M53.5151 6.76198H43.5233V2.29537C43.5233 1.61826 42.9397 1.03467 42.2626 1.03467H13.4913C12.8142 1.03467 12.2306 1.61826 12.2306 2.29537V6.76198H1.96932C1.61849 6.76198 1.28859 6.93487 1.05136 7.1721C0.785802 7.43766 0.708618 7.782 0.708618 8.09006C0.708618 8.31383 0.913576 12.6515 2.47177 17.6649L2.47175 17.6649L2.47262 17.6675C4.62696 24.3325 8.2656 29.1002 13.1503 31.3155C14.784 36.6531 18.4524 40.8845 23.0788 42.628V42.6561C23.0788 48.1196 18.9369 52.4457 13.6261 52.4457C12.949 52.4457 12.3654 53.0293 12.3654 53.7064V59.4337C12.3654 60.1108 12.949 60.6944 13.6261 60.6944H42.2626C42.9397 60.6944 43.5233 60.1108 43.5233 59.4337V53.7064C43.5233 53.0293 42.9397 52.4457 42.2626 52.4457C36.8895 52.4457 32.4958 48.0659 32.4731 42.6979C37.3004 40.9536 41.0389 36.6513 42.6731 31.1763C47.3537 28.8956 50.9243 24.199 53.0119 17.6673C54.5832 12.8222 54.7647 8.54652 54.7753 8.12073C54.8559 7.74096 54.6587 7.3977 54.4331 7.1721C54.1958 6.93487 53.8659 6.76198 53.5151 6.76198ZM5.37915 18.279C4.03633 14.6399 3.51585 11.1184 3.32377 9.28338H12.2306V25.2046C12.2306 26.1662 12.2777 27.0857 12.4122 28.0003C8.91589 25.7137 6.73441 21.9518 5.37915 18.279ZM29.9674 43.3534C30.369 49.4008 35.077 54.298 41.0019 54.8786V58.1056H14.8868V54.8784C20.7471 54.2977 25.2578 49.4567 25.5235 43.2859C26.2556 43.4042 27.0477 43.5125 27.8433 43.5125C28.5653 43.5125 29.2887 43.4597 29.9674 43.3534ZM31.3381 40.464L30.4736 40.73C29.6118 40.9284 28.7586 41.0585 27.9107 41.0585C26.9236 41.0585 25.938 40.927 25.0199 40.6653C24.9759 40.6505 24.9248 40.6324 24.8678 40.6121L24.8582 40.6086C24.7962 40.5866 24.7287 40.5626 24.6628 40.5407C24.5973 40.5188 24.5298 40.4977 24.4676 40.4819C24.4239 40.4708 24.372 40.4593 24.3204 40.4544C18.864 38.5956 14.752 32.5164 14.752 25.272V3.62345H41.0019V7.41626V8.69648V25.272C41.0019 32.5287 36.8759 38.6165 31.3381 40.464ZM50.2312 18.1369C48.9162 21.7532 46.7969 25.4848 43.3903 27.8578C43.4981 27.0052 43.5907 26.1061 43.5907 25.2046V9.28338H52.2281C52.0375 11.1112 51.5341 14.5538 50.2312 18.1369Z" fill="#FED700" stroke="#FED700" stroke-width="0.5" stroke-linecap="round" stroke-linejoin="round"/>
<path d="M28.8116 13.1393L28.8116 13.1393L28.811 13.1381C28.6128 12.7417 28.1718 12.4424 27.7112 12.4424C27.2662 12.4424 26.8134 12.6885 26.6087 13.1436L25.1953 16.0086L22.0635 16.4669C21.5991 16.5205 21.2081 16.8744 21.062 17.3128C20.9171 17.7474 21.0051 18.2552 21.3694 18.5722L23.659 20.7855L23.1246 23.9154C23.0232 24.3849 23.2384 24.8341 23.6184 25.1191C23.8167 25.2678 24.0676 25.3682 24.3658 25.3682C24.5567 25.3682 24.7612 25.3225 24.9283 25.216L27.8276 23.7664L30.5815 25.2198L30.5814 25.2199L30.5863 25.2223C30.9773 25.4178 31.4788 25.4227 31.8836 25.1191C32.2829 24.8196 32.4285 24.369 32.3804 23.9356C32.3798 23.9308 32.3792 23.926 32.3783 23.9212L31.843 20.7855L34.1377 18.5673L34.1377 18.5673L34.1407 18.5643C34.4866 18.2184 34.5894 17.7608 34.44 17.3128C34.4352 17.2982 34.4289 17.284 34.4214 17.2705C34.2054 16.8817 33.8706 16.5205 33.3576 16.4667L30.227 16.0086L28.8116 13.1393ZM30.0542 20.6241L30.5226 23.2676L28.2251 22.0689L28.2251 22.0689L28.2212 22.0669C27.9851 21.9489 27.7097 21.9581 27.459 22.0584C27.4526 22.061 27.4463 22.0638 27.4401 22.0669L24.9365 23.3187L25.4081 20.6238C25.4648 20.3338 25.3501 20.0538 25.1798 19.8835L25.1782 19.8819L23.2648 18.0021L25.9167 17.5992L25.9167 17.5995L25.9282 17.5972C26.1957 17.5437 26.4235 17.3799 26.5409 17.1453L26.5409 17.1453L26.5421 17.1428L27.7112 14.7378L28.8803 17.1428L28.8802 17.1428L28.8815 17.1453C28.9781 17.3386 29.1972 17.5912 29.522 17.6017L32.163 18.0029L30.2936 19.8723C30.0448 20.0698 30.0052 20.3752 30.0542 20.6241Z" fill="#FED700" stroke="#FED700" stroke-width="0.5" stroke-linecap="round" stroke-linejoin="round"/>
</svg>
