<svg width="34" height="34" viewBox="0 0 34 34" fill="none" xmlns="http://www.w3.org/2000/svg">
<path d="M28.898 8.02881H21.5761V9.85927H28.898V29.0792H21.5761V30.9096H30.7284V9.85927C30.7284 9.3738 30.5356 8.90822 30.1923 8.56494C29.849 8.22166 29.3834 8.02881 28.898 8.02881Z" fill="#DEDEDE"/>
<path d="M18.7207 3.45264H6.12712C5.61252 3.45264 5.119 3.65706 4.75513 4.02094C4.39125 4.38481 4.18683 4.87833 4.18683 5.39293V30.9096H20.661V5.39293C20.661 4.87833 20.4566 4.38481 20.0927 4.02094C19.7288 3.65706 19.2353 3.45264 18.7207 3.45264ZM18.8305 29.0791H16.0848V26.3334H8.76299V29.0791H6.01729V5.39293C6.01729 5.37851 6.02013 5.36423 6.02565 5.3509C6.03117 5.33758 6.03926 5.32547 6.04946 5.31527C6.05966 5.30507 6.07177 5.29698 6.08509 5.29146C6.09842 5.28594 6.1127 5.2831 6.12712 5.2831H18.7207C18.7351 5.2831 18.7494 5.28594 18.7627 5.29146C18.7761 5.29698 18.7882 5.30507 18.7984 5.31527C18.8086 5.32547 18.8167 5.33758 18.8222 5.3509C18.8277 5.36423 18.8305 5.37851 18.8305 5.39293V29.0791Z" fill="#DEDEDE"/>
<path d="M7.8476 8.02881H9.67806V9.85927H7.8476V8.02881Z" fill="#DEDEDE"/>
<path d="M11.5086 8.02881H13.3391V9.85927H11.5086V8.02881Z" fill="#DEDEDE"/>
<path d="M15.1696 8.02881H17.0001V9.85927H15.1696V8.02881Z" fill="#DEDEDE"/>
<path d="M7.8476 12.6055H9.67806V14.4359H7.8476V12.6055Z" fill="#DEDEDE"/>
<path d="M11.5086 12.6055H13.3391V14.4359H11.5086V12.6055Z" fill="#DEDEDE"/>
<path d="M15.1696 12.6055H17.0001V14.4359H15.1696V12.6055Z" fill="#DEDEDE"/>
<path d="M7.8476 17.1812H9.67806V19.0116H7.8476V17.1812Z" fill="#DEDEDE"/>
<path d="M11.5086 17.1812H13.3391V19.0116H11.5086V17.1812Z" fill="#DEDEDE"/>
<path d="M15.1696 17.1812H17.0001V19.0116H15.1696V17.1812Z" fill="#DEDEDE"/>
<path d="M7.8476 21.7568H9.67806V23.5873H7.8476V21.7568Z" fill="#DEDEDE"/>
<path d="M11.5086 21.7568H13.3391V23.5873H11.5086V21.7568Z" fill="#DEDEDE"/>
<path d="M15.1696 21.7568H17.0001V23.5873H15.1696V21.7568Z" fill="#DEDEDE"/>
<path d="M21.5761 12.6055H23.4066V14.4359H21.5761V12.6055Z" fill="#DEDEDE"/>
<path d="M25.2371 12.6055H27.0675V14.4359H25.2371V12.6055Z" fill="#DEDEDE"/>
<path d="M21.5761 17.1812H23.4066V19.0116H21.5761V17.1812Z" fill="#DEDEDE"/>
<path d="M25.2371 17.1812H27.0675V19.0116H25.2371V17.1812Z" fill="#DEDEDE"/>
<path d="M21.5761 21.7568H23.4066V23.5873H21.5761V21.7568Z" fill="#DEDEDE"/>
<path d="M25.2371 21.7568H27.0675V23.5873H25.2371V21.7568Z" fill="#DEDEDE"/>
</svg>
