<svg width="35" height="27" viewBox="0 0 35 27" fill="none" xmlns="http://www.w3.org/2000/svg">
<path d="M24.5315 11.1575H9.85663C9.68848 11.1575 9.5509 11.2891 9.5509 11.45V26.1512C9.5509 26.3121 9.68848 26.4438 9.85663 26.4438H24.5315C24.6996 26.4438 24.8372 26.3121 24.8372 26.1512V11.45C24.8372 11.2891 24.6996 11.1575 24.5315 11.1575ZM11.9967 13.498H22.3914V17.7767H11.9967V13.498ZM22.3914 24.1033H11.9967V19.8246H22.3914V24.1033Z" fill="#0DD3A3"/>
<path d="M14.2032 22.5555C14.2032 22.8819 14.3083 23.1948 14.4952 23.4255C14.6822 23.6563 14.9357 23.7859 15.2002 23.7859C15.4646 23.7859 15.7181 23.6563 15.9051 23.4255C16.0921 23.1948 16.1971 22.8819 16.1971 22.5555C16.1971 22.2292 16.0921 21.9163 15.9051 21.6855C15.7181 21.4548 15.4646 21.3252 15.2002 21.3252C14.9357 21.3252 14.6822 21.4548 14.4952 21.6855C14.3083 21.9163 14.2032 22.2292 14.2032 22.5555ZM14.2032 15.7116C14.2032 16.0379 14.3083 16.3508 14.4952 16.5816C14.6822 16.8123 14.9357 16.942 15.2002 16.942C15.4646 16.942 15.7181 16.8123 15.9051 16.5816C16.0921 16.3508 16.1971 16.0379 16.1971 15.7116C16.1971 15.3853 16.0921 15.0723 15.9051 14.8416C15.7181 14.6108 15.4646 14.4812 15.2002 14.4812C14.9357 14.4812 14.6822 14.6108 14.4952 14.8416C14.3083 15.0723 14.2032 15.3853 14.2032 15.7116Z" fill="#0DD3A3"/>
<path d="M28.5203 8.08662C26.7877 3.66743 22.373 0.523926 17.2016 0.523926C12.0303 0.523926 7.61557 3.66378 5.88296 8.08297C2.62582 8.91271 0.227412 11.7894 0.246327 15.2034C0.269025 19.0195 3.33324 22.1228 7.19187 22.4554C7.36967 22.47 7.52099 22.3348 7.52099 22.163V19.9552C7.52099 19.809 7.4075 19.6847 7.25618 19.6664C6.23478 19.5422 5.27012 19.1108 4.52866 18.4054C3.62074 17.5464 3.12139 16.3913 3.12139 15.1668C3.12139 14.1434 3.46564 13.1784 4.11253 12.3742C4.74429 11.592 5.63329 11.0254 6.61308 10.7769L8.04683 10.4114L8.57266 9.06988C8.898 8.23649 9.35195 7.45427 9.92318 6.7488C10.4868 6.047 11.1564 5.43292 11.9055 4.92118C13.4603 3.86482 15.2912 3.30557 17.2016 3.30557C19.112 3.30557 20.943 3.86482 22.4978 4.92484C23.2506 5.43657 23.9164 6.05065 24.4801 6.75246C25.0513 7.45792 25.5053 8.24014 25.8306 9.07354L26.3527 10.4114L27.7826 10.7769C29.833 11.3032 31.2667 13.1053 31.2667 15.1632C31.2667 16.3913 30.7674 17.5427 29.8595 18.4017C29.1218 19.1035 28.1609 19.5385 27.1395 19.6628C26.9882 19.6811 26.8785 19.8053 26.8785 19.9515V22.163C26.8785 22.3348 27.0336 22.47 27.2114 22.4554C31.0587 22.1191 34.1153 19.0195 34.1418 15.2107C34.1645 11.7967 31.7699 8.92002 28.5203 8.08662Z" fill="#0DD3A3"/>
</svg>
