<svg width="111" height="84" viewBox="0 0 111 84" fill="none" xmlns="http://www.w3.org/2000/svg">
<g filter="url(#filter0_d_158_14)">
<path d="M24.7529 42.0046C25.6697 40.5573 27.2636 39.6802 28.9768 39.6802H77.9249C79.385 39.6802 80.772 40.3183 81.7219 41.427L95.0018 56.927C97.7808 60.1706 95.4761 65.1802 91.2049 65.1802H19.1587C15.2179 65.1802 12.8261 60.8337 14.9348 57.5046L24.7529 42.0046Z" fill="#FED700"/>
</g>
<path d="M52.0675 20.8949C57.6825 20.8949 62.2708 16.3066 62.2708 10.6915C62.2708 5.07568 57.6817 0.547949 52.0675 0.547949C46.4532 0.547949 41.8641 5.07568 41.8641 10.6915C41.8641 16.3066 46.4524 20.8949 52.0675 20.8949ZM52.0675 2.54144C56.5567 2.54144 60.2773 6.20416 60.2773 10.6915C60.2773 15.1803 56.6151 18.9014 52.0675 18.9014C47.5199 18.9014 43.8576 15.1803 43.8576 10.6915C43.8576 6.20369 47.5189 2.54144 52.0675 2.54144Z" fill="#0D0D0D" stroke="#0D0D0D" stroke-width="0.2" stroke-linecap="round" stroke-linejoin="round"/>
<path d="M70.9043 16.1153L70.9034 16.1145C70.1682 15.5019 69.2454 15.192 68.3185 15.3146C67.3957 15.377 66.5347 15.8083 65.9201 16.5458C64.6899 18.022 64.8732 20.2969 66.3509 21.5287C66.3511 21.5288 66.3512 21.529 66.3514 21.5291L68.8016 23.6207L68.8032 23.6221C69.4764 24.1729 70.2754 24.4816 71.0785 24.4816C71.725 24.4816 72.3737 24.3129 72.916 23.9729L74.685 25.856V39.0481H69.8007C69.5095 29.6534 61.7742 22.1294 52.3664 22.1294C42.8995 22.1294 35.1635 29.6528 34.9314 39.0481H32.8173C32.2838 39.0481 31.8205 39.5113 31.8205 40.0448V49.8492C31.8205 50.3827 32.2838 50.846 32.8173 50.846H79.3285C79.862 50.846 80.3253 50.3827 80.3253 49.8492V40.0448H80.3261L80.3245 40.0324C80.2594 39.5113 79.8044 39.0481 79.2688 39.0481H76.6785V25.3979C76.6785 25.1547 76.6199 24.8746 76.4052 24.724L74.2481 22.392C74.9446 20.9848 74.5672 19.2377 73.3552 18.2076L70.9043 16.1153ZM67.6162 20.0012L67.6153 20.0004C66.9431 19.4403 66.8839 18.4875 67.4487 17.8097C67.7283 17.4742 68.0611 17.3056 68.5141 17.2479H68.5145H68.5148H68.5152H68.5155H68.5159H68.5162H68.5166H68.5169H68.5173H68.5176H68.5179H68.5183H68.5186H68.519H68.5193H68.5197H68.52H68.5204H68.5207H68.5211H68.5214H68.5218H68.5221H68.5225H68.5228H68.5232H68.5235H68.5239H68.5242H68.5246H68.5249H68.5253H68.5256H68.526H68.5263H68.5266H68.527H68.5273H68.5277H68.528H68.5284H68.5287H68.5291H68.5294H68.5298H68.5301H68.5304H68.5308H68.5311H68.5315H68.5318H68.5322H68.5325H68.5329H68.5332H68.5335H68.5339H68.5342H68.5346H68.5349H68.5353H68.5356H68.5359H68.5363H68.5366H68.537H68.5373H68.5376H68.538H68.5383H68.5387H68.539H68.5393H68.5397H68.54H68.5404H68.5407H68.541H68.5414H68.5417H68.542H68.5424H68.5427H68.5431H68.5434H68.5437H68.5441H68.5444H68.5447H68.5451H68.5454H68.5457H68.5461H68.5464H68.5467H68.5471H68.5474H68.5477H68.5481H68.5484H68.5487H68.5491H68.5494H68.5497H68.5501H68.5504H68.5507H68.551H68.5514H68.5517H68.552H68.5524H68.5527H68.553H68.5533H68.5537H68.554H68.5543H68.5546H68.555H68.5553H68.5556H68.5559H68.5563H68.5566H68.5569H68.5572H68.5576H68.5579H68.5582H68.5585H68.5588H68.5592H68.5595H68.5598H68.5601H68.5604H68.5608H68.5611H68.5614H68.5617H68.562H68.5623H68.5627H68.563H68.5633H68.5636H68.5639H68.5642H68.5645H68.5648H68.5652H68.5655H68.5658H68.5661H68.5664H68.5667H68.567H68.5673H68.5676H68.5679H68.5683H68.5686H68.5689H68.5692H68.5695H68.5698H68.5701H68.5704H68.5707H68.571H68.5713H68.5716H68.5719H68.5722H68.5725H68.5728H68.5731H68.5734H68.5737H68.574H68.5743H68.5746H68.5749H68.5752H68.5755H68.5758H68.5761H68.5764H68.5767H68.5769H68.5772H68.5775H68.5778H68.5781H68.5784H68.5787H68.579H68.5793H68.5795H68.5798H68.5801H68.5804H68.5807H68.581H68.5813H68.5815H68.5818H68.5821H68.5824H68.5827H68.5829H68.5832H68.5835H68.5838H68.5841H68.5843H68.5846H68.5849H68.5852H68.5854H68.5857H68.586H68.5863H68.5865H68.5868H68.5871H68.5873H68.5876H68.5879H68.5881H68.5884H68.5887H68.5889H68.5892H68.5895H68.5897H68.59H68.5903H68.5905H68.5908H68.591H68.5913H68.5916H68.5918H68.5921H68.5923H68.5926H68.5928H68.5931H68.5934H68.5936H68.5939H68.5941H68.5944H68.5946H68.5949H68.5951H68.5954H68.5956H68.5959H68.5961H68.5963H68.5966H68.5968H68.5971H68.5973H68.5976H68.5978H68.598H68.5983H68.5985H68.5988H68.599H68.5992H68.5995H68.5997H68.5999H68.6002H68.6004H68.6006H68.6009H68.6011H68.6013H68.6015H68.6018H68.602H68.6022H68.6025H68.6027H68.6029H68.6031H68.6033H68.6036H68.6038H68.604H68.6042H68.6044H68.6047H68.6049H68.6051H68.6053H68.6055H68.6057H68.6059H68.6061H68.6064H68.6066H68.6068H68.607H68.6072H68.6074H68.6076H68.6078H68.608H68.6082H68.6084H68.6086H68.6088H68.609H68.6092H68.6094H68.6096H68.6098H68.61H68.6102H68.6104H68.6105H68.6107H68.6109H68.6111H68.6113H68.6115H68.6117H68.6119H68.612H68.6122H68.6124H68.6126H68.6128H68.6129H68.6131H68.6133H68.6135H68.6137H68.6138H68.614H68.6142H68.6143H68.6145H68.6147H68.6148H68.615H68.6152H68.6153H68.6155H68.6157H68.6158H68.616H68.6162H68.6163H68.6165H68.6166H68.6168H68.6169H68.6171H68.6172H68.6174H68.6175H68.6177H68.6178H68.618H68.6181H68.6183H68.6184H68.6186H68.6187H68.6189H68.619H68.6191H68.6193H68.6194H68.6195H68.6197H68.6198H68.6199H68.6201H68.6202H68.6203H68.6205H68.6206H68.6207H68.6208H68.621H68.6211H68.6212H68.6213H68.6215H68.6216H68.6217H68.6218H68.6219H68.622H68.6221H68.6223H68.6224H68.6225H68.6226H68.6227H68.6228H68.6229H68.623H68.6231H68.6232H68.6233H68.6234H68.6235H68.6236H68.6237H68.6238H68.6239H68.624H68.6241H68.6242H68.6243H68.6243H68.6244H68.6245H68.6246H68.6247H68.6248H68.6248H68.6249H68.625H68.6251H68.6251H68.6252H68.6253H68.6254H68.6254H68.6255H68.6256H68.6256H68.6257H68.6258H68.6258H68.6259H68.626H68.626H68.6261H68.6261H68.6262H68.6262H68.6263H68.6264H68.6264H68.6264H68.6265H68.6265H68.6266H68.6266H68.6267H68.6267H68.6268H68.6268H68.6268H68.6269H68.6269H68.6269H68.627H68.627H68.6271H68.6271H68.6272H68.6272H68.6273H68.6273H68.6273H68.6273C68.9667 17.2479 69.3571 17.3614 69.6328 17.6371L69.6325 17.6373L69.6385 17.6424L72.0896 19.7348L72.0906 19.7356C72.7622 20.2953 72.8218 21.2469 72.2585 21.9246C71.6941 22.5438 70.7397 22.6535 70.0668 22.0932C70.0667 22.0931 70.0665 22.093 70.0664 22.0928L67.6162 20.0012ZM52.3066 24.0632C60.6478 24.0632 67.5155 30.7208 67.7477 38.9883H36.8662C37.1569 30.7199 43.9662 24.0632 52.3066 24.0632ZM78.272 48.8525H33.7542V41.0416H78.272V48.8525Z" fill="#0D0D0D" stroke="#0D0D0D" stroke-width="0.2" stroke-linecap="round" stroke-linejoin="round"/>
<defs>
<filter id="filter0_d_158_14" x="0.150635" y="29.6802" width="110.064" height="53.5" filterUnits="userSpaceOnUse" color-interpolation-filters="sRGB">
<feFlood flood-opacity="0" result="BackgroundImageFix"/>
<feColorMatrix in="SourceAlpha" type="matrix" values="0 0 0 0 0 0 0 0 0 0 0 0 0 0 0 0 0 0 127 0" result="hardAlpha"/>
<feOffset dy="4"/>
<feGaussianBlur stdDeviation="7"/>
<feComposite in2="hardAlpha" operator="out"/>
<feColorMatrix type="matrix" values="0 0 0 0 0.458333 0 0 0 0 0.458333 0 0 0 0 0.458333 0 0 0 0.25 0"/>
<feBlend mode="normal" in2="BackgroundImageFix" result="effect1_dropShadow_158_14"/>
<feBlend mode="normal" in="SourceGraphic" in2="effect1_dropShadow_158_14" result="shape"/>
</filter>
</defs>
</svg>
