<svg width="21" height="21" viewBox="0 0 21 21" fill="none" xmlns="http://www.w3.org/2000/svg">
<path d="M1.23295 3.51707L10.477 0.260912C10.6339 0.209904 10.8016 0.209904 10.9585 0.260912L20.193 3.51707H20.2122L20.3085 3.56795H20.3181L20.4144 3.629C20.4144 3.63918 20.4241 3.63918 20.4337 3.64935L20.5107 3.72058L20.5781 3.80198C20.5781 3.81216 20.5878 3.81216 20.5878 3.82233L20.6455 3.91391C20.6455 3.92409 20.6455 3.92409 20.6552 3.93426L20.6937 4.02584L20.7226 4.13777V4.1683C20.7321 4.20817 20.7353 4.24942 20.7322 4.29041V12.4308C20.7322 12.6467 20.651 12.8538 20.5066 13.0064C20.3621 13.1591 20.1662 13.2448 19.9618 13.2448C19.7575 13.2448 19.5616 13.1591 19.4171 13.0064C19.2727 12.8538 19.1915 12.6467 19.1915 12.4308V5.41989L15.9561 6.55954C16.5639 7.58767 16.8844 8.77641 16.8805 9.98868C16.8801 11.0912 16.6149 12.1756 16.1096 13.1402C15.6044 14.1048 14.8756 14.9181 13.9917 15.5038C15.8286 16.2381 17.3968 17.5709 18.4693 19.3094C18.5786 19.4921 18.6157 19.7129 18.5724 19.9241C18.5292 20.1354 18.4092 20.3203 18.2382 20.4389C18.1543 20.4977 18.0602 20.5382 17.9614 20.5583C17.8625 20.5783 17.7609 20.5774 17.6624 20.5556C17.5638 20.5339 17.4704 20.4917 17.3874 20.4314C17.3044 20.3712 17.2336 20.2942 17.179 20.2049C16.4798 19.0667 15.5224 18.1314 14.394 17.4838C13.2656 16.8363 12.0019 16.4971 10.7178 16.4971C9.43368 16.4971 8.16996 16.8363 7.04152 17.4838C5.91309 18.1314 4.95574 19.0667 4.25653 20.2049C4.18621 20.3177 4.09042 20.4103 3.97779 20.4742C3.86515 20.5382 3.73923 20.5715 3.61137 20.5712C3.46381 20.5728 3.3193 20.5267 3.19732 20.4389C3.02634 20.3203 2.90631 20.1354 2.86308 19.9241C2.81985 19.7129 2.85689 19.4921 2.96621 19.3094C4.03877 17.5709 5.60694 16.2381 7.44382 15.5038C6.55989 14.9181 5.83115 14.1048 5.32589 13.1402C4.82063 12.1756 4.5554 11.0912 4.55504 9.98868C4.55116 8.77641 4.87161 7.58767 5.47945 6.55954L1.23295 5.06374C1.07883 5.01021 0.944633 4.90663 0.849499 4.76777C0.754364 4.6289 0.703146 4.46184 0.703146 4.29041C0.703146 4.11897 0.754364 3.95191 0.849499 3.81305C0.944633 3.67418 1.07883 3.5706 1.23295 3.51707ZM6.09572 9.98868C6.09572 11.2841 6.58268 12.5264 7.44949 13.4424C8.31629 14.3583 9.49192 14.8729 10.7178 14.8729C11.9436 14.8729 13.1192 14.3583 13.986 13.4424C14.8528 12.5264 15.3398 11.2841 15.3398 9.98868C15.3379 8.94644 15.0245 7.93147 14.4443 7.08867L10.9585 8.3199C10.8021 8.37426 10.6334 8.37426 10.477 8.3199L6.99124 7.08867C6.411 7.93147 6.09758 8.94644 6.09572 9.98868ZM6.99124 5.37918H7.00087L10.7178 6.69182L14.4347 5.37918H14.4443L17.5256 4.29041L10.7178 1.88899L3.90988 4.29041L6.99124 5.37918Z" fill="#0DD3A3"/>
</svg>
