<svg width="21" height="22" viewBox="0 0 21 22" fill="none" xmlns="http://www.w3.org/2000/svg">
<path d="M1.42973 4.16355L10.6738 0.907397C10.8307 0.856389 10.9984 0.856389 11.1553 0.907397L20.3897 4.16355H20.409L20.5053 4.21443H20.5149L20.6112 4.27548C20.6112 4.28566 20.6208 4.28566 20.6305 4.29584L20.7075 4.36706L20.7749 4.44847C20.7749 4.45864 20.7845 4.45864 20.7845 4.46882L20.8423 4.5604C20.8423 4.57057 20.8423 4.57057 20.8519 4.58075L20.8904 4.67233L20.9193 4.78426V4.81479C20.9288 4.85466 20.9321 4.89591 20.929 4.93689V13.0773C20.929 13.2932 20.8478 13.5002 20.7033 13.6529C20.5589 13.8056 20.3629 13.8913 20.1586 13.8913C19.9543 13.8913 19.7584 13.8056 19.6139 13.6529C19.4694 13.5002 19.3883 13.2932 19.3883 13.0773V6.06637L16.1529 7.20603C16.7607 8.23415 17.0811 9.4229 17.0773 10.6352C17.0769 11.7377 16.8117 12.8221 16.3064 13.7867C15.8012 14.7513 15.0724 15.5646 14.1885 16.1503C16.0254 16.8846 17.5935 18.2174 18.6661 19.9559C18.7754 20.1386 18.8125 20.3594 18.7692 20.5706C18.726 20.7819 18.606 20.9668 18.435 21.0854C18.3511 21.1441 18.257 21.1847 18.1581 21.2047C18.0593 21.2248 17.9577 21.2239 17.8591 21.2021C17.7606 21.1804 17.6672 21.1381 17.5842 21.0779C17.5012 21.0177 17.4304 20.9407 17.3758 20.8514C16.6766 19.7132 15.7192 18.7779 14.5908 18.1303C13.4623 17.4827 12.1986 17.1435 10.9145 17.1435C9.63045 17.1435 8.36673 17.4827 7.2383 18.1303C6.10987 18.7779 5.15252 19.7132 4.45331 20.8514C4.38299 20.9642 4.28719 21.0568 4.17456 21.1207C4.06193 21.1847 3.93601 21.218 3.80815 21.2177C3.66058 21.2193 3.51608 21.1732 3.39409 21.0854C3.22311 20.9668 3.10308 20.7819 3.05986 20.5706C3.01663 20.3594 3.05367 20.1386 3.16299 19.9559C4.23555 18.2174 5.80372 16.8846 7.64059 16.1503C6.75666 15.5646 6.02792 14.7513 5.52267 13.7867C5.01741 12.8221 4.75217 11.7377 4.75182 10.6352C4.74793 9.4229 5.06839 8.23415 5.67623 7.20603L1.42973 5.71023C1.2756 5.6567 1.14141 5.55312 1.04628 5.41425C0.951141 5.27539 0.899923 5.10833 0.899923 4.93689C0.899923 4.76546 0.951141 4.5984 1.04628 4.45953C1.14141 4.32067 1.2756 4.21708 1.42973 4.16355ZM6.2925 10.6352C6.2925 11.9305 6.77946 13.1729 7.64626 14.0888C8.51306 15.0048 9.6887 15.5194 10.9145 15.5194C12.1404 15.5194 13.316 15.0048 14.1828 14.0888C15.0496 13.1729 15.5366 11.9305 15.5366 10.6352C15.5347 9.59293 15.2213 8.57795 14.6411 7.73515L11.1553 8.96638C10.9989 9.02074 10.8302 9.02074 10.6738 8.96638L7.18802 7.73515C6.60778 8.57795 6.29436 9.59293 6.2925 10.6352ZM7.18802 6.02567H7.19765L10.9145 7.33831L14.6314 6.02567H14.6411L17.7224 4.93689L10.9145 2.53548L4.10666 4.93689L7.18802 6.02567Z" fill="#142E42"/>
</svg>
