<svg width="51" height="47" viewBox="0 0 51 47" fill="none" xmlns="http://www.w3.org/2000/svg">
<path d="M6.28332 0.0876465C4.68266 0.0876465 3.14757 0.723503 2.01574 1.85534C0.883904 2.98717 0.248047 4.52226 0.248047 6.12292V30.264C0.248047 31.8647 0.883904 33.3998 2.01574 34.5316C3.14757 35.6634 4.68266 36.2993 6.28332 36.2993H28.9156V34.2744C28.6573 33.9547 28.4136 33.6234 28.1853 33.2816H6.28332C5.48299 33.2816 4.71544 32.9637 4.14953 32.3978C3.58361 31.8319 3.26568 31.0643 3.26568 30.264V6.12292C3.26568 5.32259 3.58361 4.55504 4.14953 3.98913C4.71544 3.42321 5.48299 3.10528 6.28332 3.10528H42.4949C43.2953 3.10528 44.0628 3.42321 44.6287 3.98913C45.1947 4.55504 45.5126 5.32259 45.5126 6.12292V13.5704C46.611 14.1136 47.6249 14.8077 48.5302 15.6164V6.12292C48.5302 4.52226 47.8944 2.98717 46.7625 1.85534C45.6307 0.723503 44.0956 0.0876465 42.4949 0.0876465H6.28332ZM50.039 25.7376C50.039 28.5387 48.9263 31.2251 46.9456 33.2058C44.9649 35.1865 42.2785 36.2993 39.4773 36.2993C36.6762 36.2993 33.9898 35.1865 32.009 33.2058C30.0283 31.2251 28.9156 28.5387 28.9156 25.7376C28.9156 22.9364 30.0283 20.25 32.009 18.2693C33.9898 16.2886 36.6762 15.1758 39.4773 15.1758C42.2785 15.1758 44.9649 16.2886 46.9456 18.2693C48.9263 20.25 50.039 22.9364 50.039 25.7376ZM39.4773 39.3169C42.2686 39.3169 44.8638 38.472 47.0214 37.0295V45.3522C47.0214 45.6324 46.9434 45.9071 46.7961 46.1454C46.6488 46.3838 46.438 46.5764 46.1873 46.7017C45.9367 46.827 45.6562 46.8801 45.3771 46.8549C45.098 46.8297 44.8315 46.7274 44.6073 46.5592L40.3826 43.3907C40.1214 43.1948 39.8038 43.089 39.4773 43.089C39.1508 43.089 38.8332 43.1948 38.572 43.3907L34.3473 46.5592C34.1232 46.7274 33.8566 46.8297 33.5775 46.8549C33.2985 46.8801 33.0179 46.827 32.7673 46.7017C32.5167 46.5764 32.3059 46.3838 32.1586 46.1454C32.0113 45.9071 31.9332 45.6324 31.9332 45.3522V37.0295C34.1647 38.5249 36.7912 39.3212 39.4773 39.3169ZM9.30095 10.6494C9.30095 10.2492 9.45992 9.86544 9.74288 9.58248C10.0258 9.29952 10.4096 9.14055 10.8098 9.14055H37.9685C38.3687 9.14055 38.7524 9.29952 39.0354 9.58248C39.3183 9.86544 39.4773 10.2492 39.4773 10.6494C39.4773 11.0495 39.3183 11.4333 39.0354 11.7163C38.7524 11.9992 38.3687 12.1582 37.9685 12.1582H10.8098C10.4096 12.1582 10.0258 11.9992 9.74288 11.7163C9.45992 11.4333 9.30095 11.0495 9.30095 10.6494ZM10.8098 24.2287C10.4096 24.2287 10.0258 24.3877 9.74288 24.6707C9.45992 24.9536 9.30095 25.3374 9.30095 25.7376C9.30095 26.1377 9.45992 26.5215 9.74288 26.8044C10.0258 27.0874 10.4096 27.2464 10.8098 27.2464H22.8803C23.2805 27.2464 23.6643 27.0874 23.9472 26.8044C24.2302 26.5215 24.3891 26.1377 24.3891 25.7376C24.3891 25.3374 24.2302 24.9536 23.9472 24.6707C23.6643 24.3877 23.2805 24.2287 22.8803 24.2287H10.8098Z" fill="#0DD3A3"/>
</svg>
