<svg width="23" height="20" viewBox="0 0 23 20" fill="none" xmlns="http://www.w3.org/2000/svg">
<path d="M11.4278 1.38821L11.4979 1.45729L11.5681 1.38821L12.6109 0.361439L13.1434 0.133203H22.019L22.7729 0.887125V17.0543L22.019 17.8082H13.4642H13.4231L13.3939 17.8371L12.0256 19.1895H10.9703L9.60197 17.8371L9.57275 17.8082H9.53167H0.976846L0.222925 17.0543V0.887124L0.976846 0.133203H9.8524L10.3849 0.361439L11.4278 1.38821ZM10.6168 16.8759L10.7846 17.0344L10.7854 16.8036L10.8342 2.86105L10.8343 2.81943L10.8049 2.78999L9.60239 1.58749L9.5731 1.5582H9.53167H1.74792H1.64792V1.6582V16.2832V16.3832H1.74792H9.85065L10.3359 16.6107L10.6168 16.8759ZM21.2479 16.3832H21.3479V16.2832V1.6582V1.5582H21.2479H13.4642H13.4228L13.3935 1.58749L12.256 2.72499L12.2267 2.75428V2.7957V16.7382V16.9675L12.3947 16.8115L12.6095 16.612L13.1435 16.3832H21.2479ZM3.47292 6.4332V5.0082H8.14792V6.4332H3.47292ZM3.47292 12.9332V11.5082H8.14792V12.9332H3.47292ZM3.47292 8.2582H8.14792V9.6832H3.47292V8.2582ZM14.8479 6.4332V5.0082H19.5229V6.4332H14.8479ZM14.8479 8.2582H19.5229V9.6832H14.8479V8.2582ZM14.8479 11.5082H19.5229V12.9332H14.8479V11.5082Z" fill="#F58E06" stroke="white" stroke-width="0.2"/>
</svg>
