<svg width="51" height="51" viewBox="0 0 51 51" fill="none" xmlns="http://www.w3.org/2000/svg">
<g clip-path="url(#clip0_191_2312)">
<path d="M8.30034 11.7813H38.1033C39.0211 11.7813 39.7652 11.0259 39.7652 10.094C39.7652 9.16221 39.0211 8.40674 38.1033 8.40674H8.30034C7.38253 8.40674 6.63843 9.16221 6.63843 10.094C6.63843 11.0259 7.38253 11.7813 8.30034 11.7813Z" fill="#392C7D"/>
<path d="M8.30034 18.9801H38.1033C39.0211 18.9801 39.7652 18.2246 39.7652 17.2928C39.7652 16.3609 39.0211 15.6055 38.1033 15.6055H8.30034C7.38253 15.6055 6.63843 16.3609 6.63843 17.2928C6.63843 18.2246 7.38253 18.9801 8.30034 18.9801Z" fill="#392C7D"/>
<path d="M24.1118 22.8047H8.30034C7.38253 22.8047 6.63843 23.5602 6.63843 24.492C6.63843 25.4238 7.38253 26.1793 8.30034 26.1793H24.1118C25.0296 26.1793 25.7737 25.4238 25.7737 24.492C25.7737 23.5602 25.0296 22.8047 24.1118 22.8047Z" fill="#392C7D"/>
<path d="M50.4208 48.458L46.0758 39.7237L47.7571 39.0425C48.1986 38.8635 48.5691 38.346 48.6005 37.8644L48.7437 35.6743C48.7677 35.3074 48.9509 34.735 49.1438 34.4241L50.2955 32.5669C50.5489 32.1585 50.5489 31.5187 50.2957 31.1103L49.1438 29.253C48.9511 28.9422 48.7678 28.3696 48.7438 28.0029L48.6008 25.8128C48.5737 25.4005 48.2979 24.9626 47.9423 24.7326V4.42832C47.9423 2.56749 46.4513 1.05371 44.6186 1.05371H3.60495C1.77225 1.05371 0.28125 2.56749 0.28125 4.42832V33.3344C0.28125 35.1952 1.77225 36.7089 3.60495 36.7089H29.7476L29.8231 37.8645C29.8547 38.3462 30.2251 38.8635 30.6666 39.0425L32.2451 39.682L27.8793 48.458C27.745 48.7282 27.781 48.8909 27.8349 48.9799C27.869 49.0363 27.9527 49.1307 28.1288 49.1307C28.2169 49.1307 28.3184 49.1066 28.4305 49.059L32.0067 47.5389C32.0947 47.5015 32.1993 47.4817 32.3093 47.4817C32.572 47.4817 32.8397 47.5921 32.9913 47.7625L34.7093 49.6963C34.8524 49.8576 35.0298 49.9464 35.2082 49.9464C35.4438 49.9464 35.6551 49.7918 35.7733 49.5331L39.139 42.1617C39.1464 42.1616 39.1536 42.1616 39.1609 42.1615L42.5268 49.5331C42.6449 49.7919 42.8562 49.9464 43.092 49.9464C43.2703 49.9464 43.4476 49.8576 43.5908 49.6962L45.3087 47.7626C45.4603 47.5921 45.7281 47.4817 45.9907 47.4817C46.1005 47.4817 46.2053 47.5015 46.2932 47.5389L49.8695 49.059C49.9816 49.1066 50.083 49.1307 50.1711 49.1307C50.3474 49.1307 50.4309 49.0362 50.465 48.9799C50.5191 48.8909 50.5551 48.7282 50.4208 48.458ZM3.60495 4.42832H44.6184L44.6186 22.9467L43.3194 21.3597C43.0822 21.07 42.6479 20.8754 42.2388 20.8754C42.1392 20.8754 42.0439 20.887 41.9554 20.9098L39.8585 21.4517C39.5245 21.5379 38.899 21.5379 38.5649 21.4517L36.4683 20.9098C36.3798 20.887 36.2845 20.8754 36.1849 20.8754C35.7757 20.8754 35.3415 21.07 35.1043 21.3597L33.7219 23.0484C33.4908 23.331 33.0113 23.6846 32.6754 23.8208L30.6669 24.6348C30.2252 24.8138 29.8547 25.3311 29.8233 25.8128L29.6801 28.0029C29.6562 28.3698 29.473 28.9422 29.2801 29.253L28.1284 31.1103C27.875 31.5186 27.875 32.1585 28.1284 32.5669L28.6043 33.3343H3.60495V4.42832ZM39.2117 39.0127C35.3092 39.0127 32.1456 35.8008 32.1456 31.8386C32.1456 27.8764 35.3092 24.6645 39.2117 24.6645C43.1143 24.6645 46.2781 27.8764 46.2781 31.8386C46.2782 35.8008 43.1143 39.0127 39.2117 39.0127Z" fill="#392C7D"/>
</g>
<defs>
<clipPath id="clip0_191_2312">
<rect width="50.2324" height="51" fill="white" transform="translate(0.28125)"/>
</clipPath>
</defs>
</svg>
