<svg width="24" height="24" viewBox="0 0 24 24" fill="none" xmlns="http://www.w3.org/2000/svg">
<path opacity="0.4" d="M21.6602 10.44L20.6802 14.62C19.8402 18.23 18.1802 19.69 15.0602 19.39C14.5602 19.35 14.0202 19.26 13.4402 19.12L11.7602 18.72C7.59018 17.73 6.30018 15.67 7.28018 11.49L8.26018 7.30001C8.46018 6.45001 8.70018 5.71001 9.00018 5.10001C10.1702 2.68001 12.1602 2.03001 15.5002 2.82001L17.1702 3.21001C21.3602 4.19001 22.6402 6.26001 21.6602 10.44Z" fill="#392C7D"/>
<path d="M15.0603 19.39C14.4403 19.81 13.6603 20.16 12.7103 20.47L11.1303 20.99C7.16034 22.27 5.07034 21.2 3.78034 17.23L2.50034 13.28C1.22034 9.30998 2.28034 7.20998 6.25034 5.92998L7.83034 5.40998C8.24034 5.27998 8.63034 5.16998 9.00034 5.09998C8.70034 5.70998 8.46034 6.44998 8.26034 7.29998L7.28034 11.49C6.30034 15.67 7.59034 17.73 11.7603 18.72L13.4403 19.12C14.0203 19.26 14.5603 19.35 15.0603 19.39Z" fill="#392C7D"/>
<path d="M17.4904 10.51C17.4304 10.51 17.3704 10.5 17.3004 10.49L12.4504 9.26002C12.0504 9.16002 11.8104 8.75002 11.9104 8.35002C12.0104 7.95002 12.4204 7.71002 12.8204 7.81002L17.6704 9.04002C18.0704 9.14002 18.3104 9.55002 18.2104 9.95002C18.1304 10.28 17.8204 10.51 17.4904 10.51Z" fill="#392C7D"/>
<path d="M14.5601 13.89C14.5001 13.89 14.4401 13.88 14.3701 13.87L11.4601 13.13C11.0601 13.03 10.8201 12.62 10.9201 12.22C11.0201 11.82 11.4301 11.58 11.8301 11.68L14.7401 12.42C15.1401 12.52 15.3801 12.93 15.2801 13.33C15.2001 13.67 14.9001 13.89 14.5601 13.89Z" fill="#392C7D"/>
</svg>
