<svg width="34" height="32" viewBox="0 0 34 32" fill="none" xmlns="http://www.w3.org/2000/svg">
<rect x="1.9917" y="7.12061" width="29.67" height="7.98" fill="#F58E06"/>
<path d="M23.9075 6.49175V6.64175H24.0575H29.536C30.659 6.64175 31.5984 7.01493 32.364 7.76049C33.1273 8.50389 33.511 9.45312 33.511 10.6208V16.1046C33.511 16.5332 33.4041 16.827 33.2165 17.0148C33.029 17.2025 32.7355 17.3095 32.3075 17.3095H32.1575V17.4595V28.4917C32.1575 29.1798 31.8965 29.7877 31.3635 30.3212C30.8305 30.8547 30.2232 31.1159 29.536 31.1159H4.78601C4.09881 31.1159 3.49154 30.8547 2.95853 30.3212C2.42553 29.7877 2.16453 29.1798 2.16453 28.4917V17.4595V17.3095H2.01453C1.58651 17.3095 1.29305 17.2025 1.10551 17.0148C0.917941 16.827 0.811011 16.5332 0.811011 16.1046V10.6208C0.811011 9.45312 1.19475 8.50389 1.95805 7.76049C2.72358 7.01493 3.66298 6.64175 4.78601 6.64175H10.2645H10.4145V6.49175V5.07239C10.4145 3.94941 10.7972 3.00949 11.563 2.24292C12.3288 1.47636 13.2678 1.09336 14.3895 1.09336H19.9325C21.0542 1.09336 21.9932 1.47636 22.759 2.24292C23.5248 3.00949 23.9075 3.94941 23.9075 5.07239V6.49175ZM21.286 6.64175H21.436V6.49175V5.07239C21.436 4.64824 21.2932 4.28668 21.0054 3.99864C20.7176 3.71058 20.3564 3.56755 19.9325 3.56755H14.3895C13.9657 3.56755 13.6044 3.71058 13.3166 3.99864C13.0288 4.28668 12.886 4.64824 12.886 5.07239V6.49175V6.64175H13.036H21.286ZM4.63601 28.4917V28.6417H4.78601H29.536H29.686V28.4917V17.4595V17.3095H29.536H21.286H21.136V17.4595V21.5885C21.136 22.3238 20.8827 22.9413 20.3742 23.4502C19.8658 23.9592 19.2489 24.2127 18.5145 24.2127H15.8075C15.0731 24.2127 14.4562 23.9592 13.9478 23.4502C13.4394 22.9413 13.186 22.3238 13.186 21.5885V17.4595V17.3095H13.036H4.78601H4.63601V17.4595V28.4917ZM15.6575 21.5885V21.7385H15.8075H18.5145H18.6645V21.5885V17.4595V17.3095H18.5145H15.8075H15.6575V17.4595V21.5885ZM30.8895 14.8998H31.0395V14.7498V10.6208C31.0395 10.1263 30.9218 9.72754 30.6597 9.45274C30.3964 9.17661 30.0122 9.05142 29.536 9.05142H4.78601C4.30985 9.05142 3.92564 9.17661 3.66232 9.45274C3.40027 9.72754 3.2825 10.1263 3.2825 10.6208V14.7498V14.8998H3.4325H30.8895Z" fill="#421E76" stroke="white" stroke-width="0.3"/>
</svg>
