<svg width="35" height="35" viewBox="0 0 35 35" fill="none" xmlns="http://www.w3.org/2000/svg">
<path d="M29.2447 11.8979C32.2869 11.8979 34.7532 9.43166 34.7532 6.38938C34.7532 3.34711 32.2869 0.880859 29.2447 0.880859C26.2024 0.880859 23.7361 3.34711 23.7361 6.38938C23.7361 9.43166 26.2024 11.8979 29.2447 11.8979Z" fill="#F58E06"/>
<path d="M8.04786 16.195H8.38938C8.30719 15.4598 8.34065 14.7164 8.48854 13.9916C8.06831 14.072 7.63397 14.0338 7.23425 13.8812C6.83453 13.7286 6.48524 13.4676 6.22557 13.1275C5.96589 12.7875 5.8061 12.3818 5.76412 11.956C5.72214 11.5302 5.79962 11.1011 5.98789 10.7169C6.17616 10.3327 6.46775 10.0085 6.82997 9.78081C7.19219 9.55307 7.6107 9.43075 8.03855 9.42759C8.4664 9.42443 8.88667 9.54054 9.25221 9.7629C9.61776 9.98526 9.91412 10.3051 10.108 10.6865C10.5992 10.12 11.1753 9.63311 11.8157 9.24323C11.3883 8.59031 10.7987 8.05957 10.1045 7.70299C9.41039 7.34641 8.63554 7.17622 7.85587 7.20907C7.07619 7.24193 6.31841 7.47671 5.65674 7.89043C4.99506 8.30414 4.45217 8.8826 4.08123 9.56917C3.71028 10.2557 3.52401 11.0269 3.54064 11.8071C3.55726 12.5873 3.77623 13.3498 4.17609 14.0199C4.57594 14.69 5.14299 15.2448 5.82169 15.63C6.50039 16.0151 7.26749 16.2174 8.04786 16.217V16.195Z" fill="#421E76"/>
<path d="M10.1521 20.1277C9.5276 19.4201 9.04844 18.5966 8.74191 17.704H8.04783C6.73984 17.6567 5.43609 17.8788 4.21749 18.3563C2.99889 18.8339 1.89144 19.5569 0.963872 20.4803L0.699463 20.7888V28.5007H2.90287V21.6371C4.3469 20.4442 6.17569 19.8176 8.04783 19.8743C8.75684 19.8748 9.46325 19.9599 10.1521 20.1277Z" fill="#421E76"/>
<path d="M30.3684 20.4362C29.4533 19.5216 28.3603 18.8042 27.157 18.3286C25.9538 17.853 24.6658 17.6292 23.3726 17.671C23.02 17.671 22.7116 17.671 22.381 17.7371C22.0581 18.6555 21.5521 19.4988 20.8937 20.2159C21.6993 19.9832 22.5342 19.8682 23.3726 19.8744C25.2315 19.8135 27.049 20.4324 28.4845 21.6151V28.5227H30.6879V20.7447L30.3684 20.4362Z" fill="#421E76"/>
<path d="M15.5064 20.3043C16.4804 20.3043 17.4325 20.0155 18.2424 19.4744C19.0522 18.9333 19.6834 18.1641 20.0562 17.2643C20.4289 16.3644 20.5264 15.3742 20.3364 14.419C20.1464 13.4637 19.6774 12.5862 18.9886 11.8975C18.2999 11.2087 17.4224 10.7397 16.4672 10.5497C15.5119 10.3597 14.5217 10.4572 13.6218 10.8299C12.722 11.2027 11.9529 11.8339 11.4117 12.6437C10.8706 13.4536 10.5818 14.4057 10.5818 15.3797C10.5818 16.6858 11.1006 17.9384 12.0242 18.8619C12.9477 19.7855 14.2003 20.3043 15.5064 20.3043ZM15.5064 12.6695C16.0446 12.6695 16.5707 12.8291 17.0182 13.1281C17.4657 13.4271 17.8145 13.8521 18.0205 14.3494C18.2264 14.8466 18.2803 15.3937 18.1753 15.9216C18.0703 16.4495 17.8112 16.9343 17.4306 17.3149C17.05 17.6955 16.5652 17.9546 16.0373 18.0596C15.5094 18.1646 14.9623 18.1108 14.465 17.9048C13.9678 17.6988 13.5428 17.35 13.2438 16.9025C12.9448 16.455 12.7852 15.9289 12.7852 15.3907C12.7852 14.669 13.0719 13.9769 13.5822 13.4665C14.0925 12.9562 14.7847 12.6695 15.5064 12.6695Z" fill="#421E76"/>
<path d="M15.7708 21.8801C14.3308 21.8293 12.8953 22.0705 11.551 22.5893C10.2067 23.1081 8.98131 23.8937 7.94871 24.8987L7.67328 25.2072V33.2827C7.67756 33.5108 7.72693 33.7358 7.81854 33.9447C7.91015 34.1537 8.04219 34.3425 8.20706 34.5002C8.37193 34.6579 8.56636 34.7814 8.77917 34.8636C8.99198 34.9459 9.21895 34.9852 9.44702 34.9793H22.0836C22.3116 34.9852 22.5386 34.9459 22.7514 34.8636C22.9642 34.7814 23.1587 34.6579 23.3235 34.5002C23.4884 34.3425 23.6205 34.1537 23.7121 33.9447C23.8037 33.7358 23.853 33.5108 23.8573 33.2827V25.1852L23.5819 24.8767C22.5529 23.8712 21.3292 23.0867 19.986 22.5714C18.6427 22.056 17.2083 21.8208 15.7708 21.8801ZM21.6429 32.7649H9.85465V26.0886C11.5198 24.7275 13.6213 24.0152 15.7708 24.0835C17.9037 24.0118 19.9902 24.7164 21.6429 26.0665V32.7649Z" fill="#421E76"/>
<path d="M24.8819 13.3633C24.5808 13.6497 24.2048 13.8451 23.7974 13.927C23.39 14.0089 22.9677 13.9739 22.5793 13.826C22.6883 14.3255 22.7437 14.8351 22.7446 15.3464C22.7575 15.5959 22.7575 15.846 22.7446 16.0955C22.9521 16.1325 23.1619 16.1546 23.3726 16.1616C24.0835 16.1592 24.7837 15.9882 25.4157 15.6626C26.0477 15.337 26.5935 14.8662 27.0082 14.2887C26.2592 14.0824 25.5433 13.7708 24.8819 13.3633Z" fill="#421E76"/>
<path d="M21.1141 7.77783C20.45 8.16268 19.8931 8.70819 19.4946 9.36429C20.1305 9.78715 20.6956 10.3077 21.1692 10.9067C21.3076 10.5532 21.5308 10.2391 21.8192 9.99226C21.4802 9.29135 21.2428 8.54572 21.1141 7.77783Z" fill="#421E76"/>
</svg>
