<svg width="40" height="40" viewBox="0 0 40 40" fill="none" xmlns="http://www.w3.org/2000/svg">
<rect x="16.3241" y="29.6528" width="6.67359" height="7.2" fill="#F58E06"/>
<path d="M1.66101 19.8813H3.66101M19.661 1.88135V3.88135M35.661 19.8813H37.661M6.86101 7.08135L8.26101 8.48135M32.461 7.08135L31.061 8.48135M15.061 29.8813H24.261M13.661 27.8813C11.982 26.6221 10.7417 24.8664 10.1159 22.863C9.49007 20.8597 9.51047 18.7102 10.1742 16.7191C10.8379 14.728 12.1113 12.9961 13.8139 11.7689C15.5166 10.5417 17.5622 9.88135 19.661 9.88135C21.7598 9.88135 23.8055 10.5417 25.5081 11.7689C27.2108 12.9961 28.4841 14.728 29.1478 16.7191C29.8116 18.7102 29.8319 20.8597 29.2061 22.863C28.5803 24.8664 27.3401 26.6221 25.661 27.8813C24.8801 28.6543 24.2922 29.6002 23.9448 30.6426C23.5973 31.6849 23.5001 32.7945 23.661 33.8813C23.661 34.9422 23.2396 35.9596 22.4894 36.7098C21.7393 37.4599 20.7219 37.8813 19.661 37.8813C18.6001 37.8813 17.5827 37.4599 16.8326 36.7098C16.0824 35.9596 15.661 34.9422 15.661 33.8813C15.8219 32.7945 15.7247 31.6849 15.3773 30.6426C15.0298 29.6002 14.4419 28.6543 13.661 27.8813Z" stroke="#421E76" stroke-width="3" stroke-linecap="round" stroke-linejoin="round"/>
</svg>
