<svg width="119" height="100" viewBox="0 0 119 100" fill="none" xmlns="http://www.w3.org/2000/svg">
<path fill-rule="evenodd" clip-rule="evenodd" d="M54.5988 0.00446186C65.0199 -0.234621 72.4576 9.19314 81.6187 14.1662C92.6796 20.1707 107.358 21.3017 113.775 32.1283C120.571 43.5932 120.342 58.7363 115.367 71.1006C110.54 83.0959 99.5611 91.7649 87.7033 96.9202C77.3279 101.431 65.8531 98.676 54.5988 97.5202C44.627 96.4961 34.9289 95.3243 26.0915 90.5928C16.0645 85.2244 4.33112 79.647 0.939069 68.7909C-2.44702 57.9539 4.02364 46.7051 9.22526 36.6131C13.7101 27.9116 20.8463 21.5326 28.465 15.3857C36.5291 8.87929 44.2399 0.242119 54.5988 0.00446186Z" fill="#392C7D" fill-opacity="0.1"/>
<path d="M87.6024 36.5316L63.2169 28.4031C62.8031 28.2758 62.3606 28.2758 61.9468 28.4031L37.5867 36.5316H37.5358L37.2818 36.6586H37.2564L37.0024 36.811C37.0024 36.8365 36.977 36.8365 36.9516 36.8619L36.7484 37.0397L36.5706 37.2429C36.5706 37.2683 36.5452 37.2683 36.5452 37.2937L36.3928 37.5223C36.3928 37.5477 36.3928 37.5477 36.3674 37.5731L36.2658 37.8017L36.1896 38.0811V38.1573C36.1645 38.2569 36.1559 38.3598 36.1642 38.4622V58.7834C36.1642 59.3224 36.3783 59.8393 36.7594 60.2204C37.1405 60.6015 37.6573 60.8156 38.1963 60.8156C38.7352 60.8156 39.2521 60.6015 39.6332 60.2204C40.0143 59.8393 40.2284 59.3224 40.2284 58.7834V41.2817L48.7634 44.1267C47.1599 46.6933 46.3146 49.6608 46.3248 52.6871C46.3257 55.4393 47.0254 58.1463 48.3583 60.5543C49.6911 62.9624 51.6135 64.9926 53.9453 66.4547C49.0997 68.2878 44.9629 71.615 42.1335 75.9549C41.8451 76.411 41.7474 76.9621 41.8615 77.4894C41.9755 78.0168 42.2921 78.4783 42.7432 78.7745C42.9645 78.9212 43.2128 79.0224 43.4735 79.0725C43.7343 79.1225 44.0024 79.1202 44.2623 79.0659C44.5222 79.0116 44.7687 78.9062 44.9876 78.7559C45.2064 78.6056 45.3933 78.4133 45.5374 78.1903C47.3818 75.3491 49.9073 73.0141 52.8841 71.3976C55.8608 69.781 59.1945 68.9343 62.5818 68.9343C65.9692 68.9343 69.3029 69.781 72.2796 71.3976C75.2564 73.0141 77.7818 75.3491 79.6263 78.1903C79.8118 78.472 80.0645 78.703 80.3616 78.8627C80.6588 79.0223 80.9909 79.1055 81.3282 79.1047C81.7175 79.1088 82.0987 78.9936 82.4205 78.7745C82.8715 78.4783 83.1882 78.0168 83.3022 77.4894C83.4162 76.9621 83.3185 76.411 83.0301 75.9549C80.2008 71.615 76.064 68.2878 71.2184 66.4547C73.5502 64.9926 75.4725 62.9624 76.8054 60.5543C78.1383 58.1463 78.8379 55.4393 78.8389 52.6871C78.8491 49.6608 78.0038 46.6933 76.4003 44.1267L87.6024 40.3927C88.009 40.259 88.363 40.0005 88.6139 39.6538C88.8649 39.3072 89 38.8901 89 38.4622C89 38.0342 88.8649 37.6172 88.6139 37.2705C88.363 36.9238 88.009 36.6653 87.6024 36.5316V36.5316ZM62.5818 64.8798C59.3481 64.8798 56.2468 63.5952 53.9602 61.3086C51.6737 59.0221 50.3891 55.9208 50.3891 52.6871C50.394 50.0853 51.2208 47.5515 52.7514 45.4476L61.9468 48.5212C62.3593 48.6569 62.8044 48.6569 63.2169 48.5212L72.4123 45.4476C73.9429 47.5515 74.7697 50.0853 74.7746 52.6871C74.7746 55.9208 73.49 59.0221 71.2034 61.3086C68.9168 63.5952 65.8156 64.8798 62.5818 64.8798Z" fill="#392C7D"/>
</svg>
