<svg width="119" height="100" viewBox="0 0 119 100" fill="none" xmlns="http://www.w3.org/2000/svg">
<path fill-rule="evenodd" clip-rule="evenodd" d="M54.5988 0.00446186C65.0199 -0.234621 72.4576 9.19314 81.6187 14.1662C92.6796 20.1707 107.358 21.3017 113.775 32.1283C120.571 43.5932 120.342 58.7363 115.367 71.1006C110.54 83.0959 99.5611 91.7649 87.7033 96.9202C77.3279 101.431 65.8531 98.676 54.5988 97.5202C44.627 96.4961 34.9289 95.3243 26.0915 90.5928C16.0645 85.2244 4.33112 79.647 0.939069 68.7909C-2.44702 57.9539 4.02364 46.7051 9.22526 36.6131C13.7101 27.9116 20.8463 21.5326 28.465 15.3857C36.5291 8.87929 44.2399 0.242119 54.5988 0.00446186Z" fill="#FFB500" fill-opacity="0.1"/>
<path d="M71.7309 31.6248C72.5957 31.6248 73.4521 31.7925 74.2511 32.1185C75.0501 32.4444 75.7761 32.9222 76.3877 33.5244C76.9992 34.1267 77.4843 34.8417 77.8153 35.6286C78.1462 36.4155 78.3166 37.2589 78.3166 38.1106V72.3089C78.3166 73.1606 78.1462 74.004 77.8153 74.7909C77.4843 75.5778 76.9992 76.2928 76.3877 76.8951C75.7761 77.4974 75.0501 77.9751 74.2511 78.301C73.4521 78.627 72.5957 78.7948 71.7309 78.7948H46.5857C45.7206 78.7948 44.864 78.6269 44.0649 78.3008C43.2657 77.9747 42.5396 77.4968 41.928 76.8943C41.3165 76.2917 40.8314 75.5765 40.5006 74.7893C40.1698 74.0021 39.9997 73.1585 40 72.3065V38.1106C40 35.1389 42.026 32.6389 44.7896 31.8677V35.7521C44.0616 36.2899 43.5922 37.1436 43.5922 38.1106V72.3042C43.5922 73.9315 44.9333 75.2523 46.5857 75.2523H71.7309C73.3833 75.2523 74.7244 73.9315 74.7244 72.3042V38.1106C74.7244 36.4833 73.3833 35.1625 71.7309 35.1625H66.3426V31.6248H71.7309ZM63.9479 31.6248V50.8206C63.9479 52.5824 62.032 53.2428 60.8586 52.6225L60.6622 52.4998L55.5709 49.4692L50.5945 52.4197C49.3971 53.2687 47.4095 52.7498 47.2011 51.1036L47.1844 50.8229V31.6248H63.9479ZM60.3557 35.1625H50.7765V48.1885L54.5435 45.9503C54.8437 45.7932 55.1765 45.7063 55.5163 45.6965C55.856 45.6867 56.1935 45.7541 56.5025 45.8937L60.3581 48.1909V35.1625H60.3557Z" fill="#FFB500"/>
</svg>
