<svg width="119" height="100" viewBox="0 0 119 100" fill="none" xmlns="http://www.w3.org/2000/svg">
<path fill-rule="evenodd" clip-rule="evenodd" d="M54.5988 0.00446186C65.0199 -0.234621 72.4576 9.19314 81.6187 14.1662C92.6796 20.1707 107.358 21.3017 113.775 32.1283C120.571 43.5932 120.342 58.7363 115.367 71.1006C110.54 83.0959 99.5611 91.7649 87.7033 96.9202C77.3279 101.431 65.8531 98.676 54.5988 97.5202C44.627 96.4961 34.9289 95.3243 26.0915 90.5928C16.0645 85.2244 4.33112 79.647 0.939069 68.7909C-2.44702 57.9539 4.02364 46.7051 9.22526 36.6131C13.7101 27.9116 20.8463 21.5326 28.465 15.3857C36.5291 8.87929 44.2399 0.242119 54.5988 0.00446186Z" fill="#21B477" fill-opacity="0.1"/>
<path d="M79.2656 66.1895C80.4473 66.7803 81.5125 67.5054 82.4614 68.3647C83.4103 69.2241 84.216 70.182 84.8784 71.2383C85.5409 72.2946 86.0601 73.4404 86.436 74.6758C86.812 75.9111 87 77.1823 87 78.4893H83.5625C83.5625 77.0749 83.2939 75.741 82.7568 74.4878C82.2197 73.2345 81.4857 72.1424 80.5547 71.2114C79.6237 70.2804 78.5226 69.5374 77.2515 68.9824C75.9803 68.4274 74.6465 68.1589 73.25 68.1768C71.8177 68.1768 70.4839 68.4453 69.2485 68.9824C68.0132 69.5195 66.9211 70.2536 65.9722 71.1846C65.0233 72.1156 64.2803 73.2166 63.7432 74.4878C63.2061 75.759 62.9375 77.0928 62.9375 78.4893H59.5C59.5 77.1823 59.679 75.9111 60.0371 74.6758C60.3952 73.4404 60.9144 72.2946 61.5947 71.2383C62.2751 70.182 63.0897 69.2241 64.0386 68.3647C64.9875 67.5054 66.0527 66.7803 67.2344 66.1895C65.8916 65.2227 64.8442 64.0142 64.0923 62.564C63.3403 61.1138 62.9554 59.5472 62.9375 57.8643C62.9375 56.4499 63.2061 55.116 63.7432 53.8628C64.2803 52.6095 65.0143 51.5174 65.9453 50.5864C66.8763 49.6554 67.9684 48.9124 69.2217 48.3574C70.4749 47.8024 71.8177 47.5339 73.25 47.5518C74.6644 47.5518 75.9982 47.8203 77.2515 48.3574C78.5047 48.8945 79.5968 49.6286 80.5278 50.5596C81.4588 51.4906 82.2018 52.5916 82.7568 53.8628C83.3118 55.134 83.5804 56.4678 83.5625 57.8643C83.5625 59.5472 83.1865 61.1138 82.4346 62.564C81.6826 64.0142 80.6263 65.2227 79.2656 66.1895ZM73.25 64.7393C74.1989 64.7393 75.0851 64.5602 75.9087 64.2021C76.7323 63.8441 77.4663 63.3517 78.1108 62.7251C78.7554 62.0985 79.2477 61.3734 79.5879 60.5498C79.9281 59.7262 80.1071 58.8311 80.125 57.8643C80.125 56.9154 79.946 56.0291 79.5879 55.2056C79.2298 54.382 78.7375 53.6479 78.1108 53.0034C77.4842 52.3589 76.7591 51.8665 75.9355 51.5264C75.112 51.1862 74.2168 51.0072 73.25 50.9893C72.3011 50.9893 71.4149 51.1683 70.5913 51.5264C69.7677 51.8844 69.0337 52.3768 68.3892 53.0034C67.7446 53.63 67.2523 54.3551 66.9121 55.1787C66.5719 56.0023 66.3929 56.8975 66.375 57.8643C66.375 58.8132 66.554 59.6994 66.9121 60.5229C67.2702 61.3465 67.7625 62.0806 68.3892 62.7251C69.0158 63.3696 69.7409 63.862 70.5645 64.2021C71.388 64.5423 72.2832 64.7214 73.25 64.7393ZM59.5 66.8877C58.9271 67.5501 58.4079 68.2394 57.9424 68.9556C57.4769 69.6717 57.0651 70.4416 56.707 71.2651C55.7581 70.2804 54.6123 69.5195 53.2695 68.9824C51.9268 68.4453 50.5661 68.1768 49.1875 68.1768H38.875V33.8018H35.4375V71.6143H56.5728C56.3221 72.1693 56.1162 72.7332 55.9551 73.3062C55.7939 73.8791 55.6597 74.4609 55.5522 75.0518H32V30.3643H38.875V26.9268H49.1875C50.763 26.9268 52.2759 27.1685 53.7261 27.6519C55.1763 28.1353 56.528 28.8604 57.7812 29.8271C59.0166 28.8604 60.3594 28.1353 61.8096 27.6519C63.2598 27.1685 64.7816 26.9268 66.375 26.9268H76.6875V30.3643H83.5625V47.5518C82.5241 46.5312 81.3783 45.6808 80.125 45.0005V33.8018H76.6875V43.7114C76.1146 43.5503 75.5417 43.4339 74.9688 43.3623C74.3958 43.2907 73.8229 43.2549 73.25 43.2549V30.3643H66.375C65.1217 30.3643 63.9043 30.5791 62.7227 31.0088C61.541 31.4385 60.4668 32.0741 59.5 32.9155V66.8877ZM56.0625 66.5386V32.9155C55.0957 32.092 54.0215 31.4653 52.8398 31.0356C51.6582 30.606 50.4408 30.3822 49.1875 30.3643H42.3125V64.7393H49.1875C50.387 64.7393 51.5687 64.8914 52.7324 65.1958C53.8962 65.5002 55.0062 65.9478 56.0625 66.5386Z" fill="#21B477"/>
</svg>
