<svg width="111" height="85" viewBox="0 0 111 85" fill="none" xmlns="http://www.w3.org/2000/svg">
<g filter="url(#filter0_d_158_2)">
<path d="M24.8259 43.0046C25.7427 41.5573 27.3366 40.6802 29.0498 40.6802H77.9979C79.458 40.6802 80.845 41.3183 81.7949 42.427L95.0748 57.927C97.8538 61.1706 95.5491 66.1802 91.2779 66.1802H19.2317C15.2909 66.1802 12.899 61.8337 15.0078 58.5046L24.8259 43.0046Z" fill="#1CBEEF"/>
</g>
<path d="M77.3232 9.23253H68.9451V5.35843C68.9451 4.85069 68.5116 4.40684 68.0085 4.40684H44.1918C43.6887 4.40684 43.2551 4.85069 43.2551 5.35843V9.23253H34.6539C34.3977 9.23253 34.1502 9.3619 33.969 9.54632C33.7767 9.74206 33.7173 9.99883 33.7173 10.2409C33.7173 10.4197 33.8857 14.0632 35.1718 18.2751L35.1722 18.2761C36.956 23.8936 39.9677 27.8884 43.9973 29.7294C45.3423 34.2492 48.3948 37.8208 52.2352 39.2646V39.3654C52.2352 44.0276 48.7608 47.7246 44.3033 47.7246C43.8002 47.7246 43.3667 48.1684 43.3667 48.6762V53.5019C43.3667 54.0096 43.8002 54.4534 44.3033 54.4534H68.0085C68.5116 54.4534 68.9451 54.0096 68.9451 53.5019V48.6762C68.9451 48.1684 68.5116 47.7246 68.0085 47.7246C63.4917 47.7246 59.7977 43.9672 59.7977 39.3654V39.3223C63.805 37.8783 66.9144 34.2484 68.2596 29.614C72.1211 27.7171 75.0767 23.7805 76.8051 18.2758C78.1195 14.1507 78.2547 10.5169 78.2597 10.2532C78.3207 9.98241 78.1848 9.72611 78.0081 9.54632C77.8269 9.3619 77.5795 9.23253 77.3232 9.23253ZM37.3764 18.8647C36.2305 15.7037 35.8055 12.6491 35.6565 11.1357H43.2551V24.6612C43.2551 25.5523 43.3025 26.3976 43.4413 27.2404C40.4017 25.3101 38.5277 22.0403 37.3764 18.8647ZM57.9301 39.8245C58.2065 44.9547 62.1348 49.1203 67.0718 49.5628V52.4935H45.24V49.5628C50.1226 49.1202 53.8856 45.0064 54.0497 39.767C54.6878 39.874 55.3792 39.9764 56.0722 39.9764C56.7064 39.9764 57.3411 39.9258 57.9301 39.8245ZM58.9963 37.6243L58.2769 37.8495C57.5575 38.0183 56.8417 38.1299 56.128 38.1299C55.301 38.1299 54.4745 38.0178 53.7038 37.7939C53.6637 37.7802 53.6168 37.7632 53.5658 37.7447C53.5145 37.7261 53.4596 37.7063 53.4062 37.6882C53.3529 37.6701 53.2997 37.6532 53.2519 37.6408C53.2126 37.6306 53.1714 37.6219 53.1346 37.6196C48.5607 36.0409 45.1284 30.8667 45.1284 24.718V6.3668H67.0718V9.67317V10.7519V24.718C67.0718 30.8722 63.6333 36.0503 58.9974 37.6239C58.997 37.624 58.9967 37.6242 58.9963 37.6243ZM74.7052 18.7445C73.5878 21.872 71.7669 25.1155 68.8053 27.1248C68.9067 26.3362 69.0009 25.4993 69.0009 24.6612V11.1357H76.3765C76.2281 12.6459 75.8172 15.6319 74.7052 18.7445Z" fill="#0D0D0D" stroke="#0D0D0D" stroke-width="0.2" stroke-linecap="round" stroke-linejoin="round"/>
<path d="M57.2569 11.446L57.2566 11.4456C57.0184 10.9606 56.4836 10.5948 55.9398 10.5948C55.4022 10.5948 54.8626 10.8984 54.6219 11.4478L52.582 15.6565L48.0622 16.3297C47.5169 16.3922 47.0423 16.8206 46.8647 17.3629C46.6876 17.9035 46.802 18.5146 47.2263 18.8867L50.5337 22.141L49.7619 26.7427C49.6419 27.2971 49.8864 27.8442 50.3572 28.2036C50.5959 28.3858 50.8957 28.508 51.2545 28.508C51.4905 28.508 51.7321 28.4488 51.9189 28.324L56.1059 26.1931L60.0757 28.3257L60.0757 28.3258L60.0777 28.3268C60.5532 28.5688 61.153 28.5707 61.6339 28.2036C62.1122 27.8385 62.2894 27.2909 62.2304 26.7507L62.2306 26.7507L62.2296 26.745L61.4574 22.141L64.7669 18.8846L64.7681 18.8834C65.185 18.459 65.3053 17.9089 65.1264 17.3629C65.1245 17.3571 65.1221 17.3515 65.1192 17.3461C64.834 16.8235 64.4213 16.3922 63.8168 16.3296L59.2976 15.6565L57.2569 11.446ZM59.4669 21.954L60.2126 26.2368L56.5444 24.2888L56.5445 24.2888L56.5429 24.288C56.2887 24.1586 55.9788 24.1624 55.679 24.2845L55.6788 24.2841L55.6713 24.288L51.7215 26.2981L52.4684 21.9539C52.5307 21.6345 52.4058 21.3186 52.2183 21.1277L52.2177 21.1271L49.1778 18.0872L53.3893 17.4361L53.3893 17.4362L53.394 17.4352C53.7008 17.3728 53.9511 17.1842 54.0773 16.9272L54.0778 16.9262L55.9398 13.0275L57.8017 16.9262L57.8022 16.9272C57.92 17.167 58.1667 17.433 58.4975 17.4372L62.7039 18.0876L59.7219 21.1228C59.4628 21.3248 59.4077 21.6513 59.4669 21.954Z" fill="#0D0D0D" stroke="#0D0D0D" stroke-width="0.2" stroke-linecap="round" stroke-linejoin="round"/>
<defs>
<filter id="filter0_d_158_2" x="0.223633" y="30.6802" width="110.064" height="53.5" filterUnits="userSpaceOnUse" color-interpolation-filters="sRGB">
<feFlood flood-opacity="0" result="BackgroundImageFix"/>
<feColorMatrix in="SourceAlpha" type="matrix" values="0 0 0 0 0 0 0 0 0 0 0 0 0 0 0 0 0 0 127 0" result="hardAlpha"/>
<feOffset dy="4"/>
<feGaussianBlur stdDeviation="7"/>
<feComposite in2="hardAlpha" operator="out"/>
<feColorMatrix type="matrix" values="0 0 0 0 0.458333 0 0 0 0 0.458333 0 0 0 0 0.458333 0 0 0 0.25 0"/>
<feBlend mode="normal" in2="BackgroundImageFix" result="effect1_dropShadow_158_2"/>
<feBlend mode="normal" in="SourceGraphic" in2="effect1_dropShadow_158_2" result="shape"/>
</filter>
</defs>
</svg>
