<svg width="36" height="26" viewBox="0 0 36 26" fill="none" xmlns="http://www.w3.org/2000/svg">
<path d="M34.9677 9.74912C34.1778 9.20227 32.3674 8.9972 30.9521 9.27063C30.7875 7.9035 30.0305 6.70725 28.7139 5.64773L27.9568 5.10087L27.4302 5.88697C26.7719 6.91232 26.4427 8.34781 26.5415 9.71495C26.5744 10.1934 26.739 11.0479 27.2327 11.7998C26.7719 12.0732 25.8174 12.415 24.5666 12.415H0.769084L0.703254 12.6885C0.472849 14.0556 0.472849 18.3279 3.17188 21.609C5.2126 24.104 8.24078 25.3686 12.2235 25.3686C20.8472 25.3686 27.2327 21.233 30.228 13.748C31.4129 13.7822 33.9473 13.748 35.231 11.1846C35.2639 11.1163 35.3298 10.9795 35.5602 10.4669L35.6918 10.1934L34.9677 9.74912ZM19.7939 0.11084H16.1733V3.52867H19.7939V0.11084ZM19.7939 4.21224H16.1733V7.63007H19.7939V4.21224ZM15.515 4.21224H11.8943V7.63007H15.515V4.21224ZM11.236 4.21224H7.61539V7.63007H11.236V4.21224ZM6.95709 8.31363H3.33645V11.7315H6.95709V8.31363ZM11.236 8.31363H7.61539V11.7315H11.236V8.31363ZM15.515 8.31363H11.8943V11.7315H15.515V8.31363ZM19.7939 8.31363H16.1733V11.7315H19.7939V8.31363ZM24.0729 8.31363H20.4522V11.7315H24.0729V8.31363Z" fill="#2396ED"/>
</svg>
