<svg width="36" height="36" viewBox="0 0 36 36" fill="none" xmlns="http://www.w3.org/2000/svg">
<g clip-path="url(#clip0_191_2437)">
<path d="M23.5397 23.5905C26.7688 23.5905 29.3865 20.9788 29.3865 17.7572C29.3865 14.5355 26.7688 11.9238 23.5397 11.9238C20.3106 11.9238 17.6929 14.5355 17.6929 17.7572C17.6929 20.9788 20.3106 23.5905 23.5397 23.5905Z" fill="#19BCFE"/>
<path fill-rule="evenodd" clip-rule="evenodd" d="M11.8461 35.2575C15.0752 35.2575 17.6929 32.6458 17.6929 29.4242C17.6929 28.5447 17.6929 26.6003 17.6929 23.5908C15.0663 23.5908 13.1174 23.5908 11.8461 23.5908C8.61698 23.5908 5.99927 26.2025 5.99927 29.4242C5.99927 32.6458 8.61698 35.2575 11.8461 35.2575Z" fill="#09CF83"/>
<path fill-rule="evenodd" clip-rule="evenodd" d="M11.8461 23.5905C12.9225 23.5905 14.8714 23.5905 17.6929 23.5905V11.9238C14.8714 11.9238 12.9225 11.9238 11.8461 11.9238C8.61698 11.9238 5.99927 14.5355 5.99927 17.7572C5.99927 20.9788 8.61698 23.5905 11.8461 23.5905Z" fill="#A259FF"/>
<path fill-rule="evenodd" clip-rule="evenodd" d="M11.8461 11.924C12.9225 11.924 14.8714 11.924 17.6929 11.924V0.257324C14.8714 0.257324 12.9225 0.257324 11.8461 0.257324C8.61698 0.257324 5.99927 2.869 5.99927 6.09066C5.99927 9.31232 8.61698 11.924 11.8461 11.924Z" fill="#F24E1E"/>
<path fill-rule="evenodd" clip-rule="evenodd" d="M23.5397 11.924H17.6929V0.257324H23.5397C26.7688 0.257324 29.3865 2.869 29.3865 6.09066C29.3865 9.31232 26.7688 11.924 23.5397 11.924Z" fill="#FF7262"/>
</g>
<defs>
<clipPath id="clip0_191_2437">
<rect width="35.081" height="35" fill="white" transform="translate(0.152344 0.257324)"/>
</clipPath>
</defs>
</svg>
