<svg width="21" height="21" viewBox="0 0 21 21" fill="none" xmlns="http://www.w3.org/2000/svg">
<path d="M0.698708 3.33201L9.94279 0.0758536C10.0997 0.0248457 10.2674 0.0248457 10.4243 0.0758536L19.6587 3.33201H19.678L19.7743 3.38289H19.7839L19.8802 3.44394C19.8802 3.45412 19.8898 3.45412 19.8994 3.46429L19.9765 3.53552L20.0439 3.61692C20.0439 3.6271 20.0535 3.6271 20.0535 3.63728L20.1113 3.72886C20.1113 3.73903 20.1113 3.73903 20.1209 3.74921L20.1594 3.84079L20.1883 3.95272V3.98324C20.1978 4.02312 20.2011 4.06436 20.1979 4.10535V12.2457C20.1979 12.4616 20.1168 12.6687 19.9723 12.8214C19.8279 12.974 19.6319 13.0598 19.4276 13.0598C19.2233 13.0598 19.0274 12.974 18.8829 12.8214C18.7384 12.6687 18.6573 12.4616 18.6573 12.2457V5.23483L15.4218 6.37448C16.0297 7.40261 16.3501 8.59135 16.3462 9.80362C16.3459 10.9061 16.0807 11.9905 15.5754 12.9551C15.0701 13.9198 14.3414 14.733 13.4575 15.3187C15.2943 16.053 16.8625 17.3859 17.9351 19.1244C18.0444 19.3071 18.0814 19.5278 18.0382 19.7391C17.995 19.9503 17.8749 20.1352 17.704 20.2539C17.6201 20.3126 17.526 20.3532 17.4271 20.3732C17.3283 20.3932 17.2266 20.3924 17.1281 20.3706C17.0296 20.3488 16.9361 20.3066 16.8532 20.2464C16.7702 20.1862 16.6994 20.1092 16.6448 20.0198C15.9455 18.8817 14.9882 17.9463 13.8598 17.2988C12.7313 16.6512 11.4676 16.312 10.1835 16.312C8.89944 16.312 7.63572 16.6512 6.50728 17.2988C5.37885 17.9463 4.4215 18.8817 3.72229 20.0198C3.65197 20.1327 3.55617 20.2252 3.44354 20.2892C3.33091 20.3531 3.20499 20.3864 3.07713 20.3861C2.92957 20.3878 2.78506 20.3416 2.66307 20.2539C2.4921 20.1352 2.37206 19.9503 2.32884 19.7391C2.28561 19.5278 2.32265 19.3071 2.43197 19.1244C3.50453 17.3859 5.0727 16.053 6.90958 15.3187C6.02565 14.733 5.29691 13.9198 4.79165 12.9551C4.28639 11.9905 4.02115 10.9061 4.0208 9.80362C4.01692 8.59135 4.33737 7.40261 4.94521 6.37448L0.698708 4.87869C0.544586 4.82515 0.410393 4.72157 0.315258 4.58271C0.220123 4.44384 0.168905 4.27678 0.168905 4.10535C0.168905 3.93391 0.220123 3.76685 0.315258 3.62799C0.410393 3.48912 0.544586 3.38554 0.698708 3.33201ZM5.56148 9.80362C5.56148 11.099 6.04844 12.3413 6.91525 13.2573C7.78205 14.1733 8.95768 14.6879 10.1835 14.6879C11.4094 14.6879 12.585 14.1733 13.4518 13.2573C14.3186 12.3413 14.8056 11.099 14.8056 9.80362C14.8037 8.76138 14.4903 7.74641 13.91 6.90361L10.4243 8.13484C10.2679 8.1892 10.0992 8.1892 9.94279 8.13484L6.457 6.90361C5.87676 7.74641 5.56334 8.76138 5.56148 9.80362ZM6.457 5.19413H6.46663L10.1835 6.50676L13.9004 5.19413H13.91L16.9914 4.10535L10.1835 1.70393L3.37564 4.10535L6.457 5.19413Z" fill="#70C217"/>
</svg>
