<svg width="20" height="20" viewBox="0 0 20 20" fill="none" xmlns="http://www.w3.org/2000/svg">
<path d="M8.85413 16.7051C10.6291 16.7047 12.3529 16.1105 13.7511 15.0171L18.1471 19.4131L19.5611 17.9991L15.1651 13.6031C16.2591 12.2047 16.8537 10.4805 16.8541 8.70508C16.8541 4.29408 13.2651 0.705078 8.85413 0.705078C4.44313 0.705078 0.854126 4.29408 0.854126 8.70508C0.854126 13.1161 4.44313 16.7051 8.85413 16.7051ZM8.85413 2.70508C12.1631 2.70508 14.8541 5.39608 14.8541 8.70508C14.8541 12.0141 12.1631 14.7051 8.85413 14.7051C5.54513 14.7051 2.85413 12.0141 2.85413 8.70508C2.85413 5.39608 5.54513 2.70508 8.85413 2.70508Z" fill="#F58E06"/>
</svg>
