<svg width="64" height="50" viewBox="0 0 64 50" fill="none" xmlns="http://www.w3.org/2000/svg">
<path d="M0 5C0 2.23858 2.23858 0 5 0H17.1145C28.1602 0 37.1145 8.95431 37.1145 20V40.6106C37.1145 43.372 34.8759 45.6106 32.1145 45.6106H20C8.95431 45.6106 0 36.6563 0 25.6106V5Z" fill="#FFEBED"/>
<path d="M39.3107 24.5919C44.028 24.5919 47.8651 20.7549 47.8651 16.038C47.8651 11.3222 44.0275 7.48569 39.3107 7.48569C34.5954 7.48569 30.7594 11.3222 30.7594 16.038C30.7594 20.7548 34.5954 24.5919 39.3107 24.5919ZM39.3107 9.19107C43.0879 9.19107 46.1602 12.2629 46.1602 16.0385C46.1602 19.8152 43.0874 22.8875 39.3107 22.8875C35.5356 22.8875 32.4642 19.8153 32.4642 16.0385C32.4642 12.2629 35.5356 9.19107 39.3107 9.19107Z" fill="#F66962" stroke="#F66962" stroke-width="0.2"/>
<path d="M55.1584 20.596L55.1585 20.5961L57.2101 22.3322C58.2602 23.2206 58.533 24.6827 57.9758 25.8726L59.7708 27.7687L55.1584 20.596ZM55.1584 20.596C54.5498 20.0818 53.7777 19.8352 52.9848 19.9006L52.9848 19.9006M55.1584 20.596L52.9848 19.9006M52.9848 19.9006C52.1904 19.9665 51.4686 20.3382 50.9539 20.9469C49.8924 22.202 50.0496 24.088 51.3047 25.1505C51.3047 25.1505 51.3047 25.1505 51.3047 25.1505L53.3558 26.8876L53.3559 26.8876M52.9848 19.9006L53.3559 26.8876M53.3559 26.8876C53.9154 27.3605 54.5997 27.5915 55.281 27.5915C55.8249 27.5915 56.3648 27.4403 56.8384 27.1508L58.2996 28.6946V39.8066H54.2204C53.9723 31.9283 47.4904 25.5942 39.5526 25.5942C31.6157 25.5942 25.1348 31.9283 24.8867 39.8066H23.1099C22.6387 39.8066 22.2574 40.1886 22.2574 40.6591V48.8993C22.2574 49.3703 22.6388 49.7517 23.1099 49.7517H62.1537C62.6242 49.7517 63.0061 49.3704 63.0061 48.8993V40.6591C63.0061 40.1876 62.6244 39.8056 62.1537 39.8056H60.0044M53.3559 26.8876L60.0044 39.8056M52.2558 22.0467L52.2558 22.0467C51.8009 22.5844 51.8683 23.3927 52.4061 23.8481L54.4572 25.5852L52.2558 22.0467ZM52.2558 22.0467C52.4764 21.7856 52.785 21.6267 53.1256 21.5987L53.1175 21.4991L53.1252 21.5988C53.1613 21.596 53.1973 21.5946 53.2333 21.5946C53.5347 21.5946 53.8244 21.7 54.0571 21.897L56.1087 23.633C56.1087 23.6331 56.1087 23.6331 56.1088 23.6331C56.646 24.088 56.7135 24.8967 56.258 25.4349L56.258 25.435M52.2558 22.0467L56.258 25.435M56.258 25.435C55.8041 25.9721 54.9945 26.0396 54.4572 25.5852L56.258 25.435ZM60.0044 39.8056V28.3548C60.0044 28.1367 59.9215 27.9275 59.7709 27.7688L60.0044 39.8056ZM39.5526 27.2975C46.5501 27.2975 52.2679 32.867 52.5151 39.8051H26.592C26.8388 32.8674 32.556 27.2975 39.5526 27.2975ZM61.3013 48.0458H23.9623V41.5105H61.3013V48.0458Z" fill="#F66962" stroke="#F66962" stroke-width="0.2"/>
</svg>
