<svg width="75" height="75" viewBox="0 0 75 75" fill="none" xmlns="http://www.w3.org/2000/svg">
<path d="M52.0313 63.1251V64.0313C47.4063 67.0001 41.875 68.7501 35.9375 68.7501C29.9062 68.7501 24.2813 66.9376 19.5938 63.8438V63.1251C19.5938 55.8439 26.875 49.9062 35.8125 49.9062C44.7812 49.9063 52.0313 55.8439 52.0313 63.1251Z" fill="#FFB54A"/>
<path opacity="0.4" d="M65.625 39.0625C65.625 49.5312 60.2188 58.7187 52.0313 64.0312V63.125C52.0313 55.8438 44.7812 49.9062 35.8125 49.9062C26.875 49.9062 19.5938 55.8438 19.5938 63.125V63.8437C11.5625 58.5312 6.25 49.4375 6.25 39.0625C6.25 22.6562 19.5312 9.375 35.9375 9.375C40.0312 9.375 43.9375 10.1875 47.5 11.6875C47.0938 12.9375 46.875 14.25 46.875 15.625C46.875 17.9688 47.5313 20.1875 48.6875 22.0625C49.3125 23.125 50.125 24.0937 51.0625 24.9062C53.25 26.9062 56.1562 28.125 59.375 28.125C60.75 28.125 62.0625 27.9062 63.2812 27.4687C64.7812 31.0312 65.625 34.9688 65.625 39.0625Z" fill="#FFB54A"/>
<path d="M68.6563 7.2813C66.4063 4.7188 63.0625 3.125 59.375 3.125C55.875 3.125 52.6875 4.56257 50.4063 6.90632C49.0938 8.25007 48.0938 9.87497 47.5 11.6875C47.0938 12.9375 46.875 14.25 46.875 15.625C46.875 17.9688 47.5313 20.1875 48.6875 22.0625C49.3125 23.125 50.125 24.0937 51.0625 24.9062C53.25 26.9062 56.1562 28.125 59.375 28.125C60.75 28.125 62.0625 27.9062 63.2812 27.4687C66.1562 26.5624 68.5625 24.5937 70.0625 22.0625C70.7187 21 71.2187 19.7812 71.5 18.5312C71.75 17.5937 71.875 16.625 71.875 15.625C71.875 12.4375 70.6563 9.50005 68.6563 7.2813ZM64.0312 17.9062H61.7188V20.3438C61.7188 21.625 60.6562 22.6875 59.375 22.6875C58.0938 22.6875 57.0312 21.625 57.0312 20.3438V17.9062H54.7187C53.4375 17.9062 52.375 16.8437 52.375 15.5624C52.375 14.2812 53.4375 13.2187 54.7187 13.2187H57.0312V11.0001C57.0312 9.71881 58.0938 8.65631 59.375 8.65631C60.6562 8.65631 61.7188 9.71881 61.7188 11.0001V13.2187H64.0312C65.3125 13.2187 66.375 14.2812 66.375 15.5624C66.375 16.8437 65.3437 17.9062 64.0312 17.9062Z" fill="#FFB54A"/>
<path d="M35.8125 46.0312C40.6622 46.0312 44.5937 42.0997 44.5937 37.25C44.5937 32.4002 40.6622 28.4688 35.8125 28.4688C30.9627 28.4688 27.0312 32.4002 27.0312 37.25C27.0312 42.0997 30.9627 46.0312 35.8125 46.0312Z" fill="#FFB54A"/>
</svg>
