<svg width="24" height="24" viewBox="0 0 24 24" fill="none" xmlns="http://www.w3.org/2000/svg">
<path opacity="0.4" d="M20.6201 8.45C19.5701 3.83 15.5401 1.75 12.0001 1.75C12.0001 1.75 12.0001 1.75 11.9901 1.75C8.4601 1.75 4.4201 3.82 3.3701 8.44C2.2001 13.6 5.3601 17.97 8.2201 20.72C9.2801 21.74 10.6401 22.25 12.0001 22.25C13.3601 22.25 14.7201 21.74 15.7701 20.72C18.6301 17.97 21.7901 13.61 20.6201 8.45Z" fill="#58247E"/>
<path d="M12.0001 13.4602C13.7398 13.4602 15.1501 12.0499 15.1501 10.3102C15.1501 8.57046 13.7398 7.16016 12.0001 7.16016C10.2604 7.16016 8.8501 8.57046 8.8501 10.3102C8.8501 12.0499 10.2604 13.4602 12.0001 13.4602Z" fill="#58247E"/>
</svg>
