<svg width="67" height="61" viewBox="0 0 67 61" fill="none" xmlns="http://www.w3.org/2000/svg">
<path d="M0 5.64087C0 2.87945 2.23858 0.640869 5 0.640869H21.9297C32.9754 0.640869 41.9297 9.59517 41.9297 20.6409V46.6409C41.9297 49.4023 39.6911 51.6409 36.9297 51.6409H20C8.95431 51.6409 0 42.6866 0 31.6409V5.64087Z" fill="#FFEBED"/>
<path d="M65.7491 27.4577L65.7491 27.4578L65.7538 27.4543C65.9862 27.2801 66.178 27.0344 66.178 26.7157C66.178 26.4093 65.9978 26.1007 65.7445 25.9707L44.8398 11.9245L44.8399 11.9244L44.8355 11.9218C44.5294 11.7381 44.1057 11.7381 43.7996 11.9218L43.7996 11.9217L43.7955 11.9244L18.0064 29.1537C17.948 29.1834 17.8987 29.2158 17.8558 29.2587C17.8115 29.303 17.7783 29.3542 17.7479 29.4151C17.7409 29.4289 17.7373 29.4443 17.7373 29.4598V29.4598V29.4598V29.4598V29.4598V29.4599V29.4599V29.4599V29.4599V29.4599V29.46V29.46V29.46V29.46V29.46V29.46V29.4601V29.4601V29.4601V29.4601V29.4601V29.4602V29.4602V29.4602V29.4602V29.4603V29.4603V29.4603V29.4603V29.4604V29.4604V29.4604V29.4604V29.4604V29.4604V29.4605V29.4605V29.4605V29.4605V29.4605V29.4605V29.4606V29.4606V29.4606V29.4606V29.4606V29.4607V29.4607V29.4607V29.4607V29.4607V29.4608V29.4608V29.4608V29.4608V29.4609V29.4609V29.4609V29.4609V29.461V29.461V29.461V29.461V29.4611V29.4611V29.4611V29.4611V29.4612V29.4612V29.4612V29.4613V29.4613V29.4613V29.4613V29.4614V29.4614V29.4614V29.4615V29.4615V29.4615V29.4616V29.4616V29.4616V29.4617V29.4617V29.4617V29.4618V29.4618V29.4618V29.4619V29.4619V29.4619V29.462V29.462V29.4621V29.4621V29.4621V29.4622V29.4622V29.4622V29.4623V29.4623V29.4624V29.4624V29.4625V29.4625V29.4625V29.4626V29.4626V29.4627V29.4627V29.4628V29.4628V29.4629V29.4629V29.463V29.463V29.4631V29.4631V29.4632V29.4632V29.4633V29.4633V29.4634V29.4634V29.4635V29.4635V29.4636V29.4636V29.4637V29.4637V29.4638V29.4639V29.4639V29.464V29.464V29.4641V29.4641V29.4642V29.4643V29.4643V29.4644V29.4644V29.4645V29.4646V29.4646V29.4647V29.4648V29.4648V29.4649V29.465V29.465V29.4651V29.4652V29.4652V29.4653V29.4654V29.4654V29.4655V29.4656V29.4657V29.4657V29.4658V29.4659V29.4659V29.466V29.4661V29.4662V29.4663V29.4663V29.4664V29.4665V29.4666V29.4666V29.4667V29.4668V29.4669V29.467V29.4671V29.4671V29.4672V29.4673V29.4674V29.4675V29.4676V29.4677V29.4677V29.4678V29.4679V29.468V29.4681V29.4682V29.4683V29.4684V29.4685V29.4686V29.4687V29.4688V29.4689V29.469V29.4691V29.4692V29.4693V29.4694V29.4695V29.4696V29.4697V29.4698V29.4699V29.47V29.4701V29.4702V29.4703V29.4704V29.4705V29.4706V29.4707V29.4708V29.4709V29.471V29.4712V29.4713V29.4714V29.4715V29.4716V29.4717V29.4718V29.472V29.4721V29.4722V29.4723V29.4724V29.4726V29.4727V29.4728V29.4729V29.4731V29.4732V29.4733V29.4734V29.4736V29.4737V29.4738V29.474V29.4741V29.4742V29.4743V29.4745V29.4746V29.4747V29.4749V29.475V29.4752V29.4753V29.4754V29.4756V29.4757V29.4759V29.476V29.4761V29.4763V29.4764V29.4766V29.4767V29.4769V29.477V29.4772V29.4773V29.4775V29.4776V29.4778V29.4779V29.4781V29.4782V29.4784V29.4785V29.4787V29.4789V29.479V29.4792V29.4793V29.4795V29.4797V29.4798V29.48V29.4802V29.4803V29.4805V29.4807V29.4808V29.481V29.4812V29.4813V29.4815V29.4817V29.4819V29.482V29.4822V29.4824V29.4826V29.4828V29.4829V29.4831V29.4833V29.4835V29.4837V29.4839V29.484V29.4842V29.4844V29.4846V29.4848V29.485V29.4852V29.4852C17.6867 29.5664 17.6582 29.6395 17.6432 29.7146C17.6275 29.793 17.6275 29.8702 17.6275 29.9487L17.6275 29.9537V45.0461C17.6275 45.3526 17.8078 45.6612 18.0612 45.7912L38.966 59.7277C39.1357 59.8408 39.2659 59.9092 39.4606 59.9092C39.6416 59.9092 39.8305 59.8502 39.9629 59.7225L65.8042 42.495L65.8043 42.4951L65.8087 42.4918C66.041 42.3175 66.2329 42.0719 66.2329 41.7532C66.2329 41.7477 66.2324 41.7422 66.2315 41.7368C66.1742 41.3927 66.0002 41.0846 65.7446 40.9534L61.7326 38.2426V30.1172L65.7491 27.4577ZM23.8822 32.3999C23.8534 32.3732 23.822 32.354 23.8067 32.3448C23.8008 32.3206 23.786 32.2992 23.7648 32.2851L20.1586 29.8987L44.3449 13.829L63.5916 26.6601L60.5456 28.6558C60.3726 28.7161 60.2038 28.8287 60.0873 28.9429L39.4056 42.7307L23.8822 32.3999ZM24.1938 34.8604L38.8563 44.6354L38.8562 44.6355L38.8603 44.6379C39.1664 44.8216 39.5901 44.8216 39.8962 44.6379L39.8962 44.638L39.9002 44.6353L59.8862 31.2932V37.8028L39.5146 51.2382L24.1938 41.4241V34.8604ZM22.8264 42.7113L22.8262 42.7115L22.8324 42.7155L39.0688 53.1375C39.141 53.2058 39.2276 53.2378 39.3123 53.2532C39.3967 53.2685 39.4867 53.2685 39.5659 53.2685H39.5703C39.7549 53.2685 39.935 53.2078 40.0541 53.1482L40.0544 53.1488L40.0643 53.1423L60.5342 39.6782L63.5936 41.7524L39.4058 57.8231L19.4191 44.4986V31.6755L22.4022 33.6299V41.9179C22.4022 42.2299 22.5871 42.5318 22.8264 42.7113Z" fill="#F66962" stroke="#F66962" stroke-width="0.2" stroke-linecap="round" stroke-linejoin="round"/>
<path d="M40.7191 21.3082L40.7191 21.3082L40.7207 21.3093L50.4896 28.0049L50.4896 28.0049L50.4906 28.0056C50.6648 28.1217 50.8487 28.187 50.9852 28.187C51.136 28.187 51.2771 28.1567 51.4046 28.085C51.5312 28.0138 51.6383 27.9052 51.7274 27.7577C52.0344 27.3242 51.9054 26.7711 51.4823 26.469L51.4823 26.469L51.481 26.468L41.7683 19.7734C41.7681 19.7733 41.7679 19.7731 41.7676 19.7729C41.3338 19.4636 40.7791 19.5924 40.4763 20.0162C40.1663 20.4502 40.295 21.0053 40.7191 21.3082Z" fill="#F66962" stroke="#F66962" stroke-width="0.2" stroke-linecap="round" stroke-linejoin="round"/>
</svg>
