<svg width="61" height="57" viewBox="0 0 61 57" fill="none" xmlns="http://www.w3.org/2000/svg">
<path d="M0 5.19067C0 2.42925 2.23858 0.190674 5 0.190674H21.9297C32.9754 0.190674 41.9297 9.14498 41.9297 20.1907V46.1907C41.9297 48.9521 39.6911 51.1907 36.9297 51.1907H20C8.95431 51.1907 0 42.2364 0 31.1907V5.19067Z" fill="#FFEBED"/>
<path d="M50.9723 21.2782V21.2865C53.5063 21.248 55.9562 22.2035 57.7957 23.9507C59.66 25.7213 60.7445 28.1601 60.8107 30.7304C60.8769 33.3007 59.9193 35.792 58.1486 37.6563C56.379 39.5195 53.9421 40.6039 51.3735 40.6712C51.3087 40.6786 51.2433 40.6787 51.1786 40.6714H47.9863C47.7529 40.6714 47.5291 40.5786 47.3641 40.4136C47.1991 40.2486 47.1063 40.0248 47.1063 39.7914C47.1063 39.558 47.1991 39.3341 47.3641 39.1691C47.5291 39.0041 47.7529 38.9114 47.9863 38.9114H51.0387H51.1636C52.2183 38.9118 53.2626 38.702 54.2353 38.2943C55.2081 37.8866 56.0899 37.2892 56.8291 36.537C57.5684 35.7847 58.1504 34.8926 58.5411 33.9129C58.9318 32.9332 59.1233 31.8855 59.1046 30.8309C59.0858 29.7764 58.8571 28.7361 58.4318 27.7709C58.0065 26.8057 57.3932 25.9349 56.6276 25.2094C55.862 24.484 54.9595 23.9183 53.9729 23.5455C52.9862 23.1727 51.9352 23.0002 50.8811 23.0381L50.8776 23.0382V23.0382C49.3911 23.039 47.9322 23.4401 46.6542 24.1993C46.5206 24.2792 46.3682 24.3222 46.2125 24.3239C46.0568 24.3257 45.9034 24.286 45.768 24.2091C45.6325 24.1321 45.52 24.0206 45.4417 23.8859C45.3635 23.7512 45.3225 23.5981 45.3227 23.4424M50.9723 21.2782L22.6591 26.5851C22.3399 25.5431 22.1767 24.4596 22.1747 23.3698C22.1747 17.1457 27.364 12.0818 33.7487 12.0818C40.1336 12.0818 45.3227 17.151 45.3227 23.349V23.349V23.349V23.3491V23.3491V23.3492V23.3492V23.3493V23.3493V23.3493V23.3494V23.3494V23.3494V23.3495V23.3495V23.3496V23.3496V23.3496V23.3497V23.3497V23.3498V23.3498V23.3499V23.3499V23.35V23.3501V23.3501V23.3502V23.3502V23.3503V23.3504V23.3504V23.3505V23.3506V23.3506V23.3507V23.3508V23.3509V23.3509V23.351V23.3511V23.3512V23.3512V23.3513V23.3514V23.3515V23.3516V23.3517V23.3518V23.3519V23.3519V23.352V23.3521V23.3522V23.3523V23.3524V23.3525V23.3526V23.3527V23.3528V23.3529V23.353V23.3531V23.3533V23.3534V23.3535V23.3536V23.3537V23.3538V23.3539V23.3541V23.3542V23.3543V23.3544V23.3545V23.3547V23.3548V23.3549V23.355V23.3552V23.3553V23.3554V23.3556V23.3557V23.3558V23.356V23.3561V23.3562V23.3564V23.3565V23.3566V23.3568V23.3569V23.3571V23.3572V23.3574V23.3575V23.3577V23.3578V23.358V23.3581V23.3583V23.3584V23.3586V23.3587V23.3589V23.359V23.3592V23.3594V23.3595V23.3597V23.3598V23.36V23.3602V23.3603V23.3605V23.3607V23.3608V23.361V23.3612V23.3613V23.3615V23.3617V23.3619V23.362V23.3622V23.3624V23.3626V23.3627V23.3629V23.3631V23.3633V23.3635V23.3636V23.3638V23.364V23.3642V23.3644V23.3646V23.3648V23.3649V23.3651V23.3653V23.3655V23.3657V23.3659V23.3661V23.3663V23.3665V23.3667V23.3669V23.3671V23.3673V23.3675V23.3677V23.3679V23.3681V23.3683V23.3685V23.3687V23.3689V23.3691V23.3693V23.3695V23.3697V23.3699V23.3701V23.3703V23.3705V23.3707V23.371V23.3712V23.3714V23.3716V23.3718V23.372V23.3722V23.3724V23.3727V23.3729V23.3731V23.3733V23.3735V23.3737V23.374V23.3742V23.3744V23.3746V23.3749V23.3751V23.3753V23.3755V23.3757V23.376V23.3762V23.3764V23.3766V23.3769V23.3771V23.3773V23.3775V23.3778V23.378V23.3782V23.3785V23.3787V23.3789V23.3792V23.3794V23.3796V23.3799V23.3801V23.3803V23.3805V23.3808V23.381V23.3813V23.3815V23.3817V23.382V23.3822V23.3824V23.3827V23.3829V23.3831V23.3834V23.3836V23.3839V23.3841V23.3843V23.3846V23.3848V23.3851V23.3853V23.3855V23.3858V23.386V23.3863V23.3865V23.3867V23.387V23.3872V23.3875V23.3877V23.388V23.3882V23.3885V23.3887V23.3889V23.3892V23.3894V23.3897V23.3899V23.3902V23.3904V23.3907V23.3909V23.3912V23.3914V23.3916V23.3919V23.3921V23.3924V23.3926V23.3929V23.3931V23.3934V23.3936V23.3939V23.3941V23.3944V23.3946V23.3949V23.3951V23.3954V23.3956V23.3959V23.3961V23.3964V23.3966V23.3968V23.3971V23.3973V23.3976V23.3978V23.3981V23.3983V23.3986V23.3988V23.3991V23.3993V23.3996V23.3998V23.4001V23.4003V23.4006V23.4008V23.4011V23.4013V23.4016V23.4018V23.4021V23.4023V23.4026V23.4028V23.4031V23.4033V23.4036V23.4038V23.4041V23.4043V23.4045V23.4048V23.405V23.4053V23.4055V23.4058V23.406V23.4063V23.4065V23.4068V23.407V23.4073V23.4075V23.4077V23.408V23.4082V23.4085V23.4087V23.409V23.4092V23.4095V23.4097V23.4099V23.4102V23.4104V23.4107V23.4109V23.4112V23.4114V23.4116V23.4119V23.4121V23.4124V23.4126V23.4128V23.4131V23.4133V23.4136V23.4138V23.414V23.4143V23.4145V23.4147V23.415V23.4152V23.4155V23.4157V23.4159V23.4162V23.4164V23.4166V23.4169V23.4171V23.4173V23.4176V23.4178V23.418V23.4182V23.4185V23.4187V23.4189V23.4192V23.4194V23.4196V23.4198V23.4201V23.4203V23.4205V23.4208V23.421V23.4212V23.4214V23.4216V23.4219V23.4221V23.4223V23.4225V23.4228V23.423V23.4232V23.4234V23.4236V23.4238V23.4241V23.4243V23.4245V23.4247V23.4249V23.4251V23.4254V23.4256V23.4258V23.426V23.4262V23.4264V23.4266V23.4268V23.427V23.4272V23.4275V23.4277V23.4279V23.4281V23.4283V23.4285V23.4287V23.4289V23.4291V23.4293V23.4295V23.4297V23.4299V23.4301V23.4303V23.4305V23.4307V23.4309V23.4311V23.4312V23.4314V23.4316V23.4318V23.432V23.4322V23.4324V23.4326V23.4328V23.4329V23.4331V23.4333V23.4335V23.4337V23.4339V23.434V23.4342V23.4344V23.4346V23.4347V23.4349V23.4351V23.4353V23.4354V23.4356V23.4358V23.436V23.4361V23.4363V23.4365V23.4366V23.4368V23.437V23.4371V23.4373V23.4374V23.4376V23.4378V23.4379V23.4381V23.4382V23.4384V23.4386V23.4387V23.4389V23.439V23.4392V23.4393V23.4395V23.4396V23.4398V23.4399V23.44V23.4402V23.4403V23.4405V23.4406V23.4407V23.4409V23.441V23.4412V23.4413V23.4414V23.4416V23.4417V23.4418V23.4419V23.4421V23.4422V23.4423V23.4424M50.9723 21.2782L50.8723 21.2782M50.9723 21.2782L50.8723 21.2782M45.3227 23.4424L45.4227 23.4426M45.3227 23.4424V23.4426H45.4227M45.4227 23.4426C45.4225 23.5806 45.4589 23.7163 45.5282 23.8357L33.7487 11.9818C40.1863 11.9818 45.4227 17.0934 45.4227 23.349V23.4426ZM50.8723 21.2782C49.5479 21.2783 48.237 21.5407 47.0154 22.05C46.6427 18.828 45.1003 15.853 42.6784 13.691C40.2231 11.4991 37.0396 10.2998 33.7483 10.327C26.4154 10.3272 20.4147 16.1781 20.4147 23.375C20.4147 24.1348 20.4828 24.8931 20.6182 25.6406C19.6162 25.4548 18.5865 25.4727 17.5907 25.6938C16.5467 25.9255 15.5634 26.3754 14.7053 27.0138C13.8473 27.6523 13.1339 28.4649 12.612 29.3984C12.0901 30.3319 11.7714 31.3652 11.6768 32.4305C11.5822 33.4958 11.7139 34.5691 12.0633 35.5799C12.4126 36.5907 12.9716 37.5163 13.7038 38.2959C14.4359 39.0755 15.3246 39.6916 16.3115 40.1036C17.2981 40.5155 18.3605 40.7143 19.4292 40.687H19.6879C19.9213 40.687 20.1452 40.5942 20.3102 40.4292C20.4752 40.2642 20.5679 40.0404 20.5679 39.807C20.5679 39.5736 20.4752 39.3497 20.3102 39.1847C20.1452 39.0197 19.9213 38.927 19.6879 38.927H19.4279V38.9269M50.8723 21.2782L19.4279 38.9269M19.4279 38.9269L19.425 38.927M19.4279 38.9269L19.425 38.927M19.425 38.927C18.6468 38.9501 17.872 38.8167 17.1463 38.5349C16.4206 38.253 15.7589 37.8284 15.2003 37.2861C14.6417 36.7439 14.1977 36.095 13.8944 35.378C13.5912 34.661 13.4349 33.8905 13.4349 33.112C13.4349 32.3335 13.5912 31.5629 13.8944 30.8459C14.1977 30.1289 14.6417 29.48 15.2003 28.9378C15.7589 28.3955 16.4206 27.9709 17.1463 27.689C17.872 27.4072 18.6468 27.2738 19.425 27.297L19.4277 27.297M19.425 38.927L19.4277 27.297M19.4277 27.297C20.14 27.2985 20.8465 27.4249 21.5151 27.6704L21.5151 27.6704M19.4277 27.297L21.5151 27.6704M21.5151 27.6704C21.669 27.7269 21.8357 27.7392 21.9962 27.7061M21.5151 27.6704L21.9962 27.7061M21.9962 27.7061C22.1568 27.6729 22.3049 27.5955 22.4238 27.4827M21.9962 27.7061L22.4238 27.4827M22.4238 27.4827C22.5427 27.3698 22.6278 27.226 22.6694 27.0674M22.4238 27.4827L22.6694 27.0674M22.6694 27.0674C22.7109 26.9089 22.7074 26.7419 22.6592 26.5853L22.6694 27.0674Z" fill="#F66962" stroke="#F66962" stroke-width="0.2"/>
<path d="M48.8808 49.0629L48.8807 49.0629L48.8782 49.0653L44.1402 53.8034V30.9673C44.1402 30.7339 44.0474 30.51 43.8824 30.345C43.7174 30.18 43.4935 30.0873 43.2602 30.0873C43.0268 30.0873 42.8029 30.18 42.6379 30.345C42.4729 30.51 42.3802 30.7339 42.3802 30.9673V53.8034L37.6433 49.0666C37.563 48.9807 37.4663 48.9118 37.3589 48.864C37.2509 48.8159 37.1344 48.79 37.0162 48.7879C36.8981 48.7858 36.7807 48.8076 36.6711 48.8518C36.5616 48.8961 36.462 48.962 36.3784 49.0455C36.2949 49.1291 36.229 49.2286 36.1847 49.3382C36.1405 49.4478 36.1188 49.5652 36.1208 49.6833C36.1229 49.8015 36.1488 49.918 36.1969 50.026C36.2447 50.1333 36.3136 50.2301 36.3995 50.3104L42.6382 56.5492L42.6383 56.5492C42.8033 56.714 43.027 56.8066 43.2602 56.8066C43.4934 56.8066 43.717 56.714 43.882 56.5492L43.8821 56.5492L50.1221 50.3092L50.1221 50.3092L50.1245 50.3066C50.28 50.1398 50.3646 49.9192 50.3606 49.6912C50.3565 49.4632 50.2642 49.2457 50.103 49.0845C49.9417 48.9232 49.7242 48.8309 49.4962 48.8268C49.2682 48.8228 49.0476 48.9075 48.8808 49.0629Z" fill="#F66962" stroke="#F66962" stroke-width="0.2"/>
<path d="M36.6042 36.5877L36.6042 36.5876L36.6017 36.5851L30.3617 30.3451L30.3617 30.3451C30.1967 30.1803 29.973 30.0877 29.7398 30.0877C29.5066 30.0877 29.2829 30.1803 29.1179 30.3451L29.1179 30.3451L22.8779 36.5851L22.8778 36.5851L22.8754 36.5877C22.72 36.7545 22.6354 36.9751 22.6394 37.2031C22.6434 37.4311 22.7358 37.6486 22.897 37.8099C23.0582 37.9711 23.2758 38.0634 23.5037 38.0675C23.7317 38.0715 23.9524 37.9869 24.1192 37.8314L24.1192 37.8315L24.1217 37.829L28.8598 33.0909V55.9271C28.8598 56.1604 28.9525 56.3843 29.1175 56.5493C29.2826 56.7143 29.5064 56.8071 29.7398 56.8071C29.9732 56.8071 30.197 56.7143 30.3621 56.5493C30.5271 56.3843 30.6198 56.1604 30.6198 55.9271V33.0909L35.3579 37.829L35.3578 37.829L35.3604 37.8314C35.5272 37.9869 35.7479 38.0715 35.9759 38.0675C36.2039 38.0634 36.4214 37.9711 36.5826 37.8099C36.7438 37.6486 36.8362 37.4311 36.8402 37.2031C36.8442 36.9751 36.7596 36.7545 36.6042 36.5877Z" fill="#F66962" stroke="#F66962" stroke-width="0.2"/>
<path d="M40.3528 21.3912L40.3522 21.3914L40.3569 21.401C40.4512 21.5965 40.6144 21.7502 40.8151 21.8326C41.0159 21.9151 41.24 21.9204 41.4445 21.8477C41.6489 21.7749 41.8193 21.6292 41.9228 21.4385C42.0264 21.2477 42.0558 21.0255 42.0054 20.8144L42.006 20.8142L42.0023 20.8039C41.4034 19.1275 40.3066 17.674 38.8589 16.6381C37.4112 15.6021 35.6816 15.0331 33.9016 15.0072L33.9016 15.0072H33.9001C33.6667 15.0072 33.4429 15.0999 33.2779 15.2649C33.1128 15.43 33.0201 15.6538 33.0201 15.8872C33.0201 16.1206 33.1128 16.3444 33.2779 16.5094C33.4427 16.6743 33.6662 16.767 33.8993 16.7672C35.3175 16.7899 36.6951 17.2446 37.8482 18.0707C39.0014 18.897 39.8752 20.0554 40.3528 21.3912Z" fill="#F66962" stroke="#F66962" stroke-width="0.2"/>
</svg>
