<svg width="50" height="51" viewBox="0 0 50 51" fill="none" xmlns="http://www.w3.org/2000/svg">
<path d="M22.7075 9.26856C23.2814 8.69539 24.0493 8.35812 24.8597 8.3233C25.67 8.28849 26.464 8.55865 27.085 9.08049L27.2925 9.27018L30.373 12.3491H34.7279C35.5457 12.3492 36.3332 12.6584 36.9327 13.2146C37.5322 13.7708 37.8994 14.533 37.9608 15.3485L37.9705 15.5917V19.9465L41.051 23.027C41.6246 23.601 41.9622 24.3693 41.997 25.18C42.0318 25.9908 41.7614 26.7851 41.2391 27.4062L41.0494 27.6121L37.9689 30.6926V35.0475C37.9692 35.8655 37.6602 36.6535 37.1039 37.2533C36.5477 37.8532 35.7852 38.2206 34.9695 38.282L34.7279 38.2901H30.3747L27.2942 41.3706C26.7202 41.9442 25.9519 42.2818 25.1412 42.3166C24.3304 42.3514 23.5361 42.081 22.915 41.5587L22.7091 41.3706L19.6286 38.2901H15.2721C14.454 38.2903 13.6661 37.9814 13.0662 37.4251C12.4664 36.8689 12.099 36.1064 12.0376 35.2906L12.0295 35.0475V30.6926L8.94899 27.6121C8.37536 27.0381 8.03781 26.2699 8.00299 25.4591C7.96817 24.6484 8.23862 23.854 8.76092 23.2329L8.94899 23.027L12.0295 19.9465V15.5917C12.0296 14.7739 12.3388 13.9863 12.895 13.3868C13.4512 12.7873 14.2134 12.4201 15.0289 12.3588L15.2721 12.3491H19.627L22.7075 9.26856ZM25 11.5643L21.9195 14.6448C21.381 15.1825 20.6704 15.5137 19.9123 15.5803L19.627 15.5917H15.2721V19.9465C15.2723 20.7084 15.0043 21.446 14.515 22.0299L14.322 22.2407L11.2415 25.3212L14.322 28.4001C14.8603 28.9384 15.1921 29.6489 15.2591 30.4073L15.2721 30.6926V35.0475H19.627C20.3888 35.0473 21.1264 35.3153 21.7104 35.8046L21.9211 35.9975L25 39.078L28.0805 35.9975C28.6188 35.4592 29.3294 35.1275 30.0877 35.0604L30.373 35.0475H34.7279V30.6926C34.7277 29.9308 34.9957 29.1932 35.485 28.6092L35.678 28.3984L38.7585 25.3196L35.678 22.2391C35.1397 21.7008 34.8079 20.9902 34.7409 20.2319L34.7279 19.9465V15.5917H30.373C29.6112 15.5919 28.8736 15.3238 28.2896 14.8345L28.0789 14.6416L24.9984 11.5611L25 11.5643ZM29.9936 20.4297C30.2854 20.1389 30.6769 19.9701 31.0887 19.9575C31.5004 19.9449 31.9015 20.0896 32.2104 20.362C32.5194 20.6344 32.7131 21.0143 32.7522 21.4243C32.7912 21.8344 32.6727 22.2439 32.4208 22.5698L32.2846 22.7222L24.3726 30.6342C24.0636 30.9435 23.6519 31.1286 23.2155 31.1543C22.7791 31.18 22.3485 31.0446 22.0054 30.7737L21.8498 30.6359L17.9521 26.7382C17.6583 26.4471 17.4868 26.0547 17.4728 25.6413C17.4587 25.2279 17.6032 24.8248 17.8767 24.5145C18.1502 24.2041 18.5319 24.01 18.9438 23.9719C19.3557 23.9338 19.7665 24.0546 20.0923 24.3095L20.2447 24.4441L23.1112 27.3105L29.992 20.4297H29.9936Z" fill="white"/>
</svg>
