<svg width="32" height="33" viewBox="0 0 32 33" fill="none" xmlns="http://www.w3.org/2000/svg">
<path d="M26.125 12.9443L24.3329 16.3193L20.5 16.7851L23.3125 19.3197L22.75 23.0693L26.125 20.96L29.5 23.0693L28.9375 19.3197L31.75 16.7851L27.8125 16.3193L26.125 12.9443Z" fill="white"/>
<path d="M22.0907 13.4101L26.125 9.38259L30.1604 13.4123L31.75 11.8193L26.125 6.19434L20.5 11.8193L22.0907 13.4101Z" fill="white"/>
<path d="M22.0907 7.78509L26.125 3.75759L30.1604 7.78734L31.75 6.19434L26.125 0.569336L20.5 6.19434L22.0907 7.78509ZM16 32.0693H13.75V26.4443C13.7491 25.5495 13.3932 24.6916 12.7605 24.0588C12.1278 23.4261 11.2698 23.0702 10.375 23.0693H5.875C4.98017 23.0702 4.12224 23.4261 3.4895 24.0588C2.85676 24.6916 2.50089 25.5495 2.5 26.4443V32.0693H0.25V26.4443C0.251786 24.953 0.844992 23.5233 1.8995 22.4688C2.954 21.4143 4.38371 20.8211 5.875 20.8193H10.375C11.8663 20.8211 13.296 21.4143 14.3505 22.4688C15.405 23.5233 15.9982 24.953 16 26.4443V32.0693ZM8.125 9.56934C8.79251 9.56934 9.44503 9.76728 10 10.1381C10.5551 10.509 10.9876 11.0361 11.2431 11.6528C11.4985 12.2695 11.5654 12.9481 11.4352 13.6028C11.3049 14.2575 10.9835 14.8588 10.5115 15.3308C10.0395 15.8028 9.43812 16.1243 8.78343 16.2545C8.12874 16.3847 7.45014 16.3179 6.83344 16.0624C6.21674 15.807 5.68964 15.3744 5.31879 14.8194C4.94794 14.2644 4.75 13.6118 4.75 12.9443C4.75 12.0492 5.10558 11.1908 5.73851 10.5578C6.37145 9.92492 7.22989 9.56934 8.125 9.56934ZM8.125 7.31934C7.01248 7.31934 5.92494 7.64924 4.99992 8.26732C4.07489 8.8854 3.35392 9.76391 2.92818 10.7917C2.50243 11.8196 2.39104 12.9506 2.60808 14.0417C2.82512 15.1329 3.36085 16.1351 4.14752 16.9218C4.93419 17.7085 5.93647 18.2442 7.02762 18.4613C8.11876 18.6783 9.24976 18.5669 10.2776 18.1412C11.3054 17.7154 12.1839 16.9944 12.802 16.0694C13.4201 15.1444 13.75 14.0569 13.75 12.9443C13.75 12.2057 13.6045 11.4742 13.3218 10.7917C13.0391 10.1093 12.6248 9.48919 12.1025 8.96686C11.5801 8.44453 10.9601 8.0302 10.2776 7.74751C9.59514 7.46483 8.86369 7.31934 8.125 7.31934Z" fill="white"/>
</svg>
