<svg width="67" height="67" viewBox="0 0 67 67" fill="none" xmlns="http://www.w3.org/2000/svg">
<path d="M66.2998 63.0189L64.0049 60.7239C65.1842 58.9389 65.8854 56.7714 65.8854 54.4764C65.8854 48.1652 60.7854 43.0652 54.4742 43.0652C48.163 43.0652 43.063 48.1652 43.063 54.4764C43.063 60.7876 48.163 65.8876 54.4742 65.8876C56.8011 65.8876 58.9367 65.1864 60.7217 64.0071L63.0167 66.3021C63.4629 66.7483 64.0686 66.9714 64.6424 66.9714C65.2479 66.9714 65.8217 66.7483 66.2679 66.3021C67.1923 65.3776 67.1923 63.9114 66.2998 63.0189Z" fill="#392C7D"/>
<path opacity="0.4" d="M3.31498 43.4795C3.31498 43.5751 3.25122 43.7026 3.25122 43.7982C6.18371 49.6632 10.965 54.4763 16.83 57.3769C16.9256 57.3769 17.0531 57.3131 17.1487 57.3131C16.065 53.6156 15.2362 49.8226 14.6306 46.0294C10.8056 45.3919 7.01247 44.5631 3.31498 43.4795Z" fill="#392C7D"/>
<path opacity="0.4" d="M57.63 17.3418C54.6338 11.0625 49.5656 5.9944 43.3181 3.03003C44.4656 6.82315 45.4219 10.7119 46.0594 14.6007C49.9481 15.2382 53.8368 16.1625 57.63 17.3418Z" fill="#392C7D"/>
<path opacity="0.4" d="M2.99634 17.3421C6.82133 16.1946 10.7101 15.2383 14.5989 14.6008C15.2364 10.8077 16.0332 7.0465 17.1169 3.34897C17.0214 3.34897 16.8939 3.28516 16.7982 3.28516C10.8057 6.24953 5.92883 11.2539 2.99634 17.3421Z" fill="#392C7D"/>
<path opacity="0.4" d="M40.8954 13.9313C40.1304 9.78756 39.1742 5.64385 37.8036 1.62761C37.7399 1.40448 37.7399 1.21326 37.7079 0.958262C35.3492 0.384514 32.8629 0.00195312 30.3129 0.00195312C27.7311 0.00195312 25.2767 0.352639 22.8861 0.958262C22.8542 1.18139 22.8861 1.37261 22.8224 1.62761C21.4836 5.64385 20.4955 9.78756 19.7305 13.9313C26.7749 13.1663 33.8511 13.1663 40.8954 13.9313Z" fill="#392C7D"/>
<path opacity="0.4" d="M13.9293 19.7325C9.75368 20.4975 5.64184 21.4538 1.6256 22.8245C1.40248 22.8882 1.21121 22.8881 0.956207 22.92C0.382458 25.2788 0 27.765 0 30.315C0 32.8969 0.350583 35.3513 0.956207 37.7418C1.17933 37.7738 1.3706 37.7419 1.6256 37.8057C5.64184 39.1444 9.75368 40.1325 13.9293 40.8975C13.1643 33.8532 13.1643 26.777 13.9293 19.7325Z" fill="#392C7D"/>
<path opacity="0.4" d="M59.6381 22.92C59.4149 22.92 59.2238 22.8882 58.9688 22.8245C54.9525 21.4857 50.8087 20.4975 46.665 19.7325C47.4619 26.777 47.4619 33.8532 46.665 40.8657C50.8087 40.1007 54.9525 39.1444 58.9688 37.7738C59.1918 37.71 59.3831 37.7419 59.6381 37.71C60.2118 35.3194 60.5943 32.865 60.5943 30.2831C60.5943 27.765 60.2437 25.3106 59.6381 22.92Z" fill="#392C7D"/>
<path opacity="0.4" d="M19.7305 46.6986C20.4955 50.8743 21.4517 54.9861 22.8224 59.0023C22.8861 59.2254 22.8542 59.4167 22.8861 59.6717C25.2767 60.2454 27.7311 60.6279 30.3129 60.6279C32.8629 60.6279 35.3492 60.2772 37.7079 59.6717C37.7399 59.4485 37.7399 59.2573 37.8036 59.0023C39.1424 54.9861 40.1304 50.8743 40.8954 46.6986C37.3892 47.0811 33.8511 47.3679 30.3129 47.3679C26.7749 47.3361 23.2367 47.0811 19.7305 46.6986Z" fill="#392C7D"/>
<path opacity="0.4" d="M18.9975 18.9994C18.0412 26.5219 18.0412 34.108 18.9975 41.6624C26.52 42.6186 34.1063 42.6186 41.6606 41.6624C42.6168 34.1399 42.6168 26.5537 41.6606 18.9994C34.1063 18.043 26.52 18.043 18.9975 18.9994Z" fill="#392C7D"/>
</svg>
