<svg width="42" height="43" viewBox="0 0 42 43" fill="none" xmlns="http://www.w3.org/2000/svg">
<path d="M41.3052 9.88289C41.3203 9.93881 41.3281 9.99648 41.3281 10.0545V19.0668C41.3281 19.3023 41.2023 19.5198 40.9979 19.6369L33.4339 23.9922V32.6241C33.4339 32.7396 33.4036 32.8531 33.3459 32.9531C33.2882 33.0532 33.2053 33.1364 33.1054 33.1943L17.3156 42.2839C17.2794 42.3043 17.2401 42.3173 17.2005 42.3315C17.1857 42.3363 17.1719 42.3454 17.1563 42.3495C17.0459 42.3786 16.9298 42.3786 16.8195 42.3495C16.8013 42.3448 16.7849 42.3347 16.7677 42.3282C16.7315 42.315 16.6938 42.3035 16.6593 42.2839L0.872749 33.1941C0.772432 33.1365 0.689076 33.0535 0.631091 32.9534C0.573105 32.8533 0.54254 32.7397 0.54248 32.6241V5.58701C0.54248 5.52775 0.550765 5.47023 0.565422 5.41447C0.570361 5.39551 0.581832 5.3783 0.588524 5.35935C0.600791 5.32493 0.612421 5.28956 0.630425 5.25754C0.642692 5.23619 0.660695 5.21899 0.675512 5.19923C0.694471 5.17294 0.711677 5.14586 0.733822 5.12276C0.752781 5.10396 0.777476 5.08994 0.798825 5.07353C0.822722 5.05377 0.843912 5.03242 0.870996 5.01681H0.871793L8.76541 0.472078C8.86537 0.414553 8.97867 0.384277 9.094 0.384277C9.20933 0.384277 9.32264 0.414553 9.4226 0.472078L17.3162 5.01681H17.3178C17.3441 5.03338 17.3664 5.05377 17.3901 5.07273C17.4115 5.08914 17.4354 5.10396 17.4542 5.12212C17.4773 5.14586 17.4937 5.1731 17.5133 5.19923C17.5273 5.21899 17.5463 5.23619 17.5577 5.25754C17.5765 5.29036 17.5872 5.32493 17.6004 5.35951C17.607 5.3783 17.6184 5.39551 17.6234 5.41527C17.6385 5.47119 17.6463 5.52902 17.6465 5.58701V22.4739L24.2241 18.6864V10.0537C24.2241 9.99632 24.2324 9.93785 24.2472 9.88289C24.253 9.86313 24.2636 9.84593 24.2702 9.82713C24.2834 9.79255 24.2949 9.75703 24.3129 9.72516C24.3251 9.70381 24.3431 9.68661 24.3573 9.66685C24.3769 9.64056 24.3933 9.61348 24.4163 9.59038C24.4354 9.57158 24.4591 9.55756 24.4805 9.54115C24.5052 9.52139 24.5265 9.50004 24.5528 9.48443H24.5536L32.448 4.9397C32.5479 4.8821 32.6613 4.85178 32.7766 4.85178C32.8919 4.85178 33.0053 4.8821 33.1052 4.9397L40.9988 9.48443C41.0267 9.50084 41.048 9.52139 41.0727 9.54019C41.0931 9.55676 41.117 9.57158 41.136 9.58958C41.1589 9.61348 41.1753 9.64056 41.1949 9.66685C41.2099 9.68661 41.2279 9.70381 41.2395 9.72516C41.2583 9.75703 41.269 9.79255 41.2821 9.82713C41.2896 9.84593 41.3002 9.86313 41.3052 9.88289ZM40.0123 18.6865V11.1922L37.2499 12.7823L33.4337 14.9797V22.474L40.0131 18.6865H40.0123ZM32.1187 32.2438V24.7442L28.3648 26.8881L17.6457 33.006V40.5758L32.1187 32.2435V32.2438ZM1.8583 6.72455V32.2438L16.3297 40.5752V33.0068L8.76971 28.7281L8.76732 28.7265L8.76413 28.7249C8.73864 28.7101 8.71713 28.6887 8.6934 28.6707C8.67268 28.6542 8.64895 28.6411 8.63094 28.6229L8.62935 28.6205C8.608 28.6 8.59318 28.5745 8.57518 28.5516C8.55861 28.5293 8.53902 28.5105 8.52579 28.4875L8.525 28.485C8.51018 28.4604 8.5011 28.4308 8.49042 28.4029C8.47975 28.3782 8.46589 28.3551 8.4592 28.329V28.3282C8.45107 28.297 8.44948 28.264 8.44613 28.232C8.44295 28.2074 8.43626 28.1827 8.43626 28.158V10.5122L4.62073 8.31392L1.8583 6.72551V6.72455ZM9.09488 1.80112L2.51788 5.58701L9.09329 9.37275L15.6693 5.58606L9.09329 1.80112H9.09488ZM12.5151 25.4278L16.3305 23.2314V6.72455L13.5684 8.31487L9.75191 10.512V27.0188L12.5151 25.4278ZM32.7765 6.26874L26.2005 10.0545L32.7765 13.8404L39.3518 10.0537L32.7767 6.26874H32.7765ZM32.1185 14.9797L28.3024 12.7823L25.5401 11.1922V18.6865L29.3555 20.8831L32.1187 22.474V14.9797H32.1185ZM16.9869 31.8684L26.6325 26.3617L31.4542 23.61L24.8829 19.8266L17.317 24.1824L10.4214 28.1523L16.9869 31.8684Z" fill="#FF2D20"/>
</svg>
