<svg width="44" height="45" viewBox="0 0 44 45" fill="none" xmlns="http://www.w3.org/2000/svg">
<rect x="24.7703" y="5.36865" width="8.73438" height="19.9375" fill="#421E76"/>
<path d="M32.72 41.8062H11.22C10.5074 41.8054 9.82426 41.5155 9.32041 40.9999C8.81656 40.4843 8.53318 39.7853 8.53247 39.0562V6.05615C8.53318 5.32703 8.81656 4.62798 9.32041 4.11241C9.82426 3.59685 10.5074 3.30688 11.22 3.30615H32.72C33.4325 3.30688 34.1157 3.59685 34.6195 4.11241C35.1234 4.62798 35.4068 5.32703 35.4075 6.05615V28.9059L28.6887 25.4684L21.97 28.9059V6.05615H11.22V39.0562H32.72V33.5562H35.4075V39.0562C35.4064 39.7852 35.1229 40.484 34.6191 40.9995C34.1154 41.515 33.4324 41.8051 32.72 41.8062ZM28.6887 22.3939L32.72 24.4564V6.05615H24.6575V24.4564L28.6887 22.3939Z" fill="#F58E06"/>
</svg>
