<svg width="44" height="34" viewBox="0 0 44 34" fill="none" xmlns="http://www.w3.org/2000/svg">
<path d="M42.4532 24.2077L36.4985 18.2596C35.7072 17.4683 34.6323 17.0265 33.5112 17.0265H28.2819C27.1148 17.0265 26.1718 17.9695 26.1718 19.1367V24.3594C26.1718 25.4804 26.6136 26.5487 27.4049 27.34L33.3596 33.2881C34.1839 34.1124 35.5225 34.1124 36.3468 33.2881L42.4466 27.1884C43.2775 26.3641 43.2775 25.032 42.4532 24.2077ZM30.3987 22.8229C29.5217 22.8229 28.8161 22.1173 28.8161 21.2403C28.8161 20.3632 29.5217 19.6576 30.3987 19.6576C31.2758 19.6576 31.9814 20.3632 31.9814 21.2403C31.9814 22.1107 31.2758 22.8229 30.3987 22.8229ZM15.6406 17.0199C20.3028 17.0199 24.0814 13.2414 24.0814 8.57917C24.0814 3.92357 20.3028 0.14502 15.6406 0.14502C10.9784 0.14502 7.19988 3.92357 7.19988 8.58576C7.19988 13.2414 10.9784 17.0199 15.6406 17.0199ZM24.0682 24.3528V19.5323C23.2637 19.295 22.4262 19.1235 21.5491 19.1235H20.4479C18.9839 19.7961 17.3551 20.1786 15.6406 20.1786C13.9261 20.1786 12.3039 19.7961 10.8334 19.1235H9.7321C4.83911 19.1301 0.86932 23.0999 0.86932 27.9929V30.7361C0.86932 32.4836 2.2871 33.9014 4.0346 33.9014H27.2466C28.2688 33.9014 29.1656 33.4068 29.7459 32.6551L25.9212 28.8304C24.7276 27.6368 24.0682 26.0475 24.0682 24.3528Z" fill="#421E76"/>
<circle cx="15.3759" cy="8.59806" r="8.42741" fill="#F58E06"/>
</svg>
