<svg width="42" height="32" viewBox="0 0 42 32" fill="none" xmlns="http://www.w3.org/2000/svg">
<path d="M29.673 13.0088H11.8676C11.6636 13.0088 11.4967 13.1685 11.4967 13.3638V31.2011C11.4967 31.3963 11.6636 31.5561 11.8676 31.5561H29.673C29.877 31.5561 30.044 31.3963 30.044 31.2011V13.3638C30.044 13.1685 29.877 13.0088 29.673 13.0088ZM14.4643 15.8486H27.0764V21.04H14.4643V15.8486ZM27.0764 28.7163H14.4643V23.5248H27.0764V28.7163Z" fill="#421E76"/>
<path d="M17.1415 26.8378C17.1415 27.2337 17.269 27.6134 17.4958 27.8934C17.7226 28.1734 18.0303 28.3307 18.3511 28.3307C18.6719 28.3307 18.9796 28.1734 19.2064 27.8934C19.4333 27.6134 19.5607 27.2337 19.5607 26.8378C19.5607 26.4419 19.4333 26.0622 19.2064 25.7822C18.9796 25.5022 18.6719 25.345 18.3511 25.345C18.0303 25.345 17.7226 25.5022 17.4958 25.7822C17.269 26.0622 17.1415 26.4419 17.1415 26.8378ZM17.1415 18.5339C17.1415 18.9298 17.269 19.3095 17.4958 19.5895C17.7226 19.8694 18.0303 20.0267 18.3511 20.0267C18.6719 20.0267 18.9796 19.8694 19.2064 19.5895C19.4333 19.3095 19.5607 18.9298 19.5607 18.5339C19.5607 18.1379 19.4333 17.7582 19.2064 17.4783C18.9796 17.1983 18.6719 17.041 18.3511 17.041C18.0303 17.041 17.7226 17.1983 17.4958 17.4783C17.269 17.7582 17.1415 18.1379 17.1415 18.5339Z" fill="#421E76"/>
<path d="M34.5127 9.28245C32.4105 3.92054 27.054 0.106445 20.7795 0.106445C14.505 0.106445 9.14845 3.91611 7.04624 9.27802C3.09426 10.2848 0.184216 13.7751 0.207166 17.9174C0.234706 22.5475 3.95259 26.3128 8.63437 26.7164C8.8501 26.7342 9.0337 26.5701 9.0337 26.3616V23.6829C9.0337 23.5055 8.896 23.3547 8.7124 23.3325C7.4731 23.1817 6.30266 22.6584 5.40302 21.8024C4.30143 20.7602 3.69555 19.3588 3.69555 17.873C3.69555 16.6312 4.11324 15.4604 4.89812 14.4847C5.66465 13.5356 6.7433 12.8482 7.9321 12.5466L9.6717 12.1031L10.3097 10.4755C10.7044 9.46429 11.2552 8.5152 11.9483 7.65924C12.6322 6.80772 13.4447 6.06264 14.3535 5.44174C16.24 4.16003 18.4615 3.48148 20.7795 3.48148C23.0974 3.48148 25.3189 4.16003 27.2054 5.44618C28.1188 6.06708 28.9267 6.81216 29.6106 7.66368C30.3037 8.51963 30.8545 9.46872 31.2492 10.4799L31.8826 12.1031L33.6176 12.5466C36.1054 13.1852 37.845 15.3717 37.845 17.8686C37.845 19.3588 37.2391 20.7558 36.1375 21.798C35.2425 22.6495 34.0766 23.1773 32.8373 23.3281C32.6537 23.3503 32.5206 23.501 32.5206 23.6784V26.3616C32.5206 26.5701 32.7088 26.7342 32.9245 26.7164C37.5925 26.3084 41.3013 22.5475 41.3334 17.9263C41.3609 13.784 38.4555 10.2936 34.5127 9.28245Z" fill="#F58E06"/>
</svg>
