<svg width="54" height="33" viewBox="0 0 54 33" fill="none" xmlns="http://www.w3.org/2000/svg">
<path d="M26.7725 32.7112C26.5928 32.7112 26.4251 32.6633 26.2693 32.5795L24.676 31.633C24.4364 31.5013 24.5562 31.4533 24.628 31.4294C24.9515 31.3216 25.0114 31.2976 25.3468 31.1059C25.3828 31.082 25.4307 31.0939 25.4666 31.1179L26.6886 31.8487C26.7365 31.8726 26.7964 31.8726 26.8324 31.8487L31.6124 29.0813C31.6604 29.0573 31.6843 29.0094 31.6843 28.9495V23.4267C31.6843 23.3668 31.6604 23.3188 31.6124 23.2949L26.8324 20.5395C26.7845 20.5155 26.7246 20.5155 26.6886 20.5395L21.9086 23.2949C21.8606 23.3188 21.8367 23.3787 21.8367 23.4267V28.9495C21.8367 28.9974 21.8606 29.0573 21.9086 29.0813L23.2144 29.836C23.9212 30.1954 24.3645 29.7761 24.3645 29.3568V23.9059C24.3645 23.834 24.4244 23.7621 24.5082 23.7621H25.1192C25.1911 23.7621 25.263 23.822 25.263 23.9059V29.3568C25.263 30.3032 24.7478 30.8543 23.8493 30.8543C23.5738 30.8543 23.3581 30.8543 22.7472 30.5548L21.4892 29.836C21.1778 29.6563 20.9861 29.3209 20.9861 28.9615V23.4386C20.9861 23.0792 21.1778 22.7438 21.4892 22.5641L26.2693 19.7967C26.5688 19.629 26.9761 19.629 27.2756 19.7967L32.0557 22.5641C32.3672 22.7438 32.5589 23.0792 32.5589 23.4386V28.9615C32.5589 29.3209 32.3672 29.6563 32.0557 29.836L27.2756 32.6034C27.1199 32.6753 26.9402 32.7112 26.7725 32.7112ZM28.246 28.9136C26.1495 28.9136 25.7182 27.9551 25.7182 27.1405C25.7182 27.0686 25.7781 26.9967 25.862 26.9967H26.485C26.5568 26.9967 26.6167 27.0447 26.6167 27.1165C26.7126 27.7515 26.9881 28.063 28.258 28.063C29.2643 28.063 29.6956 27.8353 29.6956 27.2962C29.6956 26.9848 29.5758 26.7571 28.0064 26.6014C26.7006 26.4696 25.8859 26.1821 25.8859 25.1398C25.8859 24.1694 26.7006 23.5944 28.0663 23.5944C29.5998 23.5944 30.3545 24.1215 30.4504 25.2716C30.4504 25.3075 30.4384 25.3435 30.4144 25.3794C30.3905 25.4034 30.3545 25.4273 30.3186 25.4273H29.6956C29.6357 25.4273 29.5758 25.3794 29.5638 25.3195C29.4201 24.6606 29.0487 24.445 28.0663 24.445C26.9642 24.445 26.8324 24.8283 26.8324 25.1159C26.8324 25.4633 26.9881 25.5711 28.4737 25.7628C29.9472 25.9545 30.6421 26.23 30.6421 27.2603C30.6301 28.3145 29.7675 28.9136 28.246 28.9136Z" fill="#539E43"/>
<path d="M11.9412 11.1113C11.9412 10.8956 11.8214 10.692 11.6297 10.5842L6.55011 7.66101C6.46625 7.61309 6.37041 7.58913 6.27457 7.57715H6.22665C6.13081 7.57715 6.03497 7.61309 5.95111 7.66101L0.871541 10.5842C0.67986 10.692 0.560059 10.8956 0.560059 11.1113L0.572039 18.9702C0.572039 19.0781 0.631939 19.1859 0.72778 19.2338C0.823621 19.2937 0.943422 19.2937 1.02728 19.2338L4.04627 17.5087C4.23795 17.4008 4.35775 17.1972 4.35775 16.9815V13.3036C4.35775 13.088 4.47755 12.8843 4.66924 12.7765L5.95111 12.0337C6.04695 11.9738 6.15477 11.9499 6.26259 11.9499C6.37041 11.9499 6.47823 11.9738 6.56209 12.0337L7.84397 12.7765C8.03565 12.8843 8.15545 13.088 8.15545 13.3036V16.9815C8.15545 17.1972 8.27525 17.4008 8.46693 17.5087L11.4859 19.2338C11.5818 19.2937 11.7016 19.2937 11.7974 19.2338C11.8932 19.1859 11.9531 19.0781 11.9531 18.9702L11.9412 11.1113Z" fill="#333333"/>
<path d="M36.3565 0.293265C36.2607 0.245344 36.1409 0.245344 36.057 0.293265C35.9612 0.353165 35.9013 0.449006 35.9013 0.556827V8.3439C35.9013 8.41578 35.8654 8.48766 35.7935 8.53558C35.7216 8.57152 35.6497 8.57152 35.5778 8.53558L34.3079 7.80479C34.1163 7.69697 33.8886 7.69697 33.697 7.80479L28.6174 10.7399C28.4257 10.8477 28.3059 11.0514 28.3059 11.267V17.1253C28.3059 17.341 28.4257 17.5446 28.6174 17.6524L33.697 20.5876C33.8886 20.6954 34.1163 20.6954 34.3079 20.5876L39.3875 17.6524C39.5792 17.5446 39.699 17.341 39.699 17.1253V2.52156C39.699 2.29394 39.5792 2.09028 39.3875 1.98246L36.3565 0.293265ZM35.8893 15.1965C35.8893 15.2564 35.8654 15.3043 35.8174 15.3283L34.0803 16.3346C34.0324 16.3586 33.9725 16.3586 33.9246 16.3346L32.1875 15.3283C32.1395 15.3043 32.1156 15.2444 32.1156 15.1965V13.1839C32.1156 13.124 32.1395 13.076 32.1875 13.0521L33.9246 12.0458C33.9725 12.0218 34.0324 12.0218 34.0803 12.0458L35.8174 13.0521C35.8654 13.076 35.8893 13.1359 35.8893 13.1839V15.1965Z" fill="#333333"/>
<path d="M53.2605 13.1357C53.4522 13.0279 53.56 12.8243 53.56 12.6086V11.183C53.56 10.9674 53.4402 10.7637 53.2605 10.6559L48.2169 7.73272C48.0252 7.6249 47.7976 7.6249 47.6059 7.73272L42.5263 10.6678C42.3346 10.7757 42.2148 10.9793 42.2148 11.195V17.0532C42.2148 17.2689 42.3346 17.4725 42.5263 17.5804L47.57 20.4556C47.7616 20.5634 47.9893 20.5634 48.169 20.4556L51.2239 18.7544C51.3197 18.7065 51.3796 18.5987 51.3796 18.4909C51.3796 18.383 51.3197 18.2752 51.2239 18.2273L46.1204 15.2922C46.0245 15.2323 45.9646 15.1364 45.9646 15.0286V13.1957C45.9646 13.0878 46.0245 12.98 46.1204 12.9321L47.7137 12.0216C47.8096 11.9617 47.9294 11.9617 48.0252 12.0216L49.6186 12.9321C49.7144 12.992 49.7743 13.0878 49.7743 13.1957V14.6333C49.7743 14.7411 49.8342 14.8489 49.93 14.8968C50.0259 14.9567 50.1457 14.9567 50.2415 14.8968L53.2605 13.1357Z" fill="#333333"/>
<path d="M47.8335 12.8603C47.8695 12.8363 47.9174 12.8363 47.9533 12.8603L48.9237 13.4233C48.9596 13.4473 48.9836 13.4832 48.9836 13.5311V14.6573C48.9836 14.7052 48.9596 14.7411 48.9237 14.7651L47.9533 15.3282C47.9174 15.3521 47.8695 15.3521 47.8335 15.3282L46.8631 14.7651C46.8272 14.7411 46.8032 14.7052 46.8032 14.6573V13.5311C46.8032 13.4832 46.8272 13.4473 46.8631 13.4233L47.8335 12.8603Z" fill="#539E43"/>
<mask id="mask0_191_2383" style="mask-type:alpha" maskUnits="userSpaceOnUse" x="14" y="7" width="12" height="14">
<path d="M20.4351 7.75714C20.2434 7.64931 20.0158 7.64931 19.8241 7.75714L14.7805 10.6683C14.5888 10.7761 14.481 10.9798 14.481 11.1954V17.0297C14.481 17.2454 14.6008 17.449 14.7805 17.5569L19.8241 20.468C20.0158 20.5759 20.2434 20.5759 20.4351 20.468L25.4787 17.5569C25.6704 17.449 25.7782 17.2454 25.7782 17.0297V11.1954C25.7782 10.9798 25.6584 10.7761 25.4787 10.6683L20.4351 7.75714Z" fill="white"/>
</mask>
<g mask="url(#mask0_191_2383)">
<path d="M20.4351 7.75714C20.2434 7.64931 20.0158 7.64931 19.8241 7.75714L14.7805 10.6683C14.5888 10.7761 14.481 10.9798 14.481 11.1954V17.0297C14.481 17.2454 14.6008 17.449 14.7805 17.5569L19.8241 20.468C20.0158 20.5759 20.2434 20.5759 20.4351 20.468L25.4787 17.5569C25.6704 17.449 25.7782 17.2454 25.7782 17.0297V11.1954C25.7782 10.9798 25.6584 10.7761 25.4787 10.6683L20.4351 7.75714Z" fill="url(#paint0_linear_191_2383)"/>
<path d="M25.4908 10.6683L20.4232 7.75717C20.3753 7.73321 20.3154 7.70925 20.2674 7.69727L14.5889 17.4251C14.6368 17.485 14.6967 17.5329 14.7566 17.5689L19.8242 20.48C19.9679 20.5639 20.1357 20.5879 20.2914 20.5399L25.6225 10.7881C25.5866 10.7402 25.5387 10.7043 25.4908 10.6683Z" fill="url(#paint1_linear_191_2383)"/>
<path fill-rule="evenodd" clip-rule="evenodd" d="M25.5027 17.5568C25.6465 17.473 25.7543 17.3292 25.8022 17.1735L20.2434 7.68522C20.0997 7.66126 19.9439 7.67324 19.8122 7.7571L14.7805 10.6563L20.2075 20.5519C20.2794 20.5399 20.3632 20.5159 20.4351 20.48L25.5027 17.5568Z" fill="url(#paint2_linear_191_2383)"/>
<path fill-rule="evenodd" clip-rule="evenodd" d="M25.5027 17.557L20.4471 20.4681C20.3752 20.5041 20.3033 20.528 20.2195 20.54L20.3153 20.7197L25.922 17.4731V17.4012L25.7783 17.1616C25.7543 17.3293 25.6465 17.4731 25.5027 17.557Z" fill="url(#paint3_linear_191_2383)"/>
<path fill-rule="evenodd" clip-rule="evenodd" d="M25.5027 17.557L20.4471 20.4681C20.3752 20.5041 20.3033 20.528 20.2195 20.54L20.3153 20.7197L25.922 17.4731V17.4012L25.7783 17.1616C25.7543 17.3293 25.6465 17.4731 25.5027 17.557Z" fill="url(#paint4_linear_191_2383)"/>
</g>
<defs>
<linearGradient id="paint0_linear_191_2383" x1="22.1844" y1="9.92728" x2="16.6559" y2="18.6139" gradientUnits="userSpaceOnUse">
<stop stop-color="#41873F"/>
<stop offset="0.3288" stop-color="#418B3D"/>
<stop offset="0.6352" stop-color="#419637"/>
<stop offset="0.9319" stop-color="#3FA92D"/>
<stop offset="1" stop-color="#3FAE2A"/>
</linearGradient>
<linearGradient id="paint1_linear_191_2383" x1="19.3639" y1="14.7959" x2="33.2091" y2="7.27379" gradientUnits="userSpaceOnUse">
<stop offset="0.1376" stop-color="#41873F"/>
<stop offset="0.4032" stop-color="#54A044"/>
<stop offset="0.7136" stop-color="#66B848"/>
<stop offset="0.9081" stop-color="#6CC04A"/>
</linearGradient>
<linearGradient id="paint2_linear_191_2383" x1="14.2968" y1="14.1127" x2="25.9675" y2="14.1127" gradientUnits="userSpaceOnUse">
<stop offset="0.0919165" stop-color="#6CC04A"/>
<stop offset="0.2864" stop-color="#66B848"/>
<stop offset="0.5968" stop-color="#54A044"/>
<stop offset="0.8624" stop-color="#41873F"/>
</linearGradient>
<linearGradient id="paint3_linear_191_2383" x1="14.2968" y1="18.9505" x2="25.9675" y2="18.9505" gradientUnits="userSpaceOnUse">
<stop offset="0.0919165" stop-color="#6CC04A"/>
<stop offset="0.2864" stop-color="#66B848"/>
<stop offset="0.5968" stop-color="#54A044"/>
<stop offset="0.8624" stop-color="#41873F"/>
</linearGradient>
<linearGradient id="paint4_linear_191_2383" x1="27.6677" y1="9.65158" x2="24.7111" y2="25.1443" gradientUnits="userSpaceOnUse">
<stop stop-color="#41873F"/>
<stop offset="0.3288" stop-color="#418B3D"/>
<stop offset="0.6352" stop-color="#419637"/>
<stop offset="0.9319" stop-color="#3FA92D"/>
<stop offset="1" stop-color="#3FAE2A"/>
</linearGradient>
</defs>
</svg>
