<svg width="24" height="24" viewBox="0 0 24 24" fill="none" xmlns="http://www.w3.org/2000/svg">
<path opacity="0.4" d="M20.3992 16.33C20.1192 17.08 19.5292 17.65 18.7592 17.91C17.6792 18.27 16.5692 18.54 15.4492 18.73C15.3392 18.75 15.2292 18.7701 15.1192 18.7801C14.9392 18.8101 14.7592 18.83 14.5792 18.85C14.3592 18.8801 14.1292 18.9 13.8992 18.92C13.2692 18.97 12.6492 19 12.0192 19C11.3792 19 10.7392 18.97 10.1092 18.91C9.83923 18.89 9.57923 18.8601 9.31923 18.82C9.16923 18.8 9.01923 18.7801 8.87923 18.76C8.76923 18.74 8.65923 18.73 8.54923 18.71C7.43923 18.53 6.33923 18.26 5.26923 17.9C4.46923 17.63 3.85923 17.06 3.58923 16.33C3.31923 15.61 3.41923 14.77 3.84923 14.05L4.97923 12.17C5.21923 11.76 5.43923 10.97 5.43923 10.49V8.63005C5.43923 5.00005 8.38923 2.05005 12.0192 2.05005C15.6392 2.05005 18.5892 5.00005 18.5892 8.63005V10.49C18.5892 10.97 18.8092 11.76 19.0592 12.17L20.1892 14.05C20.5992 14.75 20.6792 15.57 20.3992 16.33Z" fill="#FE893E"/>
<path d="M12.0002 10.7599C11.5802 10.7599 11.2402 10.4199 11.2402 9.99989V6.89989C11.2402 6.47989 11.5802 6.13989 12.0002 6.13989C12.4202 6.13989 12.7602 6.47989 12.7602 6.89989V9.99989C12.7502 10.4199 12.4102 10.7599 12.0002 10.7599Z" fill="#FE893E"/>
<path d="M14.8297 20.01C14.4097 21.17 13.2997 22 11.9997 22C11.2097 22 10.4297 21.68 9.87969 21.11C9.55969 20.81 9.31969 20.41 9.17969 20C9.30969 20.02 9.43969 20.03 9.57969 20.05C9.80969 20.08 10.0497 20.11 10.2897 20.13C10.8597 20.18 11.4397 20.21 12.0197 20.21C12.5897 20.21 13.1597 20.18 13.7197 20.13C13.9297 20.11 14.1397 20.1 14.3397 20.07C14.4997 20.05 14.6597 20.03 14.8297 20.01Z" fill="#FE893E"/>
</svg>
