<svg width="55" height="32" viewBox="0 0 55 32" fill="none" xmlns="http://www.w3.org/2000/svg">
<path fill-rule="evenodd" clip-rule="evenodd" d="M34.9848 17.2711L34.8877 11.7755L28.9363 13.609C27.8779 13.861 26.7807 13.861 25.7223 13.609L20.0535 11.7566V17.3089C20.2168 19.3455 25.6737 19.9646 27.347 20.0496C28.6714 20.1205 33.9694 19.3739 34.6846 18.202C34.8465 17.9149 34.9433 17.5913 34.9672 17.2569L34.9848 17.2711ZM1.22808 29.5854H6.61874C6.41218 29.5263 6.22945 29.3963 6.09863 29.2154C5.96782 29.0344 5.89616 28.8124 5.89469 28.5836V1.03485C5.89469 0.761207 5.99595 0.498703 6.17632 0.304766C6.35669 0.110829 6.60148 0.00124951 6.85715 0L47.3467 0C47.6028 0.00124299 47.848 0.110671 48.0291 0.304474C48.2102 0.498277 48.3124 0.760773 48.3136 1.03485V28.5789C48.3126 28.8085 48.2406 29.0313 48.1088 29.2126C47.977 29.3938 47.7929 29.5232 47.5851 29.5806H53.2318C54.7285 29.5806 54.7285 32 53.2318 32H1.22808C0.94111 31.9808 0.671773 31.8452 0.474909 31.6209C0.278045 31.3966 0.168457 31.1004 0.168457 30.7927C0.168457 30.4849 0.278045 30.1887 0.474909 29.9644C0.671773 29.7401 0.94111 29.6046 1.22808 29.5854ZM7.54588 1.62079H46.7993V28.2859H7.54588V1.62079ZM25.6472 30.0343H28.8039C28.9476 30.0355 29.085 30.0971 29.1866 30.2059C29.2882 30.3146 29.3458 30.4617 29.3469 30.6155C29.3435 30.7676 29.2849 30.9123 29.1836 31.019C29.0822 31.1257 28.9461 31.1861 28.8039 31.1872H25.6251C25.4815 31.186 25.344 31.1244 25.2424 31.0156C25.1408 30.9069 25.0832 30.7598 25.0821 30.606C25.0832 30.4523 25.1408 30.3051 25.2424 30.1964C25.344 30.0877 25.4815 30.026 25.6251 30.0248L25.6472 30.0343ZM11.6121 24.1796C11.5 24.1884 11.3875 24.1724 11.2816 24.1326C11.1756 24.0928 11.0784 24.03 10.9961 23.9482C10.9138 23.8664 10.8482 23.7673 10.8033 23.6571C10.7584 23.5469 10.7353 23.4279 10.7353 23.3077C10.7353 23.1875 10.7584 23.0686 10.8033 22.9584C10.8482 22.8482 10.9138 22.7491 10.9961 22.6673C11.0784 22.5855 11.1756 22.5227 11.2816 22.4829C11.3875 22.4431 11.5 22.4271 11.6121 22.4359H42.8523C43.058 22.4521 43.2503 22.551 43.3907 22.7127C43.531 22.8744 43.609 23.087 43.609 23.3077C43.609 23.5285 43.531 23.741 43.3907 23.9027C43.2503 24.0645 43.058 24.1633 42.8523 24.1796H11.6121ZM11.7533 19.1282C11.5477 19.112 11.3553 19.0131 11.215 18.8514C11.0746 18.6896 10.9966 18.4771 10.9966 18.2563C10.9966 18.0356 11.0746 17.8231 11.215 17.6613C11.3553 17.4996 11.5477 17.4007 11.7533 17.3845H18.0491C18.0491 17.4649 18.0491 17.5452 18.0491 17.6208C18.1108 18.1652 18.3006 18.6839 18.6009 19.1282H11.7533ZM39.3998 17.3845H42.711C42.9167 17.4007 43.109 17.4996 43.2494 17.6613C43.3898 17.8231 43.4678 18.0356 43.4678 18.2563C43.4678 18.4771 43.3898 18.6896 43.2494 18.8514C43.109 19.0131 42.9167 19.112 42.711 19.1282H36.4903C36.5556 19.0081 36.6132 18.8834 36.6625 18.7549H37.3027C37.9207 18.7542 38.5143 18.4967 38.9583 18.0366L38.9936 17.9988C39.1681 17.8183 39.3169 17.6113 39.4351 17.3845H39.3998ZM37.3733 8.97814V13.7035H37.5102C37.5559 13.7035 37.5997 13.7229 37.6319 13.7575C37.6642 13.792 37.6824 13.8389 37.6824 13.8878V15.1683C37.6824 15.2172 37.6642 15.2641 37.6319 15.2987C37.5997 15.3332 37.5559 15.3526 37.5102 15.3526H37.3733V15.7968C37.4602 15.8153 37.5385 15.8654 37.5948 15.9386C37.6511 16.0118 37.682 16.1036 37.6824 16.1985C37.6812 16.3059 37.6409 16.4085 37.5699 16.4845C37.4989 16.5604 37.403 16.6036 37.3027 16.6048H36.6184C36.5173 16.6048 36.4202 16.5622 36.3483 16.4861C36.2764 16.41 36.2354 16.3067 36.2343 16.1985C36.2348 16.103 36.2664 16.0106 36.3236 15.9374C36.3808 15.8641 36.46 15.8144 36.5477 15.7968V15.3526H36.4065C36.3608 15.3526 36.317 15.3332 36.2847 15.2987C36.2524 15.2641 36.2343 15.2172 36.2343 15.1683V13.8972C36.2343 13.8483 36.2524 13.8015 36.2847 13.7669C36.317 13.7324 36.3608 13.7129 36.4065 13.7129H36.5477V9.26639L29.3249 11.6716C28.0376 12.0142 26.6916 12.0142 25.4044 11.6716L17.4575 9.12463L16.7334 8.89309C15.8504 8.50089 16.0623 7.57944 16.8968 7.3668L25.89 4.48907C26.7965 4.18183 27.7694 4.18183 28.6759 4.48907L37.5279 7.32428C38.4903 7.57472 38.6802 8.52924 37.5632 8.92144L37.3733 8.98287V8.97814Z" fill="#392C7D"/>
</svg>
