<svg width="54" height="54" viewBox="0 0 54 54" fill="none" xmlns="http://www.w3.org/2000/svg">
<path d="M46.1132 9.88672H30.6299L27.0957 16.843H7.23675V44.668H49.6474V9.88672H46.1132ZM46.1132 40.8586H11.1076V20.3211H46.1132V40.8586ZM46.1132 16.843H32.3129L33.9959 13.3648H45.9449V16.843H46.1132Z" fill="#7A9EDD"/>
<path d="M43.2522 23.4678H0.841484L7.23675 44.6678H49.6474L43.2522 23.4678Z" fill="#7A9EDD"/>
<path d="M34.5007 51.9937C44.2602 51.9937 52.1719 47.8982 52.1719 42.8462C52.1719 37.7942 44.2602 33.6987 34.5007 33.6987C24.7413 33.6987 16.8296 37.7942 16.8296 42.8462C16.8296 47.8982 24.7413 51.9937 34.5007 51.9937Z" fill="url(#paint0_radial_32_2364)"/>
<path d="M34.5008 51.3147C43.8792 51.3147 51.4819 47.5233 51.4819 42.8463C51.4819 38.1694 43.8792 34.3779 34.5008 34.3779C25.1224 34.3779 17.5197 38.1694 17.5197 42.8463C17.5197 47.5233 25.1224 51.3147 34.5008 51.3147Z" fill="#6280B6"/>
<path d="M37.9407 45.584L38.7822 41.3175C38.9021 40.9525 38.9218 40.5628 38.8393 40.1879C38.7569 39.813 38.5752 39.4662 38.3127 39.1826C37.5796 38.6708 36.6823 38.4388 35.7882 38.5301H34.3325L34.7498 36.4167C34.759 36.3768 34.7588 36.3354 34.7494 36.2956C34.74 36.2558 34.7216 36.2186 34.6956 36.1867C34.6695 36.1549 34.6365 36.1293 34.599 36.1117C34.5615 36.0942 34.5204 36.0852 34.4789 36.0855H32.4593C32.3952 36.0855 32.3331 36.1075 32.2836 36.1477C32.2342 36.1879 32.2005 36.2438 32.1884 36.3057L31.3031 40.8405C31.234 40.3565 31.0249 39.9023 30.7006 39.5321C30.3397 39.1764 29.9042 38.9025 29.4246 38.7294C28.945 38.5564 28.4328 38.4883 27.9237 38.5301H24.0193C23.9551 38.5301 23.893 38.5521 23.8436 38.5923C23.7941 38.6325 23.7604 38.6884 23.7483 38.7504L21.9374 47.9177C21.9283 47.9576 21.9285 47.999 21.9379 48.0388C21.9473 48.0786 21.9657 48.1158 21.9917 48.1477C22.0178 48.1795 22.0508 48.2051 22.0883 48.2227C22.1258 48.2402 22.1669 48.2492 22.2084 48.249H24.2347C24.2988 48.2489 24.3609 48.2269 24.4104 48.1867C24.4598 48.1465 24.4935 48.0907 24.5056 48.0287L24.9432 45.811H26.4579C27.1268 45.8275 27.7944 45.7425 28.437 45.5592C28.9794 45.3827 29.4754 45.0903 29.8894 44.7029C30.2286 44.3989 30.5181 44.0453 30.7478 43.6545L30.3859 45.4863C30.3768 45.5262 30.3769 45.5676 30.3863 45.6074C30.3957 45.6472 30.4141 45.6844 30.4402 45.7163C30.4662 45.7481 30.4992 45.7738 30.5368 45.7913C30.5743 45.8089 30.6153 45.8178 30.6569 45.8176H32.6764C32.7406 45.8176 32.8027 45.7956 32.8521 45.7554C32.9016 45.7152 32.9353 45.6593 32.9474 45.5973L33.9403 40.5656H35.3221C35.9111 40.5656 36.0827 40.6815 36.1299 40.7312C36.177 40.7809 36.2611 40.9366 36.1618 41.4385L35.3608 45.4946C35.3516 45.5345 35.3518 45.5759 35.3612 45.6157C35.3706 45.6555 35.389 45.6927 35.415 45.7246C35.4411 45.7564 35.4741 45.7821 35.5116 45.7996C35.5491 45.8171 35.5902 45.8261 35.6317 45.8259H37.6765C37.7427 45.8235 37.8058 45.7977 37.8543 45.7533C37.9028 45.7089 37.9335 45.6488 37.9407 45.584ZM28.6104 42.0579C28.5485 42.5794 28.2968 43.0613 27.9019 43.4144C27.4061 43.718 26.8247 43.8579 26.2425 43.8135H25.3438L25.99 40.5275H27.1529C28.0079 40.5275 28.3512 40.708 28.4892 40.8588C28.5945 41.0388 28.6598 41.2388 28.6806 41.4455C28.7015 41.6522 28.6776 41.861 28.6104 42.0579ZM46.5508 39.5338C46.1898 39.1781 45.7543 38.9041 45.2747 38.7311C44.7951 38.558 44.283 38.49 43.7739 38.5317H39.8711C39.807 38.5318 39.7448 38.5537 39.6954 38.5939C39.6459 38.6341 39.6123 38.69 39.6001 38.752L37.7893 47.9194C37.7802 47.9592 37.7803 48.0006 37.7897 48.0404C37.7991 48.0803 37.8175 48.1175 37.8435 48.1493C37.8696 48.1812 37.9026 48.2068 37.9401 48.2243C37.9776 48.2419 38.0187 48.2509 38.0602 48.2506H40.0899C40.154 48.2506 40.2162 48.2286 40.2656 48.1884C40.315 48.1482 40.3487 48.0923 40.3608 48.0303L40.7984 45.8126H42.3131C42.982 45.8291 43.6496 45.7442 44.2922 45.5609C44.8347 45.3844 45.3307 45.092 45.7446 44.7046C46.4532 44.0761 46.9307 43.2347 47.1028 42.3113C47.2397 41.8383 47.2611 41.3401 47.1652 40.8574C47.0692 40.3747 46.8587 39.9212 46.5508 39.5338ZM44.4454 42.0595C44.3835 42.5811 44.1318 43.063 43.7369 43.416C43.2411 43.7197 42.6597 43.8596 42.0775 43.8152H41.1788L41.8284 40.5275H42.9913C43.8463 40.5275 44.1896 40.708 44.3276 40.8588C44.4323 41.0391 44.497 41.2392 44.5173 41.4459C44.5376 41.6526 44.5131 41.8612 44.4454 42.0579V42.0595Z" fill="white"/>
<path d="M27.1529 40.2477C27.4254 40.214 27.7019 40.2339 27.9665 40.3061C28.2312 40.3783 28.4786 40.5014 28.6945 40.6684C28.8346 40.8793 28.9239 41.1188 28.9557 41.3688C28.9875 41.6188 28.9609 41.8726 28.878 42.111C28.8055 42.6978 28.5169 43.2382 28.0668 43.6297C27.5237 43.9722 26.8823 44.132 26.2391 44.0852H25.0055L25.7628 40.2477H27.1529ZM22.2151 47.9691H24.2347L24.716 45.5311H26.4562C27.096 45.5478 27.7346 45.4674 28.3495 45.2926C28.8528 45.1278 29.3126 44.8552 29.6959 44.4943C30.3617 43.9053 30.8099 43.1153 30.9699 42.2484C31.0975 41.8174 31.1199 41.3628 31.0354 40.9216C30.9509 40.4805 30.7618 40.0651 30.4835 39.7094C30.1484 39.3832 29.745 39.1328 29.3014 38.9758C28.8579 38.8187 28.3848 38.7588 27.9153 38.8001H24.0193L22.2151 47.9691ZM32.4661 36.3638H34.4856L33.9959 38.8018H35.7899C36.614 38.7167 37.4419 38.9227 38.1259 39.3831C38.3522 39.6362 38.507 39.9434 38.5746 40.2739C38.6423 40.6045 38.6204 40.9467 38.5113 41.2663L37.6698 45.5328H35.625L36.4261 41.4766C36.4818 41.3218 36.5017 41.1567 36.4842 40.9933C36.4668 40.83 36.4124 40.6725 36.3251 40.5326C36.0333 40.3254 35.6722 40.2353 35.3153 40.2808H33.7064L32.6697 45.5328H30.6501L32.4661 36.3638ZM42.9913 40.2477C43.2638 40.214 43.5403 40.2339 43.8049 40.3061C44.0695 40.3783 44.317 40.5014 44.5329 40.6684C44.673 40.8793 44.7623 41.1188 44.7941 41.3688C44.8259 41.6188 44.7993 41.8726 44.7164 42.111C44.6438 42.6978 44.3552 43.2382 43.9052 43.6297C43.3611 43.9729 42.7185 44.1327 42.0741 44.0852H40.8405L41.5978 40.2477H42.9913ZM38.0468 47.9691H40.0764L40.5577 45.5311H42.2962C42.9361 45.5478 43.5747 45.4674 44.1896 45.2926C44.6929 45.1278 45.1527 44.8552 45.536 44.4943C46.2018 43.9053 46.6499 43.1153 46.81 42.2484C46.9375 41.8174 46.96 41.3628 46.8755 40.9216C46.791 40.4805 46.6019 40.0651 46.3236 39.7094C45.9885 39.3837 45.5853 39.1338 45.142 38.977C44.6988 38.8203 44.2262 38.7605 43.7571 38.8018H39.8576L38.0468 47.9691Z" fill="#000004"/>
<defs>
<radialGradient id="paint0_radial_32_2364" cx="0" cy="0" r="1" gradientUnits="userSpaceOnUse" gradientTransform="translate(27.439 36.9152) scale(23.2047 22.8364)">
<stop stop-color="white"/>
<stop offset="0.5" stop-color="#4C6B96"/>
<stop offset="1" stop-color="#231F20"/>
</radialGradient>
</defs>
</svg>
