<svg width="36" height="36" viewBox="0 0 36 36" fill="none" xmlns="http://www.w3.org/2000/svg">
<g clip-path="url(#clip0_191_2466)">
<path d="M18.196 5.25732C8.53276 5.25732 0.696045 10.8486 0.696045 17.7559C0.696045 24.6632 8.53276 30.2573 18.196 30.2573C27.8593 30.2573 35.696 24.6632 35.696 17.7559C35.696 10.8486 27.8593 5.25732 18.196 5.25732ZM18.196 6.50486C27.5695 6.50486 34.7775 11.8661 34.7775 17.7559C34.7775 23.6456 27.564 29.0098 18.196 29.0098C8.82261 29.0098 1.61462 23.6456 1.61462 17.7559C1.61462 11.8661 8.82808 6.50486 18.196 6.50486ZM16.0705 8.98252L14.3017 21.3708H16.2756L17.2946 14.2715C18.9013 14.2715 19.566 14.1846 19.858 14.6109C20.161 15.0521 20.0057 15.536 19.1723 21.3708H21.174C22.0402 15.3385 22.4232 14.0585 21.6226 13.0588C20.8602 12.1036 19.2806 12.2725 17.5765 12.2725L18.0465 8.98252H16.0705ZM7.7926 12.2812L6.02167 24.6782H8.00836L8.47833 21.3853C10.7019 21.3853 12.0832 21.6047 13.3596 19.9811C14.7717 18.2179 15.1403 15.08 14.1329 13.5085C13.6079 12.6855 12.7627 12.2812 11.6165 12.2812H7.7926ZM23.3145 12.2812L21.5414 24.6782H23.5323L24.0023 21.3853C26.3397 21.3853 27.6334 21.5691 28.8836 19.9811C30.2956 18.2179 30.6643 15.08 29.6569 13.5085C29.1319 12.6855 28.2867 12.2812 27.1404 12.2812H23.3145ZM10.9072 14.2338C12.1485 14.2813 12.8588 14.6382 12.5585 16.7549C12.1309 19.7318 10.6228 19.4241 8.76672 19.4241L9.508 14.2367C10.0221 14.2367 10.4935 14.2179 10.9072 14.2338ZM26.4312 14.2338C27.674 14.2813 28.3763 14.6382 28.0761 16.7549C27.643 19.7748 26.0912 19.4241 24.2843 19.4241L25.0256 14.2367C25.5424 14.2367 26.017 14.2179 26.4312 14.2338Z" fill="black"/>
</g>
<defs>
<clipPath id="clip0_191_2466">
<rect width="35.081" height="35" fill="white" transform="translate(0.696045 0.257324)"/>
</clipPath>
</defs>
</svg>
