<svg width="37" height="45" viewBox="0 0 37 45" fill="none" xmlns="http://www.w3.org/2000/svg">
<path d="M35.9936 10.3897C36.6922 6.88018 37.0027 2.3479 34.5117 0.688632C32.0211 -0.972515 27.9574 1.0584 24.987 3.05451C21.8054 5.19269 18.4563 8.30517 17.0228 10.456L15.9229 12.1068C14.2923 12.0607 8.80316 11.9723 6.81458 12.7833C4.64441 13.6706 0.690306 18.3473 0.500246 20.2526C0.43156 20.9367 0.773105 21.273 0.981513 21.4113C1.38845 21.6833 2.5274 21.7816 3.96368 21.7816C5.69116 21.7816 7.84392 21.639 9.6749 21.4847L9.19363 22.2069C9.19128 22.2102 9.18846 22.213 9.1861 22.2163C9.18375 22.2196 9.18281 22.2238 9.18046 22.2271L6.15172 26.7735C4.11986 29.8225 4.12645 33.8048 6.1155 36.8434L4.81283 38.7981C4.29816 39.5706 4.12833 40.5035 4.33486 41.426C4.53903 42.3368 5.0871 43.1281 5.87745 43.6541C6.50456 44.0723 7.21258 44.2727 7.90649 44.2727C9.02992 44.2727 10.1176 43.7472 10.7701 42.7687L12.0699 40.8177C12.626 40.9222 13.1849 40.9744 13.74 40.9744C16.7481 40.9744 19.6399 39.4798 21.3575 36.9036L25.1206 31.2559C26.1509 34.4592 27.6384 38.6546 28.5346 39.2507C28.6579 39.3325 28.8616 39.4309 29.1326 39.4309C29.3217 39.4309 29.5433 39.3824 29.7926 39.2479C31.4773 38.3371 34.2699 32.8869 34.252 30.5437C34.2369 28.3961 32.0385 23.3623 31.3686 21.878L32.2272 20.5895C33.6611 18.4405 35.2451 14.1509 35.9936 10.3897ZM18.197 11.2389C19.3492 9.50998 22.3219 6.54616 25.7741 4.22592C29.4134 1.78054 32.3119 0.918681 33.7288 1.86334C35.1444 2.80611 35.4653 5.81321 34.609 10.1145C33.7966 14.1952 32.2055 18.0792 31.0529 19.8071L23.6095 30.9793L14.7981 25.1091C14.7948 25.1067 14.7924 25.1039 14.7887 25.1015C14.7854 25.0992 14.7816 25.0982 14.7778 25.0959L10.7522 22.4139L16.8469 13.2656C16.8652 13.242 16.8812 13.2171 16.8967 13.1912L18.197 11.2389ZM1.91347 20.2827C2.13693 19.0836 5.46581 14.8599 7.34807 14.0902C8.70201 13.5384 12.5973 13.4683 14.9947 13.5003L10.6784 19.9793C7.04698 20.3124 2.91364 20.501 1.91347 20.2827ZM7.32596 27.5568L9.97034 23.5876L13.4187 25.8848L6.98065 35.5459C5.62059 33.0558 5.72268 29.9627 7.32596 27.5568ZM9.59633 41.9863C8.97252 42.9211 7.65527 43.1436 6.66028 42.4798C6.17289 42.1562 5.83652 41.6721 5.71185 41.1174C5.59048 40.5755 5.68833 40.0297 5.98707 39.5809L7.54942 37.2367C7.55977 37.2216 7.57059 37.2071 7.57953 37.1915L14.5929 26.6672L18.2013 29.0712L9.59633 41.9863ZM20.1842 36.1208C18.5786 38.5285 15.7601 39.8143 12.9379 39.516L19.376 29.8535L22.8277 32.1531L20.1842 36.1208ZM32.8411 30.5545C32.8566 32.5863 30.2504 37.2715 29.2257 37.9527C28.6123 37.0607 27.2075 33.204 26.1245 29.7495L30.4404 23.2715C31.394 25.4708 32.8303 29.0923 32.8411 30.5545Z" fill="white"/>
<path d="M22.0185 18.9589C22.9584 19.586 24.023 19.8862 25.0768 19.8862C26.8659 19.8862 28.6245 19.021 29.691 17.4229L29.6915 17.4224C31.3804 14.883 30.6897 11.4412 28.1522 9.74992C26.9219 8.9304 25.4452 8.63967 23.9981 8.92993C22.5487 9.2202 21.3001 10.0571 20.482 11.2869C19.662 12.5166 19.3703 13.9919 19.6606 15.4409C19.9504 16.8894 20.7882 18.1389 22.0185 18.9589ZM21.6567 12.0688C22.2659 11.1533 23.1955 10.5299 24.2747 10.3135C24.5476 10.2589 24.8214 10.2321 25.0928 10.2321C25.8978 10.2321 26.6848 10.4683 27.3693 10.9246C29.2601 12.1845 29.7743 14.7479 28.5163 16.6401C27.2536 18.5322 24.6897 19.0441 22.8013 17.7852C21.8844 17.174 21.2601 16.2435 21.0442 15.1643C20.8278 14.0841 21.0451 12.9857 21.6567 12.0688Z" fill="white"/>
</svg>
