<svg width="36" height="36" viewBox="0 0 36 36" fill="none" xmlns="http://www.w3.org/2000/svg">
<g clip-path="url(#clip0_191_2368)">
<path d="M17.4568 0.335449C8.57254 0.33545 9.12733 4.17932 9.12733 4.17932L9.13724 8.16154H17.6153V9.35719H5.76978C5.76978 9.35719 0.0847168 8.71394 0.0847168 17.6576C0.0847162 26.6012 5.04677 26.2841 5.04677 26.2841H8.00815V22.1339C8.00815 22.1339 7.84852 17.1833 12.891 17.1833H21.2997C21.2997 17.1833 26.0241 17.2595 26.0241 12.6279V4.96984C26.0241 4.96984 26.7413 0.335449 17.4568 0.335449ZM12.782 3.01331C13.6255 3.01331 14.3073 3.6935 14.3073 4.53505C14.3073 5.37661 13.6255 6.05679 12.782 6.05679C11.9385 6.05679 11.2568 5.37661 11.2568 4.53505C11.2568 3.6935 11.9385 3.01331 12.782 3.01331Z" fill="url(#paint0_linear_191_2368)"/>
<path d="M17.7092 35.0692C26.5935 35.0692 26.0387 31.2253 26.0387 31.2253L26.0288 27.2431H17.5507V26.0474H29.3963C29.3963 26.0474 35.0813 26.6907 35.0813 17.747C35.0813 8.80337 30.1193 9.12053 30.1193 9.12053H27.1579V13.2707C27.1579 13.2707 27.3175 18.2213 22.2751 18.2213H13.8663C13.8663 18.2213 9.142 18.1451 9.142 22.7767V30.4348C9.142 30.4348 8.42471 35.0692 17.7092 35.0692ZM22.384 32.3913C21.5405 32.3913 20.8588 31.7111 20.8588 30.8695C20.8588 30.028 21.5405 29.3478 22.384 29.3478C23.2275 29.3478 23.9093 30.028 23.9093 30.8695C23.9093 31.7111 23.2275 32.3913 22.384 32.3913Z" fill="url(#paint1_linear_191_2368)"/>
</g>
<defs>
<linearGradient id="paint0_linear_191_2368" x1="3.44795" y1="3.45967" x2="20.7513" y2="20.63" gradientUnits="userSpaceOnUse">
<stop stop-color="#387EB8"/>
<stop offset="1" stop-color="#366994"/>
</linearGradient>
<linearGradient id="paint1_linear_191_2368" x1="14.0932" y1="14.4594" x2="32.6771" y2="32.068" gradientUnits="userSpaceOnUse">
<stop stop-color="#FFE052"/>
<stop offset="1" stop-color="#FFC331"/>
</linearGradient>
<clipPath id="clip0_191_2368">
<rect width="35.081" height="35" fill="white" transform="translate(0.0649414 0.257324)"/>
</clipPath>
</defs>
</svg>
