<svg width="36" height="36" viewBox="0 0 36 36" fill="none" xmlns="http://www.w3.org/2000/svg">
<g clip-path="url(#clip0_191_2455)">
<path d="M29.4753 12.2645C29.1122 12.1395 28.736 12.0212 28.3486 11.9094C28.4123 11.6496 28.4707 11.3931 28.5226 11.141C29.3755 7.00096 28.8179 3.66576 26.9137 2.56767C25.0878 1.51474 22.1017 2.61258 19.0859 5.23714C18.7959 5.48951 18.5051 5.75672 18.2144 6.03675C18.0208 5.85147 17.8274 5.67242 17.6345 5.50116C14.4739 2.69482 11.3058 1.51219 9.40348 2.61346C7.57935 3.66943 7.03915 6.80484 7.80687 10.7283C7.881 11.1073 7.96766 11.4943 8.06566 11.8878C7.61729 12.0151 7.18443 12.1508 6.77027 12.2951C3.06475 13.587 0.698242 15.6118 0.698242 17.7119C0.698242 19.881 3.23869 22.0566 7.09827 23.3758C7.40286 23.4799 7.7189 23.5784 8.0446 23.6718C7.93888 24.0974 7.84693 24.5144 7.76974 24.9212C7.03772 28.7766 7.60938 31.8379 9.42865 32.8872C11.3078 33.9709 14.4615 32.857 17.5324 30.1726C17.7752 29.9605 18.0188 29.7354 18.2628 29.4996C18.5791 29.8041 18.8949 30.0924 19.209 30.3628C22.1835 32.9225 25.1214 33.9561 26.939 32.9039C28.8163 31.8171 29.4264 28.5285 28.6343 24.5274C28.5738 24.2218 28.5034 23.9096 28.4243 23.5919C28.6458 23.5264 28.8632 23.4588 29.0752 23.3885C33.0876 22.0591 35.6982 19.91 35.6982 17.7119C35.6982 15.6042 33.2554 13.5658 29.4753 12.2645ZM28.605 21.9693C28.4136 22.0327 28.2173 22.0939 28.0171 22.1533C27.5742 20.751 26.9764 19.2598 26.2448 17.7192C26.9429 16.2153 27.5176 14.7432 27.9482 13.35C28.3062 13.4536 28.6537 13.5629 28.9886 13.6782C32.2274 14.7932 34.2031 16.4417 34.2031 17.7119C34.2031 19.065 32.0694 20.8214 28.605 21.9693ZM27.1675 24.8178C27.5178 26.587 27.5678 28.1866 27.3358 29.4371C27.1273 30.5607 26.7081 31.3099 26.1898 31.6099C25.0868 32.2483 22.728 31.4185 20.1841 29.2294C19.8925 28.9784 19.5987 28.7105 19.3041 28.4269C20.2903 27.3483 21.2759 26.0944 22.2379 24.7018C23.9299 24.5517 25.5284 24.3062 26.9781 23.9711C27.0494 24.2591 27.1129 24.5416 27.1675 24.8178ZM12.6305 31.4996C11.5529 31.8802 10.6946 31.8911 10.1757 31.5919C9.07173 30.9551 8.61277 28.4972 9.23882 25.2C9.31053 24.8224 9.39588 24.4345 9.49425 24.0381C10.928 24.3551 12.5148 24.5833 14.2109 24.7208C15.1793 26.0834 16.1934 27.336 17.2154 28.4327C16.9921 28.6482 16.7697 28.8535 16.5486 29.0468C15.1906 30.2338 13.8298 31.076 12.6305 31.4996ZM7.58184 21.961C5.87521 21.3777 4.46581 20.6196 3.49973 19.7923C2.63165 19.0489 2.19337 18.3108 2.19337 17.7119C2.19337 16.4375 4.09344 14.8119 7.26243 13.707C7.64694 13.5729 8.04946 13.4466 8.46718 13.3279C8.90515 14.7526 9.47967 16.2421 10.173 17.7483C9.4707 19.2769 8.88801 20.7902 8.44575 22.2315C8.14796 22.1459 7.85945 22.0558 7.58184 21.961ZM9.27421 10.4412C8.61645 7.07965 9.05329 4.54381 10.1526 3.90748C11.3235 3.2296 13.9127 4.19611 16.6417 6.61925C16.8161 6.77413 16.9913 6.93623 17.1669 7.10394C16.15 8.19587 15.1451 9.43899 14.1853 10.7936C12.5392 10.9462 10.9635 11.1913 9.51481 11.5195C9.42373 11.1531 9.34305 10.7931 9.27421 10.4412ZM24.3716 14.1691C24.0253 13.5709 23.6698 12.9869 23.3073 12.4188C24.424 12.5599 25.494 12.7473 26.4987 12.9767C26.1971 13.9434 25.8211 14.9542 25.3785 15.9905C25.061 15.3877 24.7252 14.78 24.3716 14.1691ZM18.2149 8.1725C18.9046 8.91966 19.5952 9.75385 20.2746 10.6589C19.59 10.6266 18.897 10.6098 18.1982 10.6098C17.5061 10.6098 16.8182 10.6262 16.1379 10.658C16.8179 9.76133 17.5145 8.92826 18.2149 8.1725ZM12.0188 14.1795C11.6729 14.7794 11.3433 15.3838 11.0308 15.9894C10.5954 14.9567 10.2229 13.9413 9.91863 12.9608C10.9172 12.7374 11.9821 12.5547 13.0917 12.4162C12.7242 12.9895 12.3657 13.5779 12.0188 14.1794V14.1795ZM13.1237 23.1144C11.9773 22.9865 10.8964 22.8131 9.89801 22.5958C10.2071 21.5979 10.5879 20.5608 11.0325 19.5059C11.3458 20.111 11.6767 20.7157 12.0247 21.3169H12.0248C12.3793 21.9294 12.7467 22.5293 13.1237 23.1144ZM18.2563 27.3568C17.5476 26.5922 16.8408 25.7464 16.1505 24.8366C16.8206 24.8629 17.5039 24.8764 18.1982 24.8764C18.9116 24.8764 19.6169 24.8603 20.311 24.8294C19.6294 25.7555 18.9413 26.6026 18.2563 27.3568ZM25.3928 19.4521C25.8606 20.5184 26.2549 21.5501 26.5681 22.5311C25.5533 22.7626 24.4576 22.949 23.3032 23.0876C23.6665 22.5118 24.0252 21.9177 24.3776 21.3066C24.7341 20.6884 25.0727 20.0692 25.3928 19.4521ZM23.0825 20.5596C22.5353 21.5083 21.9737 22.4139 21.4034 23.2687C20.3648 23.3429 19.2918 23.3812 18.1982 23.3812C17.1091 23.3812 16.0496 23.3474 15.0294 23.2811C14.4362 22.4151 13.8623 21.5068 13.3186 20.5678H13.3188C12.7766 19.6313 12.2775 18.6869 11.8254 17.7478C12.2774 16.8065 12.7751 15.8611 13.3142 14.9263L13.3141 14.9265C13.8546 13.9892 14.4235 13.0853 15.0112 12.2247C16.0521 12.146 17.1195 12.105 18.1982 12.105H18.1982C19.2818 12.105 20.3506 12.1463 21.3912 12.2257C21.9699 13.08 22.5349 13.9809 23.0775 14.9184C23.6263 15.8663 24.1305 16.8055 24.5864 17.7266C24.1318 18.6635 23.6288 19.6121 23.0825 20.5596ZM26.1669 3.863C27.3389 4.53888 27.7947 7.26474 27.0583 10.8392C27.0113 11.0673 26.9584 11.2996 26.901 11.535C25.4489 11.2 23.8721 10.9506 22.2212 10.7958C21.2595 9.42622 20.2629 8.18116 19.2626 7.10326C19.5315 6.84453 19.8001 6.59782 20.0675 6.36501C22.6515 4.11631 25.0665 3.22848 26.1669 3.863ZM18.1982 14.5866C19.9243 14.5866 21.3236 15.9858 21.3236 17.7119C21.3236 19.438 19.9243 20.8373 18.1982 20.8373C16.4722 20.8373 15.0729 19.438 15.0729 17.7119C15.0729 15.9858 16.4722 14.5866 18.1982 14.5866Z" fill="#00D8FF"/>
</g>
<defs>
<clipPath id="clip0_191_2455">
<rect width="35.081" height="35" fill="white" transform="translate(0.698242 0.257324)"/>
</clipPath>
</defs>
</svg>
