<svg width="19" height="20" viewBox="0 0 19 20" fill="none" xmlns="http://www.w3.org/2000/svg">
<path d="M8.29297 16.7163C10.0679 16.7159 11.7918 16.1217 13.19 15.0283L17.586 19.4243L19 18.0103L14.604 13.6143C15.698 12.216 16.2925 10.4917 16.293 8.71631C16.293 4.30531 12.704 0.716309 8.29297 0.716309C3.88197 0.716309 0.292969 4.30531 0.292969 8.71631C0.292969 13.1273 3.88197 16.7163 8.29297 16.7163ZM8.29297 2.71631C11.602 2.71631 14.293 5.40731 14.293 8.71631C14.293 12.0253 11.602 14.7163 8.29297 14.7163C4.98397 14.7163 2.29297 12.0253 2.29297 8.71631C2.29297 5.40731 4.98397 2.71631 8.29297 2.71631Z" fill="#717171"/>
</svg>
