<svg width="18" height="20" viewBox="0 0 18 20" fill="none" xmlns="http://www.w3.org/2000/svg">
<path fill-rule="evenodd" clip-rule="evenodd" d="M10.204 0.212556C8.347 -0.205444 7 1.39056 7 2.96856V16.9686C7 18.5466 8.347 20.1426 10.204 19.7246C14.666 18.7206 18 14.7346 18 9.96856C18 5.20256 14.666 1.21656 10.204 0.212556ZM10.293 6.26156C10.4805 6.07409 10.7348 5.96877 11 5.96877C11.2652 5.96877 11.5195 6.07409 11.707 6.26156L14.707 9.26156C14.8945 9.44908 14.9998 9.70339 14.9998 9.96856C14.9998 10.2337 14.8945 10.488 14.707 10.6756L11.707 13.6756C11.5184 13.8577 11.2658 13.9585 11.0036 13.9562C10.7414 13.954 10.4906 13.8488 10.3052 13.6634C10.1198 13.478 10.0146 13.2272 10.0123 12.965C10.01 12.7028 10.1108 12.4502 10.293 12.2616L11.586 10.9686H1C0.734784 10.9686 0.48043 10.8632 0.292893 10.6757C0.105357 10.4881 0 10.2338 0 9.96856C0 9.70334 0.105357 9.44899 0.292893 9.26145C0.48043 9.07391 0.734784 8.96856 1 8.96856H11.586L10.293 7.67556C10.1055 7.48803 10.0002 7.23372 10.0002 6.96856C10.0002 6.70339 10.1055 6.44908 10.293 6.26156Z" fill="white"/>
</svg>
