<svg width="37" height="44" viewBox="0 0 37 44" fill="none" xmlns="http://www.w3.org/2000/svg">
<path d="M18.8484 41.2531L21.8178 39.7262L19.7156 30.0151L20.4014 28.8149L20.3492 27.5893C19.0401 27.5138 18.6558 27.5138 17.3468 27.5893L17.2945 28.8149L17.9795 30.0151L15.8772 39.7262L18.8484 41.2531Z" fill="#392C7D"/>
<path d="M9.84772 17.5552C10.601 20.2682 11.6825 22.3041 13.0353 23.7706C14.5095 25.3673 16.2825 26.2729 18.289 26.6317L18.4692 26.6629L18.6495 26.6242C20.8712 26.1275 22.6452 25.1776 24.0606 23.5977C25.3717 22.1313 26.3498 20.1511 27.0689 17.51C27.6779 17.136 28.1343 16.5251 28.4425 15.7168C28.7813 14.8264 28.9369 13.6791 28.916 12.324L28.9085 11.7886L28.4853 11.4874C28.434 11.4487 28.3847 11.4156 28.3345 11.3826C28.8951 3.4884 27.843 -1.05735 18.8933 0.210764C15.8566 0.638575 12.557 -0.304787 10.6749 1.15318C8.30981 3.51387 8.142 7.05493 8.78329 11.2107C8.64193 11.2909 8.49861 11.3825 8.3573 11.4874L7.93514 11.7886L7.92756 12.324C7.90667 13.7084 8.06987 14.8764 8.42281 15.7707C8.74251 16.5855 9.21579 17.1907 9.84772 17.5552ZM11.174 13.2588C11.2033 13.1653 11.2318 13.0567 11.2631 12.9359L11.2764 12.9397L11.3162 12.7178C11.4604 12.1153 11.6208 11.3231 11.7659 10.7168C11.8219 10.5374 11.8836 10.3637 11.9519 10.1937C14.0341 11.8707 17.771 12.0615 20.9671 9.06339L20.3969 10.7064L20.9766 10.8273L21.6293 9.71964L21.5468 10.4959L22.1662 10.5808L22.5495 9.30982C23.3065 9.77061 24.1451 10.3853 24.8936 10.053C25.1422 10.6507 25.3348 11.3023 25.46 12.0029L25.6203 12.9037L25.9012 12.8867L26.033 13.3542C26.3641 13.3108 26.6544 13.3051 26.939 13.3003C26.8953 13.9566 26.7911 14.509 26.6259 14.9481C26.4533 15.3966 26.2181 15.6922 25.9201 15.8017L25.4316 15.9839L25.2978 16.5108C24.6547 19.0463 23.7932 20.8848 22.6396 22.1719C21.5525 23.3872 20.1713 24.1369 18.4333 24.5543C16.904 24.2484 15.5569 23.5382 14.4375 22.3267C13.2356 21.0236 12.2774 19.1313 11.6105 16.5355L11.4681 15.9812L10.9511 15.8122C10.6466 15.7121 10.4057 15.4222 10.2311 14.9755C10.0565 14.5336 9.9484 13.9689 9.90473 13.2956C10.3808 13.2191 10.9121 13.0765 11.174 13.2588Z" fill="#392C7D"/>
<path d="M34.7178 32.6308L34.018 30.9005C33.2622 29.2329 32.3407 27.769 31.2953 26.7234L30.9736 26.4033L30.5401 26.4175L25.4249 26.6025V28.832L30.153 28.6602C31.3825 30.0501 32.4165 32.2115 33.1309 34.5713C33.8414 36.9075 34.2228 39.408 34.1659 41.5156L2.93466 41.5156C3.01999 39.6704 3.24865 37.441 3.79034 35.2597C4.38986 32.8386 5.37465 30.4891 6.98074 28.8546L11.2677 28.8942V26.6676L6.58227 26.6242L6.1857 26.6223L5.8803 26.8999C3.73632 28.8781 2.48026 31.7591 1.74972 34.6996C1.04584 37.5514 0.833349 40.4654 0.793492 42.6119L0.770752 43.7507H1.84565L35.1506 43.7507H36.0965L36.1998 42.7517C36.4636 40.1672 36.0462 36.8915 35.1345 33.8896C35.0057 33.4645 34.8665 33.0442 34.7178 32.6308Z" fill="#392C7D"/>
</svg>
