<svg width="36" height="44" viewBox="0 0 36 44" fill="none" xmlns="http://www.w3.org/2000/svg">
<path d="M17.1851 31.333C17.1851 30.9699 16.8909 30.6753 16.5274 30.6753H1.65821C2.00064 24.191 7.38265 19.0217 13.9485 19.0217C16.3205 19.0217 18.6232 19.6978 20.6064 20.9776C20.9115 21.174 21.3184 21.0868 21.5157 20.7812C21.7126 20.476 21.6245 20.0687 21.3197 19.8718C19.1226 18.4552 16.5739 17.7063 13.9485 17.7063C6.4369 17.7063 0.325317 23.8192 0.325317 31.333C0.325317 31.696 0.619519 31.9907 0.982996 31.9907H16.5274C16.8905 31.9907 17.1851 31.696 17.1851 31.333Z" fill="white"/>
<path d="M13.7205 16.487C18.0664 16.487 21.6021 12.9509 21.6021 8.60407C21.6021 4.26076 18.0664 0.726837 13.7205 0.726837C9.37759 0.726837 5.84454 4.26076 5.84454 8.60407C5.84454 12.9504 9.37759 16.487 13.7205 16.487ZM13.7205 2.04219C17.3408 2.04219 20.2867 4.98596 20.2867 8.60407C20.2867 12.2252 17.3412 15.1716 13.7205 15.1716C10.1032 15.1716 7.1599 12.2252 7.1599 8.60407C7.1599 4.98596 10.1032 2.04219 13.7205 2.04219Z" fill="white"/>
<path d="M35.4046 39.0669L30.8473 32.4392C31.7168 31.2953 32.1986 29.9129 32.2083 28.4515C32.235 24.758 29.2522 21.7305 25.5583 21.7024C21.8783 21.6849 18.8368 24.6637 18.8096 28.3572C18.7995 29.8554 19.2906 31.2383 20.1171 32.3612L15.4607 38.9244C15.3042 39.1458 15.2989 39.4404 15.448 39.6667C15.5971 39.8929 15.8689 40.0047 16.1346 39.9482L19.8185 39.1607L20.4657 42.6214C20.5169 42.8954 20.7349 43.1072 21.0102 43.1506C21.0444 43.1559 21.0786 43.1585 21.1119 43.1585C21.3509 43.1585 21.5745 43.0283 21.6902 42.8134L25.4566 35.8447L29.1238 42.8661C29.2382 43.0853 29.464 43.2195 29.706 43.2195C29.7367 43.2195 29.7679 43.2173 29.799 43.2129C30.0748 43.1734 30.2962 42.9652 30.3514 42.692L31.0486 39.2423L34.7149 40.081C34.978 40.1411 35.2538 40.0341 35.4059 39.8096C35.5589 39.5842 35.5581 39.2896 35.4046 39.0669ZM25.5136 23.0178C25.525 23.0178 25.5372 23.0178 25.5486 23.0178C28.5174 23.0401 30.9144 25.474 30.8925 28.4423C30.8833 29.8787 30.3137 31.2265 29.2886 32.2358C28.2736 33.2355 26.9337 33.7848 25.5114 33.7844C25.4982 33.7844 25.4842 33.7844 25.4706 33.7844C22.5031 33.7642 20.1052 31.3335 20.125 28.366C20.1465 25.4095 22.561 23.0178 25.5136 23.0178ZM21.4175 40.5528L20.9883 38.2553C20.9558 38.0812 20.8537 37.9269 20.7064 37.8287C20.5582 37.7296 20.3766 37.695 20.2039 37.7327L17.5105 38.3084L21.0207 33.3609C21.9529 34.2053 23.1214 34.7889 24.417 35.0024L21.4175 40.5528ZM30.6851 37.8085C30.511 37.7686 30.3304 37.8011 30.1818 37.8966C30.0327 37.9931 29.9292 38.1452 29.8937 38.3193L29.4307 40.6107L26.5097 35.0186C27.7777 34.8297 28.9563 34.2834 29.9296 33.4257L33.3649 38.4219L30.6851 37.8085Z" fill="white"/>
</svg>
