<svg width="36" height="36" viewBox="0 0 36 36" fill="none" xmlns="http://www.w3.org/2000/svg">
<g clip-path="url(#clip0_191_2425)">
<path d="M8.64683 0.257324C8.85191 0.257324 27.6917 0.257324 28.0335 0.257324C28.9769 0.257324 29.8929 0.407715 30.7816 0.722168C32.0667 1.18701 33.2289 2.00732 34.1039 3.07373C34.9925 4.14014 35.5804 5.45264 35.7855 6.81982C35.8675 7.32568 35.8812 7.83154 35.8812 8.3374C35.8812 8.80225 35.8812 25.1812 35.8812 25.9194C35.8812 26.3569 35.8812 26.8081 35.8812 27.2456C35.8812 27.8472 35.8539 28.4624 35.7308 29.0503C35.4574 30.4038 34.8148 31.6753 33.8851 32.7007C32.9691 33.7261 31.766 34.4917 30.4671 34.9019C29.6742 35.1479 28.8539 35.2573 28.0199 35.2573C27.6507 35.2573 8.59214 35.2573 8.30503 35.2437C6.9105 35.1753 5.52964 34.7241 4.36753 33.9448C3.23277 33.1792 2.30308 32.1128 1.70152 30.8823C1.18198 29.8296 0.922219 28.6538 0.922219 27.478C0.922219 27.2046 0.922219 8.31006 0.922219 8.03662C0.894875 6.87451 1.14097 5.72607 1.64683 4.68701C2.23472 3.45654 3.15073 2.37646 4.2855 1.61084C5.44761 0.817871 6.8148 0.353027 8.20933 0.284668C8.34605 0.257324 8.49644 0.257324 8.64683 0.257324Z" fill="url(#paint0_linear_191_2425)"/>
<path d="M30.3987 28.8862C30.2756 28.6948 30.1389 28.5034 29.9885 28.3257C29.6467 27.9155 29.2502 27.5601 28.8127 27.2593C28.2659 26.8901 27.6233 26.6577 26.967 26.6304C26.5022 26.603 26.0374 26.6851 25.5999 26.8491C25.1624 26.9995 24.7385 27.2183 24.3284 27.437C23.8499 27.6831 23.3713 27.9292 22.8655 28.1343C22.2639 28.3804 21.635 28.5718 20.9924 28.7085C20.1858 28.8589 19.3655 28.9136 18.5588 28.8999C17.0959 28.8726 15.6331 28.6538 14.2385 28.2437C13.0081 27.8745 11.8323 27.3687 10.7249 26.7261C9.75415 26.1655 8.85181 25.5229 8.00415 24.7983C7.30688 24.1968 6.66431 23.5542 6.06274 22.8706C5.65259 22.3921 5.2561 21.8862 4.88696 21.3667C4.73657 21.1616 4.59985 20.9429 4.47681 20.7241L0.867432 16.8276V8.00928C0.867432 3.72998 4.32642 0.257324 8.60571 0.257324H15.51L20.6233 5.45264C32.1624 13.3003 28.4299 21.9546 28.4299 21.9546C28.4299 21.9546 31.7112 25.646 30.3987 28.8862Z" fill="url(#paint1_linear_191_2425)"/>
<path d="M20.6506 5.45264C32.1897 13.3003 28.4573 21.9546 28.4573 21.9546C28.4573 21.9546 31.7385 25.6597 30.4124 28.8999C30.4124 28.8999 29.0588 26.6304 26.7893 26.6304C24.6018 26.6304 23.3167 28.8999 18.9143 28.8999C9.11157 28.8999 4.47681 20.7105 4.47681 20.7105C13.3088 26.521 19.3381 22.4058 19.3381 22.4058C15.3596 20.0952 6.89673 9.04834 6.89673 9.04834C14.2659 15.3237 17.4514 16.978 17.4514 16.978C15.551 15.4058 10.219 7.72217 10.219 7.72217C14.4846 12.0425 22.9612 18.0718 22.9612 18.0718C25.3674 11.3999 20.6506 5.45264 20.6506 5.45264Z" fill="white"/>
</g>
<defs>
<linearGradient id="paint0_linear_191_2425" x1="21.6884" y1="-0.991574" x2="15.0758" y2="36.5106" gradientUnits="userSpaceOnUse">
<stop stop-color="#FAAE42"/>
<stop offset="1" stop-color="#EF3E31"/>
</linearGradient>
<linearGradient id="paint1_linear_191_2425" x1="18.7245" y1="0.822834" x2="13.8848" y2="28.27" gradientUnits="userSpaceOnUse">
<stop stop-color="#E39F3A"/>
<stop offset="1" stop-color="#D33929"/>
</linearGradient>
<clipPath id="clip0_191_2425">
<rect width="35" height="35" fill="white" transform="translate(0.867432 0.257324)"/>
</clipPath>
</defs>
</svg>
