<svg width="69" height="62" viewBox="0 0 69 62" fill="none" xmlns="http://www.w3.org/2000/svg">
<path fill-rule="evenodd" clip-rule="evenodd" d="M19.6962 12.2227C16.8967 14.9809 14.7567 18.3361 13.4362 22.0376C12.1156 25.7391 11.6486 29.6912 12.07 33.5986C12.1092 34.1234 11.9426 34.6429 11.6053 35.047C11.2681 35.4511 10.7868 35.708 10.2634 35.7633C9.73997 35.8186 9.2156 35.6679 8.80137 35.3432C8.38715 35.0185 8.11562 34.5453 8.04432 34.0238C7.55823 29.5109 8.098 24.9464 9.62331 20.6713C11.1486 16.3963 13.6201 12.521 16.8531 9.33501C28.7479 -2.39784 47.9368 -2.20749 59.7102 9.73191C71.4835 21.6673 71.4066 40.8562 59.5077 52.589C54 58.0303 46.606 61.1376 38.8648 61.2641C35.9381 61.3163 33.0191 60.9466 30.1978 60.1666C29.6801 60.0237 29.2403 59.681 28.9752 59.2139C28.7102 58.7468 28.6415 58.1935 28.7844 57.6758C28.9272 57.1581 29.2699 56.7183 29.737 56.4532C30.2041 56.1882 30.7574 56.1195 31.2751 56.2624C33.722 56.9391 36.2536 57.2596 38.7919 57.2141C45.4943 57.1071 51.8968 54.4173 56.6646 49.7054C66.9556 39.5561 67.0407 22.9349 56.8266 12.575C46.6125 2.21511 29.9872 2.06931 19.6962 12.2186V12.2227Z" fill="#1CBEEF"/>
<path fill-rule="evenodd" clip-rule="evenodd" d="M11.5557 36.1703C11.3786 36.3687 11.1641 36.5303 10.9246 36.6458C10.685 36.7613 10.4251 36.8285 10.1596 36.8435C9.89406 36.8586 9.62819 36.8212 9.37713 36.7335C9.12607 36.6457 8.89475 36.5094 8.69637 36.3323L1.73037 30.1358C1.51623 29.9639 1.33929 29.7503 1.21031 29.5078C1.08133 29.2654 1.003 28.9993 0.980084 28.7256C0.957171 28.452 0.990153 28.1766 1.07702 27.9161C1.1639 27.6556 1.30284 27.4155 1.48541 27.2103C1.66799 27.0052 1.89037 26.8394 2.13904 26.7229C2.38771 26.6064 2.65748 26.5417 2.93193 26.5328C3.20639 26.5238 3.4798 26.5707 3.73554 26.6708C3.99128 26.7708 4.22401 26.9217 4.41957 27.1145L11.3856 33.311C11.5845 33.4876 11.7468 33.7016 11.863 33.9408C11.9792 34.1801 12.0472 34.4399 12.063 34.7054C12.0788 34.971 12.0421 35.237 11.9551 35.4883C11.868 35.7397 11.7323 35.9714 11.5557 36.1703Z" fill="#1CBEEF"/>
<path fill-rule="evenodd" clip-rule="evenodd" d="M8.421 35.9152C8.58056 36.1279 8.78045 36.3071 9.00927 36.4426C9.2381 36.5781 9.49137 36.6672 9.75462 36.7048C10.0179 36.7424 10.286 36.7278 10.5436 36.6618C10.8012 36.5958 11.0433 36.4797 11.256 36.3202L19.356 30.2452C19.7857 29.9229 20.0697 29.4432 20.1456 28.9115C20.2216 28.3799 20.0832 27.8398 19.761 27.4102C19.4388 26.9805 18.959 26.6965 18.4274 26.6205C17.8957 26.5446 17.3557 26.6829 16.926 27.0052L8.826 33.0802C8.39635 33.4024 8.1123 33.8821 8.03635 34.4138C7.9604 34.9454 8.09876 35.4855 8.421 35.9152ZM37.5 16.4752C38.0371 16.4752 38.5521 16.6885 38.9319 17.0683C39.3117 17.448 39.525 17.9631 39.525 18.5002V32.6752C39.525 33.2122 39.3117 33.7273 38.9319 34.1071C38.5521 34.4868 38.0371 34.7002 37.5 34.7002C36.9629 34.7002 36.4479 34.4868 36.0681 34.1071C35.6883 33.7273 35.475 33.2122 35.475 32.6752V18.5002C35.475 17.9631 35.6883 17.448 36.0681 17.0683C36.4479 16.6885 36.9629 16.4752 37.5 16.4752Z" fill="#1CBEEF"/>
<path fill-rule="evenodd" clip-rule="evenodd" d="M51.675 32.6751C51.675 33.2122 51.4616 33.7273 51.0819 34.107C50.7021 34.4868 50.187 34.7001 49.65 34.7001H37.5C36.9629 34.7001 36.4478 34.4868 36.0681 34.107C35.6883 33.7273 35.475 33.2122 35.475 32.6751C35.475 32.1381 35.6883 31.623 36.0681 31.2433C36.4478 30.8635 36.9629 30.6501 37.5 30.6501H49.65C50.187 30.6501 50.7021 30.8635 51.0819 31.2433C51.4616 31.623 51.675 32.1381 51.675 32.6751Z" fill="#1CBEEF"/>
</svg>
