<svg width="30" height="39" viewBox="0 0 30 39" fill="none" xmlns="http://www.w3.org/2000/svg">
<path d="M3.07563 7.02069L7.86149 9.12482C6.91257 10.5276 6.41748 12.1366 6.41748 13.8282C6.41748 18.449 10.1719 22.2447 14.834 22.2447C19.4961 22.2447 23.2505 18.4902 23.2505 13.8282C23.2505 12.1779 22.7554 10.5276 21.8477 9.16608L26.056 7.18572V15.1897L24.777 17.9126C24.6945 18.1189 24.6945 18.3252 24.8183 18.4902C24.9421 18.6553 25.1483 18.7791 25.3546 18.7791H27.7888C27.9951 18.7791 28.2014 18.6965 28.2839 18.4902C28.4077 18.3252 28.4077 18.1189 28.3252 17.9126L27.2112 15.1897V6.64938C27.2112 6.31932 27.17 6.07177 26.5924 5.82423C26.4686 5.78297 15.1228 0.749569 15.1228 0.749569C14.9578 0.667054 14.7927 0.667054 14.6277 0.749569L3.07563 5.86549C2.86934 5.948 2.70432 6.19555 2.70432 6.44309C2.70432 6.69063 2.82809 6.89692 3.07563 7.02069ZM21.9715 13.8282C21.9715 17.7889 18.7534 21.007 14.7927 21.007C10.832 21.007 7.61395 17.7889 7.61395 13.8282C7.61395 12.3016 8.10903 10.8576 8.97544 9.61991L14.5864 12.1366C14.669 12.1779 14.7515 12.1779 14.834 12.1779C14.9165 12.1779 14.999 12.1779 15.0815 12.1366L20.61 9.66117C21.5177 10.8989 21.9715 12.3429 21.9715 13.8282ZM26.3035 17.5413L26.5924 16.9225L26.8399 17.5413H26.3035ZM14.8752 1.98729L24.9008 6.44309L14.8752 10.8989L4.8497 6.44309L14.8752 1.98729Z" fill="white"/>
<path d="M15.0403 23.73C6.99511 23.73 0.435181 30.2899 0.435181 38.3351C0.435181 38.6652 0.723982 38.954 1.05404 38.954H29.0266C29.3566 38.954 29.6454 38.6652 29.6454 38.3351C29.6454 30.2899 23.0855 23.73 15.0403 23.73ZM1.71416 37.7162C2.04422 30.62 7.90277 24.9677 15.0816 24.9677C22.2603 24.9677 28.0776 30.6612 28.4077 37.7162H1.71416Z" fill="white"/>
</svg>
