<svg width="86" height="32" viewBox="0 0 86 32" fill="none" xmlns="http://www.w3.org/2000/svg">
<rect opacity="0.66" y="15.0078" width="2" height="2" rx="1" fill="#FF6900"/>
<rect opacity="0.66" x="6" y="12.0078" width="2" height="8" rx="1" fill="#FF6900"/>
<rect opacity="0.66" x="12" y="9.00781" width="2" height="14" rx="1" fill="#FF6900"/>
<rect opacity="0.66" x="18" y="14.0078" width="2" height="4" rx="1" fill="#FF6900"/>
<rect opacity="0.66" x="24" y="8.00781" width="2" height="16" rx="1" fill="#FF6900"/>
<rect opacity="0.66" x="30" y="9.00781" width="2" height="14" rx="1" fill="#FF6900"/>
<rect opacity="0.66" x="36" y="11.0078" width="2" height="10" rx="1" fill="#4F4F4F"/>
<rect opacity="0.66" x="42" y="11.0078" width="2" height="10" rx="1" fill="#4F4F4F"/>
<rect opacity="0.66" x="48" y="11.0078" width="2" height="10" rx="1" fill="#4F4F4F"/>
<rect opacity="0.66" x="54" y="9.00781" width="2" height="14" rx="1" fill="#4F4F4F"/>
<rect opacity="0.66" x="60" y="11.0078" width="2" height="10" rx="1" fill="#4F4F4F"/>
<rect opacity="0.66" x="66" y="8.00781" width="2" height="16" rx="1" fill="#4F4F4F"/>
<rect opacity="0.66" x="72" y="11.0078" width="2" height="10" rx="1" fill="#4F4F4F"/>
<rect opacity="0.66" x="78" y="14.0078" width="2" height="4" rx="1" fill="#4F4F4F"/>
<rect opacity="0.66" x="84" y="15.0078" width="2" height="2" rx="1" fill="#4F4F4F"/>
</svg>
